<?xml version="1.0" encoding="utf-8"?>
<!-- Generator: Adobe Illustrator 27.8.1, SVG Export Plug-In . SVG Version: 6.00 Build 0)  -->
<svg version="1.1" id="CF_Logo_Full_OL" xmlns="http://www.w3.org/2000/svg" xmlns:xlink="http://www.w3.org/1999/xlink" x="0px"
	 y="0px" viewBox="0 0 411 394" style="enable-background:new 0 0 411 394;" xml:space="preserve">
<style type="text/css">
	.st0{fill:#233F85;}
</style>
<path class="st0" d="M92.5,114.1c-2.6-0.1-4.8,1.8-5.1,4.5c-0.1,2.6,1.8,4.8,4.5,5.1c2.6,0.1,4.8-1.8,5.1-4.5
	C97.1,116.4,95.2,114.2,92.5,114.1L92.5,114.1z"/>
<path class="st0" d="M147.5,117.8c-0.5,8.2,5.8,15.1,13.9,15.5h0.8c8.2,0,14.7-6.6,14.7-14.7s-6.6-14.7-14.7-14.7
	C154.4,103.9,147.9,110,147.5,117.8L147.5,117.8z"/>
<path class="st0" d="M92.5,114.1c-2.6-0.1-4.8,1.8-5.1,4.5c-0.1,2.6,1.8,4.8,4.5,5.1c2.6,0.1,4.8-1.8,5.1-4.5
	C97.1,116.4,95.2,114.2,92.5,114.1L92.5,114.1z"/>
<path class="st0" d="M146.6,32.2c2.3-1.2,3.3-4,2.1-6.5c-1.2-2.3-4-3.3-6.5-2.1c-2.3,1.2-3.3,4-2.1,6.3
	C141.4,32.5,144.3,33.4,146.6,32.2z"/>
<path class="st0" d="M161.5,58.4c3.7-1.8,5.1-6.2,3.2-9.9c-1.8-3.7-6.2-5.1-9.9-3.2c-3.7,1.8-5.1,6.2-3.2,9.9
	C153.5,58.7,158,60.1,161.5,58.4L161.5,58.4z"/>
<path class="st0" d="M111.2,76.2c2.8,1.8,6.6,1,8.4-1.7c1.8-2.8,1-6.6-1.7-8.4s-6.6-1-8.4,1.7l0,0C107.6,70.7,108.3,74.4,111.2,76.2
	L111.2,76.2z"/>
<path class="st0" d="M120.2,111.4c-4-0.2-7.5,2.9-7.7,6.9c-0.2,4,2.9,7.5,6.9,7.7c4,0.2,7.5-2.9,7.7-6.9
	C127.3,115.2,124.2,111.7,120.2,111.4z"/>
<path class="st0" d="M112,161c-3,1.5-4.1,5.2-2.6,8.2c1.5,3,5.2,4.1,8.2,2.6s4.1-5.2,2.6-8.2C118.7,160.7,115,159.4,112,161L112,161
	z"/>
<path class="st0" d="M140.6,96.1c4,2.6,9.3,1.5,12-2.5c2.6-4,1.5-9.3-2.5-12s-9.3-1.5-12,2.5C135.5,88.2,136.7,93.5,140.6,96.1
	L140.6,96.1z"/>
<path class="st0" d="M231.6,57.7c3.5,2.2,7.9,1.3,10.3-2.2c2.2-3.5,1.3-7.9-2.2-10.3c-3.5-2.2-7.9-1.3-10.3,2.2l0,0
	C227.2,50.9,228.1,55.5,231.6,57.7C231.4,57.7,231.6,57.7,231.6,57.7z"/>
<path class="st0" d="M246.7,31.6c2.2,1.4,5.2,0.8,6.6-1.4c1.4-2.2,0.8-5.2-1.4-6.6c-2.2-1.4-5.2-0.8-6.6,1.4
	C243.8,27.3,244.5,30.3,246.7,31.6L246.7,31.6z"/>
<path class="st0" d="M232.7,103.7c-8.2-0.5-15.1,5.8-15.5,13.9s5.8,15.1,13.9,15.5h0.8c8.2-0.1,14.7-6.8,14.6-15
	C246.3,110.7,240.3,104.2,232.7,103.7L232.7,103.7z"/>
<path class="st0" d="M166.4,95.1c2.5,5,7.6,8.2,13.2,8.2c8.2,0,14.7-6.6,14.7-14.7c0-2.3-0.6-4.6-1.6-6.6c-2.5-5-7.6-8.2-13.2-8.1
	c-2.3,0-4.6,0.6-6.7,1.6C165.7,79.1,162.8,87.9,166.4,95.1z"/>
<path class="st0" d="M282.1,76.2c3-1.5,4.1-5.2,2.6-8.2c-1.5-3-5.2-4.1-8.2-2.6c-3,1.5-4.1,5.2-2.6,8.2
	C275.4,76.6,279.1,77.7,282.1,76.2L282.1,76.2z"/>
<path class="st0" d="M244.7,80.9c-4.3,2.2-6,7.4-3.8,11.6c2.2,4.3,7.4,6,11.6,3.8c4.3-2.2,6-7.4,3.8-11.6
	C254.1,80.5,249,78.8,244.7,80.9L244.7,80.9z"/>
<path class="st0" d="M196.5,29.5c3.3,0.2,6.2-2.4,6.5-5.8c0.2-3.3-2.4-6.2-5.8-6.5c-3.3-0.2-6.2,2.4-6.5,5.8
	C190.6,26.5,193.1,29.2,196.5,29.5C196.4,29.5,196.4,29.5,196.5,29.5z"/>
<path class="st0" d="M196.4,67.7c4.8,0.2,8.9-3.3,9.1-8.2s-3.3-8.9-8.2-9.1c-4.7-0.2-8.9,3.3-9.1,8.2
	C187.9,63.3,191.6,67.4,196.4,67.7L196.4,67.7z"/>
<path class="st0" d="M149.4,156.3c4.3-2.2,6-7.4,3.8-11.6c-2.2-4.3-7.4-6-11.6-3.8c-4.3,2.2-6,7.4-3.8,11.6
	C139.9,156.7,145.2,158.5,149.4,156.3L149.4,156.3z"/>
<path class="st0" d="M202.1,80.4c-4.5,6.8-2.5,16,4.3,20.4c6.8,4.5,16,2.5,20.4-4.3c4.5-6.8,2.5-16-4.3-20.4
	c-2.4-1.6-5.2-2.4-8.1-2.4C209.4,73.7,204.7,76.2,202.1,80.4z"/>
<path class="st0" d="M227.6,142c-3.7-7.3-12.6-10.3-19.8-6.6c-7.3,3.7-10.3,12.6-6.6,19.8s12.6,10.3,19.8,6.6l0,0
	C228.5,158.2,231.3,149.4,227.6,142C227.8,142.1,227.8,142.1,227.6,142z"/>
<path class="st0" d="M253.4,141.1c-4-2.6-9.3-1.5-12,2.5c-2.6,4-1.5,9.3,2.5,12c4,2.6,9.3,1.5,12-2.5l0,0
	C258.6,149,257.5,143.6,253.4,141.1z"/>
<path class="st0" d="M281.7,118.8c0.2-4-2.9-7.5-6.9-7.7s-7.5,2.9-7.7,6.9c-0.2,4,2.9,7.5,6.9,7.7S281.4,122.9,281.7,118.8z"/>
<path class="st0" d="M302.2,113.7c-2.6-0.1-4.8,1.8-5.1,4.5c-0.1,2.6,1.8,4.8,4.5,5.1c2.6,0.1,4.8-1.8,5.1-4.5l0,0
	C306.8,116,304.7,113.8,302.2,113.7z"/>
<path class="st0" d="M282.9,160.9c-2.8-1.8-6.6-1-8.4,1.7c-1.8,2.8-1,6.6,1.7,8.4c2.8,1.8,6.6,1,8.4-1.7
	C286.5,166.5,285.7,162.7,282.9,160.9L282.9,160.9z"/>
<path class="st0" d="M147.5,205.5c-2.2-1.5-5.2-0.8-6.6,1.4c-1.5,2.2-0.8,5.2,1.4,6.6c2.2,1.5,5.2,0.8,6.6-1.4
	C150.2,209.9,149.7,207,147.5,205.5z"/>
<path class="st0" d="M247.5,205c-2.3,1.2-3.2,4-2.1,6.5c1.2,2.3,4,3.2,6.5,2.1c2.3-1.2,3.2-4,2.1-6.3
	C252.8,204.8,249.9,203.8,247.5,205C247.6,205,247.6,205,247.5,205z"/>
<path class="st0" d="M192.1,156.8c4.5-6.8,2.5-16-4.3-20.4c-6.8-4.5-16-2.5-20.4,4.3c-4.5,6.8-2.5,16,4.3,20.4
	c2.4,1.6,5.2,2.4,8.1,2.4C184.7,163.5,189.3,161,192.1,156.8z"/>
<path class="st0" d="M162.6,179.4c-3.5-2.2-7.9-1.3-10.3,2.1c-2.2,3.5-1.3,7.9,2.1,10.3c3.5,2.2,7.9,1.3,10.3-2.1l0,0
	C166.9,186.2,166,181.7,162.6,179.4z"/>
<path class="st0" d="M197,207.8c-3.3-0.2-6.2,2.4-6.5,5.8c-0.2,3.3,2.4,6.2,5.8,6.5c3.3,0.2,6.2-2.3,6.5-5.6
	C202.9,210.9,200.3,207.9,197,207.8L197,207.8z"/>
<path class="st0" d="M197,169.5c-4.8-0.3-8.9,3.3-9.2,8.2s3.3,8.9,8.2,9.2c4.8,0.3,8.9-3.3,9.2-8.2l0,0
	C205.4,173.9,201.8,169.7,197,169.5z"/>
<path class="st0" d="M232.5,178.8c-3.7,1.8-5.1,6.2-3.2,9.9c1.8,3.7,6.2,5.1,9.9,3.2c3.7-1.8,5.1-6.2,3.2-9.9
	C240.7,178.5,236.2,177,232.5,178.8L232.5,178.8z"/>
<path class="st0" d="M0,324.1h39.7v8.8H10.3v15h26.5v8.8H10.3v22.7H0L0,324.1L0,324.1z"/>
<path class="st0" d="M42.5,358.2c0-15.2,7-22.1,20.8-22.1s20.9,6.9,20.9,22.1c0,15.2-7,22.1-20.9,22.1
	C49.4,380.3,42.5,373.4,42.5,358.2z M74.2,358.7v-1.1c0-9.2-3.1-13.7-10.9-13.7s-10.9,4.5-10.9,13.7v1.1c0,9.2,3.1,13.7,10.9,13.7
	S74.2,367.9,74.2,358.7z"/>
<path class="st0" d="M92.5,365.6V337h9.7v26.9c0,6,3,8.1,7.8,8.1c5.3,0,9.5-4.3,9.5-10.3v-24.6h9.7v42.3h-8l-0.8-5.6h-0.6
	c-3.2,4.3-8.3,6.7-13.6,6.6C98.1,380.3,92.5,376.4,92.5,365.6z"/>
<path class="st0" d="M140.4,337h8l0.8,5.6h0.6c3.2-4.3,8.3-6.7,13.6-6.6c8.1,0,13.7,3.9,13.7,14.7v28.6h-9.7v-26.9
	c0-6-3-8.1-7.8-8.1c-5.3,0-9.5,4.3-9.5,10.3v24.6h-9.7V337z"/>
<path class="st0" d="M185.4,358.1c0-15.2,6.8-22.1,16.3-22.1c5.8,0,10.1,1.9,12.7,5.9h0.5v-20.8h9.7v58.2h-8l-0.8-5.6h-0.5
	c-2.8,4.4-7.6,6.6-13,6.6C191.9,380.3,185.4,373.5,185.4,358.1z M214.8,358.7v-1c0-8.6-2.9-13.4-9.7-13.4c-7.2,0-9.8,4.2-9.8,13.4v1
	c0,9.1,2.6,13.3,9.8,13.3C212,372,214.8,367.3,214.8,358.7z"/>
<path class="st0" d="M232.6,368.4c0-11.5,11-14.7,26.6-14.7v-3.5c0-3.6-1.3-6.4-7.3-6.4c-6.2,0-7.8,2.5-7.8,4.8v1.1h-9.4
	c-0.1-0.6-0.1-1.2-0.1-1.8c0-7.3,6.9-11.8,17.2-11.8c11.4,0,16.9,4.9,16.9,13.4v20.2c-0.1,1.4,1,2.7,2.4,2.8c0.1,0,0.3,0,0.4,0h2.6
	v6.6c-1.9,0.8-4,1.2-6,1.2c-4.2,0-7.1-2.2-8.1-5.7h-0.6c-2.8,3.5-6.9,5.8-13.5,5.8C241.2,380.3,232.6,378.7,232.6,368.4z
	 M259.2,362.4v-1.9c-9.2,0-16.7,1.3-16.7,6.9c0,3.4,2.2,5.2,6.4,5.2C255.4,372.6,259.2,368.5,259.2,362.4L259.2,362.4z"/>
<path class="st0" d="M281.1,369.7v-24.8h-5.2V337h5.3l1.8-11.8h7.7V337h7.2v7.9h-7.2v23.9c0,2.3,1.1,3.6,3.5,3.6h3.8v6.6
	c-2.2,0.8-4.5,1.2-6.8,1.3C283.4,380.3,281.1,375,281.1,369.7z"/>
<path class="st0" d="M305.8,321.1h9.5v9.5h-9.5V321.1z M305.8,337h9.7v42.3h-9.7V337z"/>
<path class="st0" d="M324,358.2c0-15.2,7-22.1,20.8-22.1s20.9,6.9,20.9,22.1c0,15.2-7,22.1-20.9,22.1S324,373.4,324,358.2z
	 M355.7,358.7v-1.1c0-9.2-3.1-13.7-10.9-13.7s-10.9,4.5-10.9,13.7v1.1c0,9.2,3.1,13.7,10.9,13.7
	C352.6,372.4,355.7,367.9,355.7,358.7L355.7,358.7z"/>
<path class="st0" d="M374.3,337h8l0.8,5.6h0.6c3.2-4.3,8.3-6.8,13.6-6.6c8,0,13.7,3.9,13.7,14.7v28.6h-9.7v-26.8c0-6-3-8.1-7.8-8.1
	c-5.3,0-9.5,4.3-9.5,10.3v24.6h-9.7L374.3,337L374.3,337z"/>
<path class="st0" d="M34.4,271.3c0-19.4,9.8-28.6,26.7-28.6c13.8,0,24.4,6.9,24.4,21.3H75c0-8.2-5.6-12.6-13.7-12.6
	c-11.1,0-16.3,6.4-16.3,19.1v1.6c0,12.9,5.2,19.1,16.3,19.1c8.5,0,14.1-4.4,14.1-12.5h10.1c0,14.4-10.5,21.2-24.4,21.2
	C44.2,299.9,34.4,291.2,34.4,271.3z"/>
<path class="st0" d="M91.4,288c0-11.5,11-14.7,26.6-14.7v-3.5c0-3.6-1.3-6.4-7.2-6.4c-6.2,0-7.8,2.5-7.8,4.7v1.1h-9.3
	c-0.1-0.6-0.1-1.2-0.1-1.8c0-7.3,6.9-11.8,17.2-11.8c11.4,0,16.9,4.9,16.9,13.4v20.2c-0.1,1.4,1,2.7,2.4,2.8c0.1,0,0.3,0,0.4,0h2.6
	v6.6c-1.9,0.8-4,1.2-6,1.2c-4.2,0-7.1-2.2-8.1-5.7h-0.6c-2.8,3.5-6.9,5.8-13.5,5.8C100.1,299.9,91.4,298.3,91.4,288z M118,282v-1.9
	c-9.2,0-16.7,1.3-16.7,6.9c0,3.4,2.2,5.2,6.4,5.2C114.2,292.2,118,288.1,118,282z"/>
<path class="st0" d="M139.3,256.6h8l0.9,6.7h0.6c1.5-4,4.2-7.7,9.5-7.7c1.4,0,2.7,0.2,4,0.7v9.1h-3.1c-6.6,0-10.2,3.6-10.2,11.4
	v22.1h-9.7L139.3,256.6z"/>
<path class="st0" d="M166.4,277.7c0-15.2,6.8-22.1,16.3-22.1c5.8,0,10.1,1.9,12.7,5.9h0.5v-20.8h9.6v58.2h-8l-0.8-5.6h-0.5
	c-2.8,4.4-7.6,6.6-13,6.6C172.9,299.9,166.4,293.1,166.4,277.7z M195.8,278.3v-1c0-8.6-2.9-13.4-9.7-13.4c-7.2,0-9.8,4.2-9.8,13.4v1
	c0,9.1,2.6,13.3,9.8,13.3C193,291.6,195.8,286.9,195.8,278.3L195.8,278.3z"/>
<path class="st0" d="M213.6,288c0-11.5,11-14.7,26.6-14.7v-3.5c0-3.6-1.3-6.4-7.2-6.4c-6.2,0-7.8,2.5-7.8,4.7v1.1h-9.4
	c-0.1-0.6-0.1-1.2-0.1-1.8c0-7.3,6.9-11.8,17.2-11.8c11.4,0,16.9,4.9,16.9,13.4v20.2c-0.1,1.4,1,2.7,2.4,2.8c0.1,0,0.3,0,0.4,0h2.6
	v6.6c-1.9,0.8-4,1.2-6,1.2c-4.2,0-7.1-2.2-8-5.7h-0.6c-2.8,3.5-6.9,5.8-13.5,5.8C222.2,299.9,213.6,298.3,213.6,288z M240.2,282
	v-1.9c-9.2,0-16.7,1.3-16.7,6.9c0,3.4,2.2,5.2,6.4,5.2C236.4,292.2,240.2,288.1,240.2,282L240.2,282z"/>
<path class="st0" d="M261.5,256.6h8l0.8,5.6h0.6c3.2-4.3,8.3-6.7,13.6-6.6c8.1,0,13.7,3.9,13.7,14.7v28.6h-9.7V272
	c0-6-3-8.1-7.8-8.1c-5.3,0-9.5,4.3-9.5,10.3v24.6h-9.7V256.6z"/>
<path class="st0" d="M306.5,277.8c0-15.2,7-22.1,20.8-22.1s20.9,6.9,20.9,22.1c0,15.2-7,22.1-20.9,22.1S306.5,293,306.5,277.8z
	 M338.3,278.3v-1.1c0-9.2-3.1-13.7-10.9-13.7s-10.9,4.5-10.9,13.7v1.1c0,9.2,3.1,13.7,10.9,13.7S338.3,287.5,338.3,278.3z"/>
</svg>
