<?xml version="1.0" encoding="utf-8"?>
<!-- Generator: Adobe Illustrator 27.4.1, SVG Export Plug-In . SVG Version: 6.00 Build 0)  -->
<svg version="1.1" id="a" xmlns="http://www.w3.org/2000/svg" xmlns:xlink="http://www.w3.org/1999/xlink" x="0px" y="0px"
	 viewBox="0 0 1690 1691.6" style="enable-background:new 0 0 1690 1691.6;" xml:space="preserve">
<style type="text/css">
	.st0{fill-rule:evenodd;clip-rule:evenodd;fill:url(#SVGID_1_);}
	.st1{fill:url(#SVGID_00000043430901014338053600000010585929188648952721_);}
	.st2{fill:url(#SVGID_00000093883716904109508220000016004541553913745322_);}
	.st3{fill:url(#SVGID_00000066510708417632843610000017152126073346861988_);}
	.st4{fill:url(#SVGID_00000039812680944240872840000013990829605299708303_);}
	.st5{fill:url(#SVGID_00000177484694896529879670000006423041615084740489_);}
	.st6{fill:url(#SVGID_00000110452578406407853170000006839757437034629763_);}
	.st7{fill:url(#SVGID_00000009578644427715658850000001217722825354896009_);}
	.st8{stroke:#FFFFFF;stroke-miterlimit:10;}
</style>
<g id="b">
	
		<linearGradient id="SVGID_1_" gradientUnits="userSpaceOnUse" x1="2250.05" y1="2936.4543" x2="2533.8682" y2="2936.4543" gradientTransform="matrix(0.9148 0.4039 -0.4039 0.9148 -606.9642 -2952.811)">
		<stop  offset="0" style="stop-color:#E52C2B"/>
		<stop  offset="1" style="stop-color:#4B3A8E"/>
	</linearGradient>
	<path class="st0" d="M526.3,722.3c-19.5-8.6-42.4,0.2-51,19.6c-8.6,19.4-31.4,28.2-51,19.6c-19.5-8.6-28.4-31.4-19.9-50.9
		c17.2-38.9-0.7-84.5-39.7-101.7c-39-17.2-84.8,0.3-101.9,39.2l-20.8,47l23.6,10.4l20.8-47c11.4-25.9,41.9-37.6,68-26.1
		c26,11.5,37.9,41.9,26.5,67.8c-14.3,32.4,0.5,70.4,33.1,84.8c32.5,14.4,70.6-0.3,84.9-32.7c2.9-6.5,10.5-9.4,17-6.5
		c6.5,2.9,14.1,0,17-6.5C535.8,732.7,532.8,725.2,526.3,722.3"/>
	
		<linearGradient id="SVGID_00000072252809779097149890000001190677050390223275_" gradientUnits="userSpaceOnUse" x1="1437.0527" y1="1477.3807" x2="1579.1028" y2="2015.0107" gradientTransform="matrix(0.9406 0.3394 -0.3394 0.9406 -556.9158 -1378.4945)">
		<stop  offset="0" style="stop-color:#E52C2B"/>
		<stop  offset="1" style="stop-color:#4B3A8E"/>
	</linearGradient>
	<path style="fill:url(#SVGID_00000072252809779097149890000001190677050390223275_);" d="M257.5,898.5c-7,73,1,125.1,21.6,163.8
		c34.4-21,62.2-53.4,77-94.3c24.5-68,6.4-141.1-40.7-189.8l14.1-39.1c3.6-10-1.6-21-11.5-24.5l-115.9-41.8
		c-10-3.6-20.9,1.6-24.5,11.5l-14.1,39.1C206.7,739.1,267.4,795,257.5,898.5L257.5,898.5z"/>
	
		<linearGradient id="SVGID_00000115507053442468111850000008783560558871775154_" gradientUnits="userSpaceOnUse" x1="1339.1929" y1="1720.7617" x2="1609.3129" y2="2023.2318" gradientTransform="matrix(0.9406 0.3394 -0.3394 0.9406 -556.9158 -1378.4945)">
		<stop  offset="0" style="stop-color:#E52C2B"/>
		<stop  offset="1" style="stop-color:#4B3A8E"/>
	</linearGradient>
	<path style="fill:url(#SVGID_00000115507053442468111850000008783560558871775154_);" d="M279.1,1062.4
		c-10,6.1-20.6,11.2-31.6,15.3c-44.1-36.1-69.2-87.5-80.9-189.1c-12.1-105-100.9-123.2-101.1-123.2c18.5-15.5,39.9-27.2,62.8-34.4
		c3.6-1.2,7.2-2.2,10.9-3.1c7.7-2,15.5-3.4,23.4-4.3c0.3,0,0.6-0.1,0.8-0.1c12.2,4.4,25.7,12,38.7,22.9c2.2,1.8,4.3,3.8,6.4,5.8
		c2.8,2.7,5.6,5.5,8.3,8.5c0.7,0.8,1.3,1.5,2,2.3c2,2.3,4,4.7,5.9,7.3c1.3,1.7,2.6,3.4,3.8,5.2c2.5,3.5,4.9,7.2,7.1,11.1
		c1.1,1.9,2.2,3.9,3.3,5.9c0.5,1,1,2,1.6,3.1c0.5,1,1,2.1,1.5,3.1c12.4,26.3,19.3,59.5,15.5,100
		C250.6,971.5,258.5,1023.6,279.1,1062.4L279.1,1062.4z"/>
	
		<linearGradient id="SVGID_00000167393036076268353650000005176429684473395383_" gradientUnits="userSpaceOnUse" x1="1251.6477" y1="1915.4875" x2="1540.4777" y2="2092.5376" gradientTransform="matrix(0.9406 0.3394 -0.3394 0.9406 -556.9158 -1378.4945)">
		<stop  offset="0" style="stop-color:#F7A922"/>
		<stop  offset="1" style="stop-color:#D52A86"/>
	</linearGradient>
	<path style="fill:url(#SVGID_00000167393036076268353650000005176429684473395383_);" d="M207.5,1087.7c-28.2,3.8-57.6,1-86.2-9.3
		C34.2,1047-14.5,956.7,3.8,868.6c1.7-8.4,4.1-16.8,7.1-25.1c0,0,62.4,19.2,84.2,94.2C117,1013.6,154.6,1063.3,207.5,1087.7
		L207.5,1087.7L207.5,1087.7z"/>
	
		<linearGradient id="SVGID_00000041263314666973611020000001576787379440984967_" gradientUnits="userSpaceOnUse" x1="1246.8577" y1="1781.5471" x2="1571.5878" y2="2050.7971" gradientTransform="matrix(0.9406 0.3394 -0.3394 0.9406 -556.9158 -1378.4945)">
		<stop  offset="0" style="stop-color:#F7A922"/>
		<stop  offset="1" style="stop-color:#D52A86"/>
	</linearGradient>
	<path style="fill:url(#SVGID_00000041263314666973611020000001576787379440984967_);" d="M247.5,1077.7c-12.9,4.8-26.3,8.2-40.1,10
		c-52.9-24.5-90.4-74.1-112.4-149.9c-21.8-75-84.2-94.2-84.2-94.2c8.4-23.3,21-43.8,36.7-61c5.6-6.2,11.6-11.9,17.9-17.2
		c0.2,0,88.9,18.2,101.1,123.2C178.3,990.2,203.4,1041.6,247.5,1077.7L247.5,1077.7z"/>
	
		<linearGradient id="SVGID_00000088113329736808407890000015810769949122287039_" gradientUnits="userSpaceOnUse" x1="1390.4054" y1="1724.871" x2="1632.1754" y2="1994.7609" gradientTransform="matrix(0.9406 0.3394 -0.3394 0.9406 -556.9158 -1378.4945)">
		<stop  offset="0" style="stop-color:#E52C2B;stop-opacity:0"/>
		<stop  offset="1" style="stop-color:#4B3A8E"/>
	</linearGradient>
	<path style="fill:url(#SVGID_00000088113329736808407890000015810769949122287039_);" d="M279.1,1062.4
		c-61.2-62.1-30.4-143.2-51.7-222.9c-20.2-75.9-73-98.9-99.1-108.5c3.6-1.2,7.2-2.2,10.9-3.1c7.7-2,15.5-3.4,23.4-4.3
		c0.3-0.1,0.6-0.1,0.8-0.1c12.2,4.4,25.7,12,38.7,22.9c2.2,1.8,4.3,3.8,6.4,5.8c2.8,2.7,5.6,5.5,8.3,8.5c0.7,0.8,1.3,1.5,2,2.3
		c2,2.3,4,4.7,5.9,7.3c1.3,1.7,2.6,3.4,3.8,5.1c2.5,3.5,4.9,7.2,7.1,11.1c1.1,1.9,2.2,3.9,3.3,5.9c0.5,1,1,2,1.6,3.1
		c0.5,1,1,2.1,1.5,3.1c12.4,26.3,19.3,59.5,15.5,100C250.6,971.5,258.5,1023.6,279.1,1062.4L279.1,1062.4z"/>
	
		<linearGradient id="SVGID_00000126314311267991227880000005149776911859265441_" gradientUnits="userSpaceOnUse" x1="1315.3281" y1="1811.1182" x2="1599.2581" y2="2022.1881" gradientTransform="matrix(0.9406 0.3394 -0.3394 0.9406 -556.9158 -1378.4945)">
		<stop  offset="0" style="stop-color:#F7A922;stop-opacity:0"/>
		<stop  offset="1" style="stop-color:#D52A86"/>
	</linearGradient>
	<path style="fill:url(#SVGID_00000126314311267991227880000005149776911859265441_);" d="M247.5,1077.7
		c-100.6-56.9-86.1-156.7-118.5-229.3c-20.5-45.9-70.9-63.4-81.4-65.9c5.6-6.2,11.6-11.9,17.9-17.2c0.2,0,89,18.2,101.1,123.2
		C178.3,990.2,203.4,1041.6,247.5,1077.7L247.5,1077.7L247.5,1077.7z"/>
	
		<linearGradient id="SVGID_00000072270321057616862030000003218295923015502264_" gradientUnits="userSpaceOnUse" x1="1293.856" y1="1912.1335" x2="1562.2158" y2="2063.4336" gradientTransform="matrix(0.9406 0.3394 -0.3394 0.9406 -556.9158 -1378.4945)">
		<stop  offset="0" style="stop-color:#F7A922;stop-opacity:0"/>
		<stop  offset="1" style="stop-color:#D52A86"/>
	</linearGradient>
	<path style="fill:url(#SVGID_00000072270321057616862030000003218295923015502264_);" d="M207.5,1087.7
		c-93.1-30.6-120.6-119.2-141.9-165.3c-21.9-47.5-61.8-53.8-61.8-53.8c1.7-8.4,4.1-16.8,7.1-25.1c0,0,62.4,19.2,84.2,94.2
		C117,1013.6,154.6,1063.3,207.5,1087.7L207.5,1087.7L207.5,1087.7z"/>
	<path class="st8" d="M526.3,722.1c-19.5-8.6-42.3,0.2-50.9,19.6c-8.6,19.4-31.4,28.2-50.9,19.6c-19.5-8.6-28.4-31.4-19.8-50.8
		c17.1-38.8-0.7-84.3-39.6-101.5c-39-17.2-84.6,0.3-101.7,39.1l-20.7,46.9l23.6,10.4l20.7-46.9c11.4-25.9,41.8-37.6,67.8-26.1
		c26,11.5,37.8,41.8,26.4,67.7c-14.3,32.3,0.5,70.3,33,84.6c32.5,14.3,70.5-0.3,84.8-32.6c2.9-6.5,10.5-9.4,17-6.5
		c6.5,2.9,14.1,0,17-6.5C535.8,732.5,532.8,725,526.3,722.1L526.3,722.1C526.3,722.1,526.3,722.1,526.3,722.1z"/>
	<path class="st8" d="M356.4,967.5c-14.7,40.8-42.5,73.2-76.9,94.1c-0.5-0.9-1-1.8-1.4-2.8v0c-0.5-0.9-0.9-1.9-1.4-2.8v0
		c-0.7-1.4-1.3-2.8-1.9-4.2c-0.5-1.1-1-2.3-1.5-3.4c-2.3-5.4-4.3-10.9-6.2-16.8v0c-0.5-1.6-1-3.3-1.5-4.9v0c-0.5-1.7-0.9-3.3-1.4-5
		v0c-6.6-25-9.5-54.3-8.4-89c0-0.3,0-0.6,0-1c0.1-2.6,0.2-5.2,0.3-7.8c0-0.5,0-0.9,0.1-1.3c0.1-2.1,0.2-4.2,0.4-6.4
		c0.3-4.9,0.7-9.8,1.1-14.9c0.1-1.1,0.2-2.2,0.3-3.2c0.3-3.3,0.6-6.6,0.7-9.8l0,0c0.1-1.4,0.1-2.8,0.2-4.1c0.1-2.7,0.1-5.4,0.1-8.1
		v-1.9c0-0.9,0-1.7,0-2.6c0-0.6,0-1.1,0-1.7c0-0.7,0-1.4-0.1-2c0-0.5,0-1.1-0.1-1.6c0-0.3,0-0.5,0-0.8c0-0.4,0-0.9-0.1-1.3
		c0-0.2,0-0.5,0-0.7c0-0.6-0.1-1.1-0.1-1.7c0-0.5-0.1-0.9-0.1-1.4c0-0.3,0-0.7-0.1-1v0c-0.1-1.1-0.2-2.2-0.3-3.4c0-0.1,0-0.2,0-0.3
		c-0.1-0.6-0.1-1.1-0.2-1.7v-0.1c-0.1-0.6-0.1-1.3-0.2-1.9c-0.1-0.6-0.1-1.2-0.2-1.8c0-0.1,0-0.2,0-0.3c-0.1-0.6-0.1-1.2-0.2-1.7
		c-0.1-0.6-0.2-1.3-0.3-1.9s-0.2-1.2-0.3-1.9v0c-0.1-0.6-0.2-1.2-0.3-1.8c-0.2-1.2-0.4-2.5-0.7-3.7c-0.4-1.8-0.7-3.6-1.1-5.4
		c-0.7-3-1.4-5.9-2.2-8.7c-1.3-4.5-2.7-8.9-4.2-13.2c-0.2-0.5-0.4-1.1-0.6-1.6c-0.4-1-0.8-2.1-1.2-3.1c-0.4-1-0.8-2-1.3-3.1
		c-0.2-0.5-0.4-1-0.6-1.5c-0.2-0.4-0.3-0.8-0.5-1.1c-0.1-0.2-0.2-0.4-0.2-0.6c-0.2-0.4-0.3-0.7-0.5-1.1c-0.2-0.5-0.4-0.9-0.6-1.4
		c0-0.1-0.1-0.2-0.1-0.3c-0.6-1.2-1.2-2.4-1.8-3.6c-0.4-0.7-0.7-1.4-1.1-2.1c-0.4-0.8-0.9-1.6-1.3-2.4c-0.3-0.5-0.5-1-0.8-1.5
		c-0.1-0.2-0.3-0.5-0.4-0.7c0,0,0-0.1-0.1-0.1c-0.5-0.9-1.1-1.9-1.6-2.8c0,0-0.1-0.1-0.1-0.1c-0.2-0.4-0.4-0.7-0.6-1.1
		c-0.4-0.6-0.8-1.2-1.1-1.8c-0.3-0.4-0.5-0.8-0.8-1.2c0,0,0,0,0,0c-0.2-0.3-0.4-0.6-0.6-0.9c-1-1.5-2-3-3-4.5
		c-0.3-0.4-0.5-0.7-0.8-1.1c-0.5-0.7-1-1.3-1.4-2c-2.1-2.8-4.3-5.6-6.5-8.2c-0.1-0.1-0.1-0.1-0.2-0.2c-0.4-0.5-0.8-1-1.2-1.4
		c0,0,0,0,0,0c-0.2-0.3-0.5-0.6-0.8-0.9c-0.5-0.6-1.1-1.2-1.6-1.8c-0.1-0.1-0.2-0.3-0.4-0.4c-0.3-0.3-0.5-0.6-0.8-0.9
		c-1.4-1.5-2.8-2.9-4.2-4.3c-0.2-0.2-0.5-0.5-0.7-0.7c-0.9-0.9-1.8-1.7-2.7-2.6c-0.2-0.2-0.5-0.5-0.7-0.7c-0.9-0.8-1.9-1.7-2.8-2.5
		c-0.2-0.2-0.5-0.4-0.7-0.6l0,0c-0.5-0.4-0.9-0.8-1.4-1.2c-0.6-0.5-1.3-1.1-1.9-1.6c-12.2-9.8-24.8-16.7-36.1-20.8l14.1-39.1
		c3.6-9.9,14.6-15.1,24.5-11.5l43,15.5l24.3,8.8l48.4,17.5c9.9,3.6,15.1,14.6,11.5,24.5l-14.1,39.1
		C362.8,826.6,381,899.5,356.4,967.5L356.4,967.5z"/>
	<path class="st8" d="M203.5,746.8c-0.5-0.4-0.9-0.8-1.4-1.2c0.2,0.2,0.4,0.3,0.6,0.5C203,746.4,203.2,746.6,203.5,746.8
		L203.5,746.8z"/>
	<path class="st8" d="M210.5,753.2c-0.9-0.9-1.8-1.7-2.7-2.6c0.4,0.4,0.9,0.8,1.3,1.2C209.6,752.3,210,752.7,210.5,753.2
		L210.5,753.2z"/>
	<path class="st8" d="M218.2,761.2c-0.5-0.6-1.1-1.2-1.6-1.8c0.3,0.3,0.6,0.6,0.9,1C217.7,760.7,217.9,761,218.2,761.2L218.2,761.2z
		"/>
	<path class="st8" d="M220.2,763.5c-0.4-0.5-0.8-1-1.2-1.4c0.2,0.2,0.3,0.4,0.5,0.5C219.7,763,220,763.3,220.2,763.5z"/>
	<path class="st8" d="M228.3,774c-0.5-0.7-1-1.3-1.4-2C227.4,772.6,227.9,773.3,228.3,774z"/>
	<path class="st8" d="M239.6,792.3c-0.4-0.8-0.9-1.6-1.3-2.5c0.4,0.7,0.8,1.5,1.2,2.3C239.5,792.1,239.5,792.2,239.6,792.3
		L239.6,792.3z"/>
	<path class="st8" d="M242.4,798c-0.6-1.2-1.2-2.4-1.8-3.6c0.1,0.3,0.3,0.5,0.4,0.8C241.5,796.1,242,797,242.4,798L242.4,798z"/>
	<path class="st8" d="M246.4,807c-0.4-1-0.8-2.1-1.3-3.1C245.5,804.9,246,806,246.4,807z"/>
	<path class="st8" d="M247.6,810.1c-0.4-1-0.8-2.1-1.2-3.1C246.8,808,247.2,809.1,247.6,810.1z"/>
	<path class="st8" d="M252.4,824.8c-1.3-4.5-2.7-8.9-4.2-13.1C249.7,815.9,251.2,820.3,252.4,824.8z"/>
	<path class="st8" d="M254.6,833.5c-0.7-3-1.4-5.8-2.2-8.7C253.2,827.7,253.9,830.6,254.6,833.5z"/>
	<path class="st8" d="M255.7,838.9c-0.4-1.8-0.7-3.6-1.1-5.4C255,835.3,255.3,837.1,255.7,838.9z"/>
	<path class="st8" d="M256.3,842.6c-0.2-1.2-0.4-2.4-0.7-3.7C255.9,840.1,256.1,841.3,256.3,842.6z"/>
	<path class="st8" d="M258,898c0.3-3.3,0.6-6.6,0.7-9.8C258.6,891.5,258.3,894.7,258,898c-0.1,1.1-0.2,2.2-0.3,3.2
		C257.8,900.2,257.9,899.1,258,898L258,898z"/>
	<path class="st8" d="M258.4,859.3c-0.1-1.1-0.2-2.2-0.3-3.4C258.2,857.1,258.3,858.2,258.4,859.3z"/>
	<path class="st8" d="M279.5,1061.6c-10,6.1-20.5,11.2-31.5,15.3c-4.9,1.8-4.9,1.8,0,0c11-4.1,0,0,0,0l0,0c-2.7-2.2-5.2-4.4-7.8-6.7
		c-1.5-1.4-3-2.8-4.5-4.2l-0.1-0.1l-0.1-0.1c-0.8-0.8-1.6-1.6-2.4-2.3l-0.1-0.1l-0.4-0.4c-0.9-0.9-1.8-1.8-2.6-2.8
		c-0.1-0.1-0.1-0.1-0.2-0.2c-0.1-0.1-0.1-0.2-0.2-0.2c-1.3-1.4-2.6-2.8-3.9-4.3c0,0-0.1,0-0.1-0.1c0,0,0,0,0,0
		c-0.4-0.5-0.8-0.9-1.2-1.4c0,0-0.1-0.1-0.1-0.1c-0.1-0.1-0.2-0.2-0.3-0.4c-1.1-1.4-2.3-2.8-3.4-4.2c-0.1-0.1-0.1-0.1-0.2-0.2
		c0,0-0.1-0.1-0.1-0.1c-0.4-0.5-0.8-1-1.2-1.5c0,0-0.1-0.1-0.1-0.1c-0.1-0.1-0.2-0.2-0.3-0.3c-0.7-1-1.5-1.9-2.2-2.9
		c0,0-0.1-0.1-0.1-0.1c0,0,0,0,0,0c-0.4-0.5-0.7-1-1-1.4c-0.1-0.1-0.1-0.2-0.2-0.3c-0.1-0.1-0.2-0.2-0.2-0.3c-1-1.4-1.9-2.8-2.9-4.2
		c-0.1-0.1-0.2-0.3-0.3-0.4c-0.1-0.2-0.2-0.3-0.3-0.5c-0.3-0.5-0.6-0.9-0.9-1.4c-0.1-0.2-0.2-0.3-0.3-0.4c-0.2-0.3-0.4-0.5-0.5-0.8
		c-0.2-0.3-0.4-0.6-0.6-0.9c-0.3-0.5-0.6-1-0.9-1.5c0-0.1-0.1-0.2-0.1-0.2c-0.2-0.4-0.5-0.8-0.7-1.2c-0.1-0.1-0.2-0.3-0.3-0.4
		c-0.2-0.3-0.3-0.6-0.5-0.8c0-0.1-0.1-0.2-0.1-0.2c-0.6-1.1-1.2-2.1-1.9-3.2v0c-0.2-0.4-0.5-0.8-0.7-1.3c-0.2-0.4-0.5-0.9-0.7-1.3
		c-0.1-0.2-0.2-0.3-0.3-0.5c-0.3-0.6-0.6-1.1-0.9-1.7c-0.1-0.1-0.1-0.2-0.2-0.4c-0.2-0.4-0.4-0.8-0.6-1.2c0-0.1-0.1-0.1-0.1-0.2
		c-0.8-1.6-1.6-3.2-2.4-4.8v0c0,0,0,0,0,0c-0.6-1.2-1.2-2.4-1.7-3.7c-0.1-0.3-0.3-0.6-0.4-0.9c-0.2-0.4-0.4-0.8-0.5-1.2
		c-0.1-0.1-0.1-0.3-0.2-0.4c-0.1-0.2-0.1-0.3-0.2-0.5c-0.1-0.2-0.2-0.5-0.3-0.8c-0.2-0.5-0.4-1-0.6-1.4c-0.5-1.1-0.9-2.2-1.4-3.3
		c-0.5-1.2-1-2.4-1.5-3.7c-0.2-0.5-0.4-0.9-0.5-1.4c-0.1-0.2-0.1-0.3-0.2-0.5c-0.1-0.3-0.2-0.6-0.4-0.9c-0.1-0.3-0.2-0.6-0.4-0.9
		l0,0c-0.2-0.6-0.5-1.3-0.7-1.9l0,0l-0.2-0.7c-0.1-0.4-0.3-0.8-0.4-1.2c-0.1-0.2-0.1-0.4-0.2-0.5c-0.2-0.5-0.3-0.9-0.5-1.4l0,0
		c-0.2-0.6-0.4-1.3-0.7-2c-0.4-1.3-0.9-2.6-1.3-4c-0.2-0.5-0.4-1.1-0.5-1.6c-0.4-1.1-0.7-2.2-1-3.3c-0.2-0.5-0.2-0.5,0,0
		c-0.5-1.6-1-3.3-1.5-5c-0.1-0.4-0.2-0.8-0.4-1.3c-0.4-1.3-0.7-2.6-1.1-3.9l0,0c-0.6-2.3-1.3-4.7-1.9-7.1c-0.3-1.2-0.6-2.4-0.9-3.6
		c-0.3-1.2-0.6-2.5-0.9-3.7c-0.3-1.2-0.6-2.5-0.9-3.7c-0.1-0.6-0.3-1.3-0.4-1.9c-0.1-0.6-0.3-1.3-0.4-1.9c-0.1-0.6-0.3-1.3-0.4-1.9
		c-0.3-1.3-0.5-2.6-0.8-3.9c-0.1-0.6-0.1-0.6,0,0c-0.3-1.3-0.5-2.6-0.8-4c-0.1-0.6-0.1-0.6,0,0c-0.4-2-0.8-4-1.1-6.1
		c-0.2-1.4-0.5-2.7-0.7-4.1c-0.2-1.4-0.5-2.8-0.7-4.2c-0.1-0.7-0.2-1.4-0.4-2.1c-0.1-0.7-0.2-1.4-0.3-2.1c-0.1-0.7-0.2-1.4-0.3-2.2
		c-0.2-1.4-0.4-2.9-0.7-4.4c0-0.1,0-0.2-0.1-0.3c-0.2-1.4-0.4-2.7-0.6-4.1c-0.2-1.5-0.4-3-0.6-4.5c-0.2-1.5-0.4-3-0.6-4.6
		c-0.4-3.1-0.8-6.2-1.1-9.4c-0.1-0.6-0.1-1.3-0.2-2c0-0.3-0.1-0.6-0.1-0.9c0-0.3-0.1-0.5-0.1-0.8c-0.1-0.4-0.1-0.8-0.2-1.2
		c-0.1-0.3-0.1-0.7-0.1-1c-0.1-0.5-0.2-1.1-0.2-1.6c-0.1-0.3-0.1-0.6-0.1-1c-0.2-1.6-0.5-3.1-0.8-4.6c-0.1-0.5-0.2-1-0.3-1.6
		c-0.1-0.5-0.2-0.9-0.3-1.4c-0.1-0.6-0.3-1.2-0.4-1.9c-0.1-0.4-0.2-0.8-0.3-1.2c-0.7-3.2-1.5-6.3-2.4-9.3c-0.3-1-0.6-2.1-0.9-3.1
		l0,0c-0.2-0.5-0.3-1-0.5-1.5c-0.2-0.5-0.3-1-0.5-1.5c-0.3-0.8-0.5-1.6-0.8-2.4c-0.1-0.3-0.2-0.6-0.3-0.9c-0.2-0.6-0.4-1.2-0.7-1.8
		c-0.1-0.2-0.2-0.5-0.3-0.7c-0.7-1.9-1.5-3.8-2.2-5.6c-0.4-0.9-0.8-1.8-1.2-2.7c-0.2-0.4-0.2-0.4,0,0c-0.4-0.9-0.8-1.8-1.2-2.6l0,0
		c-0.2-0.5-0.5-1-0.7-1.5c-0.2-0.4-0.4-0.8-0.6-1.1c-0.1-0.1-0.1-0.2-0.2-0.4c-0.2-0.5-0.4-0.9-0.7-1.3c-0.2-0.5-0.5-1-0.8-1.5
		c-0.2-0.5-0.5-0.9-0.8-1.4c-0.5-0.9-1-1.8-1.5-2.7c-0.2-0.4-0.5-0.8-0.7-1.2c-0.2-0.4-0.5-0.8-0.7-1.2c-0.2-0.3-0.3-0.5-0.5-0.8
		c-0.2-0.3-0.3-0.5-0.5-0.8c-0.2-0.3-0.3-0.5-0.5-0.8c-0.3-0.5-0.7-1-1-1.6c-0.3-0.4-0.5-0.8-0.8-1.2c-0.3-0.4-0.6-0.8-0.8-1.2
		c-0.6-0.8-1.1-1.6-1.7-2.4l0,0c-0.7-0.9-1.4-1.8-2-2.7c-0.7-0.9-1.4-1.8-2.1-2.6c-0.7-0.9-1.4-1.7-2.1-2.5
		c-0.1-0.1-0.2-0.2-0.2-0.3c-0.3-0.3-0.5-0.6-0.8-1c-0.4-0.4-0.7-0.8-1.1-1.2c-0.3-0.3-0.5-0.6-0.8-0.9s-0.5-0.6-0.8-0.9
		c-0.3-0.3-0.5-0.6-0.8-0.9c-1-1.1-2-2.1-3-3.1c-0.2-0.2-0.4-0.4-0.7-0.7c-0.2-0.2-0.4-0.4-0.7-0.6c-0.2-0.2-0.4-0.4-0.7-0.6
		c-0.2-0.2-0.4-0.4-0.7-0.6l-1.3-1.2c-0.2-0.2-0.4-0.4-0.7-0.6c-0.4-0.4-0.9-0.8-1.3-1.2c-0.4-0.4-0.9-0.8-1.3-1.2
		c-0.7-0.6-1.3-1.1-2-1.7c-0.3-0.3-0.7-0.6-1-0.8c-0.2-0.2-0.4-0.3-0.6-0.5c0,0-0.1,0-0.1-0.1c-0.2-0.2-0.4-0.4-0.7-0.5h0l-1.1-0.8
		c0,0-0.1-0.1-0.1-0.1c-0.4-0.3-0.9-0.7-1.3-1c-0.2-0.2-0.4-0.3-0.7-0.5c-0.1,0-0.1-0.1-0.1-0.1c-0.1-0.1-0.2-0.1-0.3-0.2
		c-0.1-0.1-0.2-0.1-0.3-0.2c-0.1-0.1-0.2-0.1-0.3-0.2c-0.2-0.1-0.4-0.3-0.6-0.4c0,0,0,0,0,0c0,0-0.1-0.1-0.1-0.1
		c-0.3-0.2-0.7-0.5-1-0.7c-0.2-0.1-0.4-0.3-0.6-0.4c-0.2-0.1-0.4-0.3-0.7-0.5c-0.8-0.5-1.6-1.1-2.3-1.6c-0.4-0.2-0.8-0.5-1.1-0.7
		s-0.8-0.5-1.1-0.7c0,0-0.1,0-0.1,0c-0.4-0.2-0.8-0.5-1.2-0.7c-0.4-0.2-0.8-0.5-1.1-0.7c-0.4-0.2-0.8-0.4-1.1-0.7
		c-0.4-0.2-0.8-0.4-1.1-0.7c0,0,0,0,0,0c-0.7-0.4-1.5-0.8-2.2-1.2c-0.4-0.2-0.7-0.4-1.1-0.6c-16.3-8.8-29-11.4-29-11.4c0,0,0,0,0,0
		c18.5-15.5,39.8-27.2,62.7-34.4c26.1,9.6,78.8,32.6,99,108.4C249.2,918.7,218.4,999.7,279.5,1061.6L279.5,1061.6z"/>
	<path class="st8" d="M208,1086.9c-28.1,3.7-57.5,1-86.1-9.3C35.1,1046.3-13.6,956.1,4.8,868.2c0,0,39.8,6.3,61.7,53.7
		C87.6,967.9,115.1,1056.3,208,1086.9L208,1086.9z"/>
	<path class="st8" d="M95.3,776.5c-16.3-8.8-29-11.4-29-11.4c0,0,0,0,0,0c0.1,0,0,0,0,0h0.1c0,0,0.1,0,0.2,0c0,0,0.1,0,0.1,0l0,0
		c0,0,0.1,0,0.1,0c0.1,0,0.2,0,0.2,0.1s0.2,0,0.2,0.1c0.1,0,0.1,0,0.2,0c0.1,0,0.2,0,0.3,0.1c0.2,0,0.4,0.1,0.7,0.2l0.3,0.1
		c0.2,0.1,0.4,0.1,0.7,0.2c0.2,0,0.3,0.1,0.5,0.1c0.3,0.1,0.7,0.2,1.1,0.3c0.4,0.1,0.8,0.2,1.3,0.4c1,0.3,2.1,0.7,3.3,1.1
		c0.2,0.1,0.4,0.1,0.6,0.2c0,0,0.1,0,0.1,0c0.2,0.1,0.3,0.1,0.5,0.2c0.2,0.1,0.4,0.2,0.7,0.2c0.2,0.1,0.4,0.1,0.6,0.2
		c0.1,0,0.1,0,0.2,0.1c0.2,0.1,0.3,0.1,0.5,0.2c0.2,0.1,0.5,0.2,0.8,0.3c0.2,0.1,0.4,0.1,0.6,0.2c0.4,0.2,0.9,0.4,1.4,0.5
		c0.2,0.1,0.5,0.2,0.7,0.3c0.2,0.1,0.5,0.2,0.7,0.3c0.2,0.1,0.5,0.2,0.7,0.3c0.7,0.3,1.5,0.6,2.3,1c0.3,0.1,0.5,0.2,0.8,0.3
		s0.5,0.2,0.8,0.4c2.2,1,4.5,2.1,6.9,3.4C94.7,776.1,95,776.3,95.3,776.5L95.3,776.5z"/>
	<path class="st8" d="M96.4,777.1c-0.4-0.2-0.7-0.4-1.1-0.6c0.2,0.1,0.4,0.2,0.6,0.3C96.1,776.9,96.3,777,96.4,777.1L96.4,777.1z"/>
	<path class="st8" d="M98.6,778.3c-0.7-0.4-1.5-0.8-2.2-1.2c0,0,0.1,0,0.1,0.1c0.4,0.2,0.8,0.5,1.2,0.7
		C98.1,778,98.4,778.2,98.6,778.3z"/>
	<path class="st8" d="M99.8,779c-0.4-0.2-0.8-0.4-1.1-0.7c0.3,0.2,0.6,0.3,0.9,0.5C99.6,778.9,99.7,779,99.8,779
		C99.8,779,99.8,779,99.8,779z"/>
	<path class="st8" d="M100.9,779.7c-0.4-0.2-0.8-0.5-1.1-0.7c0.2,0.1,0.4,0.2,0.7,0.4C100.6,779.5,100.8,779.6,100.9,779.7
		L100.9,779.7z"/>
	<path class="st8" d="M102.1,780.4c-0.4-0.2-0.8-0.5-1.1-0.7c0.2,0.1,0.3,0.2,0.4,0.3C101.6,780.1,101.8,780.2,102.1,780.4
		L102.1,780.4z"/>
	<path class="st8" d="M103.2,781.1c-0.4-0.2-0.8-0.5-1.2-0.7c0,0,0.1,0,0.1,0C102.5,780.6,102.9,780.9,103.2,781.1L103.2,781.1z"/>
	<path class="st8" d="M115,789.4l-1.1-0.8c0,0,0.1,0.1,0.1,0.1C114.4,788.9,114.7,789.1,115,789.4L115,789.4z"/>
	<path class="st8" d="M119.4,793c-0.7-0.6-1.3-1.1-2-1.7C118.1,791.8,118.7,792.4,119.4,793z"/>
	<path class="st8" d="M120.7,794.1c-0.4-0.4-0.9-0.8-1.3-1.2C119.9,793.4,120.3,793.7,120.7,794.1z"/>
	<path class="st8" d="M136.4,810.5c-0.7-0.9-1.4-1.7-2.1-2.5C135,808.8,135.7,809.6,136.4,810.5z"/>
	<path class="st8" d="M140.5,815.9c-0.7-0.9-1.4-1.8-2-2.7C139.2,814,139.8,814.9,140.5,815.9z"/>
	<path class="st8" d="M145.9,823.9c-0.2-0.3-0.3-0.5-0.5-0.8l0,0c0.1,0.2,0.3,0.4,0.4,0.6C145.8,823.8,145.8,823.8,145.9,823.9
		L145.9,823.9z"/>
	<path class="st8" d="M146.4,824.7c-0.2-0.3-0.3-0.5-0.5-0.8l0,0C146,824.1,146.2,824.4,146.4,824.7z"/>
	<path class="st8" d="M154.2,839.6c-0.4-0.9-0.8-1.8-1.2-2.6C153.4,837.8,153.8,838.7,154.2,839.6z"/>
	<path class="st8" d="M154.2,839.6c0.4,0.9,0.8,1.8,1.2,2.7C155,841.4,154.6,840.5,154.2,839.6z"/>
	<path class="st8" d="M161.6,859.8c-0.3-1-0.6-2.1-0.9-3.1C161,857.7,161.3,858.8,161.6,859.8z"/>
	<path class="st8" d="M168.9,902c-0.2-1.5-0.4-3-0.6-4.6C168.5,899,168.7,900.5,168.9,902z"/>
	<path class="st8" d="M170.9,915.3c-0.2-1.4-0.4-2.9-0.7-4.4C170.4,912.4,170.6,913.9,170.9,915.3z"/>
	<path class="st8" d="M174.5,936.2c-0.4-2-0.8-4-1.1-6.1C173.7,932.1,174.1,934.2,174.5,936.2z"/>
	<path class="st8" d="M174.5,936.2c0.3,1.3,0.5,2.6,0.8,4C175,938.8,174.7,937.5,174.5,936.2z"/>
	<path class="st8" d="M181.8,967.9c-0.6-2.3-1.3-4.7-1.9-7.1C180.5,963.2,181.2,965.6,181.8,967.9z"/>
	<path class="st8" d="M181.8,967.9c0.4,1.3,0.7,2.6,1.1,3.9C182.5,970.5,182.2,969.2,181.8,967.9z"/>
	<path class="st8" d="M189,990.8c-0.1-0.2-0.1-0.4-0.2-0.5C188.9,990.5,189,990.6,189,990.8L189,990.8L189,990.8z"/>
	<path class="st8" d="M189.7,992.7l-0.2-0.7C189.6,992.3,189.7,992.5,189.7,992.7L189.7,992.7z"/>
	<path class="st8" d="M190.4,994.6c-0.2-0.6-0.5-1.3-0.7-1.9c0.2,0.5,0.4,1,0.5,1.4c0.1,0.4,0.3,0.8,0.5,1.2c0,0.1,0.1,0.1,0.1,0.2
		C190.7,995.3,190.6,995,190.4,994.6L190.4,994.6z"/>
	<path class="st8" d="M191.2,996.5c-0.1-0.3-0.2-0.6-0.4-0.9c0,0,0,0.1,0.1,0.2c0.2,0.4,0.3,0.8,0.5,1.2
		C191.3,996.8,191.2,996.7,191.2,996.5L191.2,996.5z"/>
	<path class="st8" d="M193.4,1002c-0.5-1.2-1-2.4-1.5-3.7C192.4,999.6,192.9,1000.8,193.4,1002z"/>
	<path class="st8" d="M195.7,1007.5c-0.1-0.2-0.2-0.5-0.3-0.8c0.2,0.4,0.4,0.8,0.6,1.3C195.8,1007.8,195.8,1007.7,195.7,1007.5
		L195.7,1007.5z"/>
	<path class="st8" d="M196.6,1009.6c-0.2-0.4-0.4-0.8-0.5-1.2c0.1,0.2,0.2,0.5,0.3,0.7C196.5,1009.3,196.6,1009.4,196.6,1009.6
		L196.6,1009.6z"/>
	<path class="st8" d="M201.2,1019.1c-0.8-1.6-1.6-3.2-2.4-4.8c0,0.1,0.1,0.1,0.1,0.2c0.2,0.4,0.4,0.8,0.6,1.2
		c0.2,0.4,0.4,0.8,0.6,1.3c0.1,0.3,0.3,0.6,0.4,0.9C200.8,1018.2,201,1018.6,201.2,1019.1L201.2,1019.1z"/>
	<path class="st8" d="M198.8,1014.2c-0.6-1.2-1.2-2.4-1.7-3.7c0.3,0.7,0.6,1.4,1,2.1C198.3,1013.1,198.5,1013.6,198.8,1014.2
		L198.8,1014.2z"/>
	<path class="st8" d="M201.3,1019.2c0-0.1-0.1-0.1-0.1-0.2c0.2,0.5,0.5,0.9,0.7,1.4C201.7,1020,201.5,1019.6,201.3,1019.2
		L201.3,1019.2z"/>
	<path class="st8" d="M198.8,1014.2C198.8,1014.2,198.8,1014.2,198.8,1014.2C198.8,1014.2,198.8,1014.2,198.8,1014.2L198.8,1014.2
		L198.8,1014.2z"/>
	<path class="st8" d="M202.2,1020.8c-0.1-0.1-0.1-0.2-0.2-0.4c0.5,0.9,0.9,1.7,1.4,2.6c-0.1-0.2-0.2-0.3-0.3-0.5
		C202.8,1022,202.5,1021.4,202.2,1020.8L202.2,1020.8z"/>
	<path class="st8" d="M207.7,1030.6c0.2,0.3,0.4,0.6,0.5,0.9c-0.2-0.4-0.5-0.8-0.7-1.2C207.6,1030.4,207.6,1030.5,207.7,1030.6
		L207.7,1030.6z"/>
	<path class="st8" d="M206.2,1028c0.1,0.3,0.3,0.5,0.5,0.8c-0.6-1.1-1.2-2.1-1.9-3.2C205.2,1026.4,205.7,1027.2,206.2,1028
		L206.2,1028z"/>
	<path class="st8" d="M211.4,1036.5c0.1,0.1,0.1,0.2,0.2,0.3c-0.3-0.5-0.6-0.9-0.9-1.4C210.9,1035.7,211.1,1036.1,211.4,1036.5
		L211.4,1036.5z"/>
	<path class="st8" d="M209.9,1034.1c0.3,0.4,0.5,0.8,0.8,1.3c-0.1-0.1-0.2-0.3-0.3-0.4C210.2,1034.6,210,1034.4,209.9,1034.1z"/>
	<path class="st8" d="M208.2,1031.5c0.3,0.6,0.7,1.1,1,1.7c-0.3-0.5-0.6-1-0.9-1.5C208.3,1031.7,208.3,1031.6,208.2,1031.5
		L208.2,1031.5z"/>
	<path class="st8" d="M214.1,1040.4c0.3,0.5,0.6,0.9,1,1.4c-1-1.4-1.9-2.8-2.9-4.2c0.1,0.2,0.3,0.4,0.4,0.6c0.1,0.2,0.2,0.4,0.4,0.6
		C213.3,1039.3,213.7,1039.9,214.1,1040.4L214.1,1040.4z"/>
	<path class="st8" d="M206.6,1028.8c0.3,0.5,0.6,1,0.9,1.5c-0.1-0.1-0.2-0.3-0.3-0.4c-0.2-0.3-0.3-0.6-0.5-0.8
		C206.7,1029,206.7,1028.9,206.6,1028.8L206.6,1028.8z"/>
	<path class="st8" d="M232.4,1062.6c0.1,0.1,0.2,0.2,0.3,0.4c-0.9-0.9-1.8-1.8-2.6-2.8c0.4,0.4,0.7,0.8,1.1,1.2
		c0.1,0.1,0.2,0.2,0.4,0.4C231.8,1062.1,232.1,1062.3,232.4,1062.6L232.4,1062.6z"/>
	<path class="st8" d="M228.3,1058.2c0.5,0.5,0.9,1,1.4,1.5c-1.3-1.4-2.6-2.8-3.9-4.3c0.4,0.4,0.8,0.9,1.2,1.3l0.2,0.3
		C227.6,1057.5,227.9,1057.9,228.3,1058.2L228.3,1058.2z"/>
	<path class="st8" d="M223.2,1052.4c0.3,0.3,0.6,0.7,0.8,1c-1.1-1.4-2.3-2.8-3.4-4.2c0.3,0.3,0.6,0.7,0.8,1c0.4,0.4,0.7,0.9,1.1,1.3
		C222.8,1051.9,223,1052.2,223.2,1052.4L223.2,1052.4z"/>
	<path class="st8" d="M217.6,1045.3c0.4,0.6,0.8,1.1,1.3,1.7c-0.7-1-1.5-1.9-2.2-2.9C217,1044.4,217.3,1044.9,217.6,1045.3
		L217.6,1045.3z"/>
	<path class="st8" d="M220.3,1048.9C220.3,1048.9,220.4,1048.9,220.3,1048.9c-0.3-0.4-0.8-0.9-1.1-1.5
		C219.6,1047.9,220,1048.4,220.3,1048.9z"/>
	<path class="st8" d="M209.3,1033.2c0.2,0.3,0.4,0.6,0.6,0.9C209.7,1033.8,209.5,1033.5,209.3,1033.2
		C209.3,1033.2,209.3,1033.2,209.3,1033.2z"/>
	<path class="st8" d="M220.4,1049c0.1,0.1,0.2,0.2,0.3,0.3c-0.1-0.1-0.1-0.1-0.2-0.2C220.5,1049,220.4,1049,220.4,1049L220.4,1049z"
		/>
	<path class="st8" d="M224.1,1053.4c0.1,0.2,0.3,0.3,0.4,0.5c0,0-0.1-0.1-0.1-0.1C224.3,1053.7,224.2,1053.6,224.1,1053.4
		L224.1,1053.4z"/>
	<path class="st8" d="M224.5,1053.9c0.4,0.5,0.8,0.9,1.2,1.4C225.3,1054.9,224.9,1054.4,224.5,1053.9z"/>
	<path class="st8" d="M218.8,1046.9c0.1,0.2,0.2,0.3,0.4,0.5c0-0.1-0.1-0.1-0.1-0.1C219,1047.2,218.9,1047.1,218.8,1046.9
		L218.8,1046.9z"/>
	<path class="st8" d="M229.7,1059.8c0.1,0.2,0.3,0.3,0.4,0.5c-0.1-0.1-0.1-0.2-0.2-0.2C229.8,1059.9,229.7,1059.8,229.7,1059.8z"/>
	<path class="st8" d="M225.7,1055.3c0,0,0.1,0.1,0.1,0.1C225.8,1055.4,225.7,1055.4,225.7,1055.3
		C225.7,1055.4,225.7,1055.4,225.7,1055.3z"/>
	<path class="st8" d="M215.5,1042.4c0.3,0.5,0.7,1,1,1.4C216.2,1043.4,215.8,1042.9,215.5,1042.4z"/>
	<path class="st8" d="M211.6,1036.8c0.2,0.3,0.4,0.6,0.6,0.9c-0.1-0.1-0.2-0.3-0.3-0.4C211.8,1037.1,211.7,1036.9,211.6,1036.8
		L211.6,1036.8z"/>
	<path class="st8" d="M215.1,1041.8c0.1,0.2,0.3,0.4,0.4,0.6c-0.1-0.1-0.1-0.2-0.2-0.3C215.2,1042.1,215.1,1041.9,215.1,1041.8
		L215.1,1041.8z"/>
	<path class="st8" d="M216.5,1043.9c0,0,0.1,0.1,0.1,0.2C216.6,1044,216.6,1044,216.5,1043.9
		C216.5,1043.9,216.5,1043.9,216.5,1043.9z"/>
	<path class="st8" d="M234.2,1064.5c0.4,0.4,0.9,0.9,1.3,1.3c-0.8-0.8-1.6-1.6-2.4-2.3C233.5,1063.8,233.9,1064.1,234.2,1064.5z"/>
	<path class="st8" d="M240,1070c0.1,0.1,0.1,0.1,0.2,0.2c-1.5-1.4-3-2.8-4.5-4.2c0.6,0.6,1.1,1.1,1.7,1.7c0.3,0.3,0.7,0.6,1,0.9
		c0.1,0.1,0.2,0.2,0.3,0.3C239.2,1069.3,239.6,1069.6,240,1070L240,1070z"/>
	<path class="st8" d="M235.6,1065.8c0.1,0.1,0.1,0.1,0.2,0.2l-0.1-0.1L235.6,1065.8L235.6,1065.8z"/>
	<path class="st8" d="M232.7,1063c0.2,0.2,0.3,0.3,0.5,0.5l-0.1-0.1L232.7,1063L232.7,1063z"/>
	<path class="st8" d="M248,1076.9L248,1076.9c-12.9,4.8-26.3,8.2-40,10c-52.8-24.4-90.3-74-112.2-149.6c-21.7-74.9-84-94.1-84-94.1
		c8.4-23.2,21-43.7,36.6-60.9c10.5,2.5,60.9,20,81.3,65.8C162,920.5,147.6,1020,248,1076.9c-2.7-2.2-5.3-4.4-7.8-6.7
		c0.5,0.4,1,0.9,1.5,1.3c1.1,1,2.2,2,3.4,2.9c0.4,0.3,0.8,0.6,1.1,1C246.8,1075.9,247.4,1076.4,248,1076.9L248,1076.9L248,1076.9z"
		/>
	<path class="st8" d="M202.7,746.1c0.3,0.2,0.5,0.4,0.8,0.7c-0.5-0.4-0.9-0.8-1.4-1.2C202.3,745.8,202.5,746,202.7,746.1
		L202.7,746.1z"/>
	<path class="st8" d="M209.1,751.9c0.5,0.4,0.9,0.9,1.4,1.3c-0.9-0.9-1.8-1.7-2.7-2.6C208.2,751,208.7,751.5,209.1,751.9
		L209.1,751.9z"/>
	<path class="st8" d="M217.4,760.4c0.3,0.3,0.5,0.6,0.8,0.8c-0.5-0.6-1.1-1.2-1.6-1.8C216.8,759.7,217.1,760.1,217.4,760.4
		L217.4,760.4z"/>
	<path class="st8" d="M219.5,762.7c0.2,0.3,0.5,0.6,0.8,0.9c-0.4-0.5-0.8-1-1.2-1.4C219.1,762.3,219.3,762.5,219.5,762.7z"/>
	<path class="st8" d="M226.9,772c0.5,0.7,1,1.3,1.4,2C227.8,773.3,227.4,772.6,226.9,772z"/>
	<path class="st8" d="M239.5,792.1c0,0.1,0.1,0.1,0.1,0.2c-0.4-0.8-0.9-1.6-1.3-2.5C238.7,790.5,239.1,791.3,239.5,792.1
		L239.5,792.1z"/>
	<path class="st8" d="M241,795.1c0.5,0.9,0.9,1.9,1.4,2.9c-0.6-1.2-1.2-2.4-1.8-3.6C240.8,794.6,240.9,794.9,241,795.1L241,795.1z"
		/>
	<path class="st8" d="M245.1,803.9c0.4,1,0.9,2,1.3,3.1C246,806,245.5,804.9,245.1,803.9z"/>
	<path class="st8" d="M246.4,807c0.4,1,0.8,2.1,1.2,3.1C247.2,809.1,246.8,808,246.4,807z"/>
	<path class="st8" d="M248.2,811.7c1.6,4.2,3,8.6,4.2,13.2C251.1,820.3,249.7,815.9,248.2,811.7z"/>
	<path class="st8" d="M252.4,824.8c0.8,2.8,1.5,5.7,2.2,8.7C253.9,830.6,253.2,827.7,252.4,824.8z"/>
	<path class="st8" d="M254.6,833.5c0.4,1.8,0.8,3.6,1.1,5.4C255.3,837.1,255,835.3,254.6,833.5z"/>
	<path class="st8" d="M255.7,838.9c0.2,1.2,0.4,2.4,0.7,3.7C256.1,841.3,255.9,840.1,255.7,838.9L255.7,838.9z"/>
	<path class="st8" d="M258,898c0.3-3.3,0.6-6.6,0.7-9.8C258.6,891.5,258.3,894.7,258,898c-0.1,1.1-0.2,2.2-0.3,3.2
		C257.8,900.2,257.9,899.1,258,898L258,898z"/>
	<path class="st8" d="M258.4,859.3c-0.1-1.1-0.2-2.2-0.3-3.4C258.2,857.1,258.3,858.2,258.4,859.3z"/>
	<path class="st8" d="M102.1,780.4c0.4,0.2,0.7,0.4,1.1,0.7C102.8,780.9,102.4,780.6,102.1,780.4c-0.5-0.3-0.8-0.5-1.2-0.7
		c-0.4-0.2-0.8-0.4-1.1-0.7c-0.4-0.2-0.8-0.4-1.1-0.7c0,0,0,0,0,0c-0.7-0.4-1.5-0.8-2.2-1.2c-0.4-0.2-0.7-0.4-1.1-0.6
		c-16.3-8.8-29-11.4-29-11.4c0,0,0,0,0,0c0.1,0,0,0,0,0h0.1c0,0,0.1,0,0.2,0c0,0,0.1,0,0.1,0l0,0c0,0,0.1,0,0.1,0
		c0.1,0,0.2,0,0.2,0.1s0.2,0,0.2,0.1c0.1,0,0.1,0,0.2,0c0.1,0,0.2,0.1,0.3,0.1c0.2,0.1,0.4,0.1,0.7,0.2l0.3,0.1
		c0.2,0.1,0.4,0.1,0.7,0.2c0.2,0,0.3,0.1,0.5,0.1c0.3,0.1,0.7,0.2,1.1,0.3c0.4,0.1,0.8,0.2,1.3,0.4c1,0.3,2.1,0.7,3.3,1.1
		c0.2,0.1,0.4,0.1,0.6,0.2c0,0,0.1,0,0.1,0c0.2,0.1,0.3,0.1,0.5,0.2c0.2,0.1,0.4,0.2,0.7,0.2c0.2,0.1,0.4,0.1,0.6,0.2
		c0.1,0,0.1,0.1,0.2,0.1c0.2,0.1,0.3,0.1,0.5,0.2c0.2,0.1,0.5,0.2,0.8,0.3c0.2,0.1,0.4,0.1,0.6,0.2c0.4,0.2,0.9,0.4,1.4,0.5
		c0.2,0.1,0.5,0.2,0.7,0.3c0.2,0.1,0.5,0.2,0.7,0.3c0.2,0.1,0.5,0.2,0.7,0.3c0.7,0.3,1.5,0.6,2.3,1c0.3,0.1,0.5,0.2,0.8,0.4
		c0.3,0.1,0.5,0.2,0.8,0.4c2.2,1,4.5,2.1,6.9,3.4c0.5,0.3,1,0.6,1.6,0.8c0.2,0.1,0.4,0.2,0.6,0.3c0.4,0.2,0.8,0.5,1.2,0.7
		c0.6,0.3,1.2,0.7,1.7,1c0.3,0.2,0.6,0.4,0.9,0.5s0.6,0.4,0.9,0.5C101.6,780.1,101.9,780.3,102.1,780.4
		C102.1,780.4,102.1,780.4,102.1,780.4z"/>
	<path class="st8" d="M110.3,785.8c0.3,0.2,0.6,0.4,0.9,0.6c-0.1-0.1-0.2-0.1-0.3-0.2C110.7,786.1,110.4,785.9,110.3,785.8
		C110.2,785.8,110.3,785.8,110.3,785.8L110.3,785.8z"/>
	<path class="st8" d="M114.1,788.6c0.3,0.2,0.6,0.5,0.9,0.7l-1.1-0.8C114,788.6,114,788.6,114.1,788.6L114.1,788.6z"/>
	<path class="st8" d="M117.4,791.3c0.7,0.6,1.3,1.1,2,1.7C118.7,792.4,118.1,791.8,117.4,791.3z"/>
	<path class="st8" d="M119.4,793c0.4,0.4,0.9,0.8,1.3,1.2C120.3,793.7,119.9,793.4,119.4,793z"/>
	<path class="st8" d="M134.3,807.9c0.7,0.8,1.4,1.7,2.1,2.5C135.7,809.6,135,808.8,134.3,807.9z"/>
	<path class="st8" d="M138.5,813.1c0.7,0.9,1.4,1.8,2,2.7C139.8,814.9,139.2,814,138.5,813.1z"/>
	<path class="st8" d="M145.9,823.9c0.2,0.3,0.3,0.5,0.5,0.8C146.2,824.4,146,824.1,145.9,823.9c-0.2-0.3-0.3-0.5-0.5-0.8
		c-0.2-0.3-0.3-0.5-0.5-0.8c0.2,0.3,0.3,0.5,0.5,0.8c0.1,0.2,0.3,0.4,0.4,0.6C145.8,823.8,145.9,823.8,145.9,823.9L145.9,823.9z"/>
	<path class="st8" d="M154.2,839.6c-0.4-0.9-0.8-1.8-1.2-2.6C153.4,837.8,153.8,838.7,154.2,839.6z"/>
	<path class="st8" d="M154.2,839.6c0.4,0.9,0.8,1.8,1.2,2.7C155,841.4,154.6,840.5,154.2,839.6z"/>
	<path class="st8" d="M160.7,856.7c0.3,1,0.6,2,0.9,3.1C161.3,858.8,161,857.8,160.7,856.7L160.7,856.7z"/>
	<path class="st8" d="M168.3,897.5c0.2,1.5,0.4,3.1,0.6,4.6C168.7,900.5,168.5,899,168.3,897.5z"/>
	<path class="st8" d="M170.2,911c0.2,1.5,0.4,2.9,0.7,4.4C170.6,913.9,170.4,912.4,170.2,911z"/>
	<path class="st8" d="M174.5,936.2c-0.4-2-0.8-4-1.1-6.1C173.7,932.1,174.1,934.2,174.5,936.2z"/>
	<path class="st8" d="M175.3,940.1c-0.3-1.3-0.5-2.6-0.8-4C174.7,937.5,175,938.8,175.3,940.1z"/>
	<path class="st8" d="M181.8,967.9c-0.6-2.3-1.3-4.7-1.9-7.1C180.5,963.2,181.2,965.6,181.8,967.9z"/>
	<path class="st8" d="M181.8,967.9c0.4,1.3,0.7,2.6,1.1,3.9C182.5,970.5,182.2,969.2,181.8,967.9z"/>
	<path class="st8" d="M189,990.8L189,990.8c-0.1-0.2-0.1-0.3-0.2-0.5c-0.2-0.5-0.3-0.9-0.5-1.4C188.6,989.5,188.8,990.2,189,990.8
		L189,990.8z"/>
	<path class="st8" d="M190.3,994.2c0.1,0.2,0.1,0.3,0.2,0.5c-0.2-0.6-0.5-1.3-0.7-1.9C189.9,993.2,190.1,993.7,190.3,994.2z"/>
	<path class="st8" d="M190.7,995.4c0,0.1,0.1,0.1,0.1,0.2c-0.1-0.3-0.2-0.6-0.4-0.9C190.5,994.9,190.6,995.2,190.7,995.4z"/>
	<path class="st8" d="M190.9,995.7c0.1,0.3,0.2,0.5,0.3,0.8c-0.1-0.3-0.2-0.6-0.4-0.9C190.8,995.6,190.8,995.7,190.9,995.7
		L190.9,995.7z"/>
	<path class="st8" d="M191.9,998.4c0.5,1.2,1,2.5,1.5,3.7C192.9,1000.8,192.4,999.6,191.9,998.4z"/>
	<path class="st8" d="M196.4,1009.1c0.1,0.2,0.1,0.3,0.2,0.4c-0.2-0.4-0.4-0.8-0.5-1.2c-0.1-0.1-0.1-0.3-0.2-0.4
		c-0.1-0.2-0.1-0.3-0.2-0.5c-0.1-0.2-0.2-0.5-0.3-0.8c0.1,0.3,0.2,0.5,0.4,0.8C196,1008.1,196.2,1008.6,196.4,1009.1L196.4,1009.1z"
		/>
	<path class="st8" d="M200.6,1017.8c0.2,0.4,0.4,0.8,0.6,1.2c-0.8-1.6-1.6-3.2-2.4-4.8c0,0.1,0.1,0.1,0.1,0.2
		c0.2,0.4,0.4,0.8,0.6,1.2c0.2,0.4,0.4,0.8,0.6,1.3C200.3,1017.2,200.4,1017.5,200.6,1017.8L200.6,1017.8z"/>
	<path class="st8" d="M198,1012.6c0.2,0.5,0.5,1.1,0.8,1.6c-0.6-1.2-1.2-2.4-1.7-3.7C197.4,1011.2,197.7,1011.9,198,1012.6
		L198,1012.6z"/>
	<path class="st8" d="M198.8,1014.2C198.8,1014.2,198.8,1014.2,198.8,1014.2L198.8,1014.2C198.8,1014.2,198.8,1014.2,198.8,1014.2
		L198.8,1014.2z"/>
	<path class="st8" d="M203.1,1022.6c0.5,1,1.1,2,1.6,3c-0.2-0.4-0.5-0.8-0.7-1.3c-0.2-0.4-0.5-0.9-0.7-1.3
		C203.3,1022.9,203.2,1022.7,203.1,1022.6c-0.4-0.7-0.7-1.2-1-1.8c-0.1-0.1-0.1-0.2-0.2-0.4c-0.2-0.4-0.4-0.8-0.6-1.2
		c0-0.1-0.1-0.1-0.1-0.2c0.1,0.2,0.2,0.4,0.3,0.5c0.2,0.4,0.4,0.7,0.6,1.1C202.4,1021.3,202.8,1022,203.1,1022.6L203.1,1022.6z"/>
	<path class="st8" d="M206.6,1028.8c0.3,0.5,0.6,1,0.9,1.5c-0.1-0.1-0.2-0.3-0.3-0.4c-0.2-0.3-0.3-0.6-0.5-0.8
		C206.7,1029,206.7,1028.9,206.6,1028.8L206.6,1028.8z"/>
	<path class="st8" d="M211.4,1036.5c0.1,0.1,0.1,0.2,0.2,0.3c-0.3-0.5-0.6-0.9-0.9-1.4C210.9,1035.7,211.1,1036.1,211.4,1036.5
		L211.4,1036.5z"/>
	<path class="st8" d="M206.2,1028c0.1,0.3,0.3,0.5,0.5,0.8c-0.6-1.1-1.2-2.1-1.9-3.2C205.2,1026.4,205.7,1027.2,206.2,1028
		L206.2,1028z"/>
	<path class="st8" d="M208.2,1031.5c0.3,0.6,0.7,1.1,1,1.7c-0.3-0.5-0.6-1-0.9-1.5C208.3,1031.7,208.3,1031.6,208.2,1031.5
		L208.2,1031.5z"/>
	<path class="st8" d="M209.3,1033.2c0.2,0.3,0.4,0.6,0.6,0.9C209.7,1033.8,209.5,1033.5,209.3,1033.2
		C209.3,1033.2,209.3,1033.2,209.3,1033.2z"/>
	<path class="st8" d="M207.7,1030.6c0.2,0.3,0.4,0.6,0.5,0.9c-0.2-0.4-0.5-0.8-0.7-1.2C207.6,1030.4,207.6,1030.5,207.7,1030.6
		L207.7,1030.6z"/>
	<path class="st8" d="M223.2,1052.4c0.3,0.3,0.6,0.7,0.8,1c-1.1-1.4-2.3-2.8-3.4-4.2c0.3,0.3,0.6,0.7,0.8,1c0.4,0.4,0.7,0.9,1.1,1.3
		C222.8,1051.9,223,1052.2,223.2,1052.4L223.2,1052.4z"/>
	<path class="st8" d="M228.3,1058.2c0.5,0.5,0.9,1,1.4,1.5c-1.3-1.4-2.6-2.8-3.9-4.3c0.4,0.4,0.8,0.9,1.2,1.3l0.2,0.3
		C227.6,1057.5,227.9,1057.9,228.3,1058.2L228.3,1058.2z"/>
	<path class="st8" d="M224.1,1053.4c0.1,0.2,0.3,0.3,0.4,0.5c0,0-0.1-0.1-0.1-0.1C224.3,1053.7,224.2,1053.6,224.1,1053.4
		L224.1,1053.4z"/>
	<path class="st8" d="M220.3,1048.9C220.3,1048.9,220.4,1048.9,220.3,1048.9c-0.3-0.4-0.8-0.9-1.1-1.5
		C219.6,1047.9,220,1048.4,220.3,1048.9z"/>
	<path class="st8" d="M214.1,1040.4c0.3,0.5,0.6,0.9,1,1.4c-1-1.4-1.9-2.8-2.9-4.2c0.1,0.2,0.3,0.4,0.4,0.6c0.1,0.2,0.2,0.4,0.4,0.6
		C213.3,1039.3,213.7,1039.9,214.1,1040.4L214.1,1040.4z"/>
	<path class="st8" d="M217.6,1045.3c0.4,0.6,0.8,1.1,1.3,1.7c-0.7-1-1.5-1.9-2.2-2.9C217,1044.4,217.3,1044.9,217.6,1045.3
		L217.6,1045.3z"/>
	<path class="st8" d="M218.8,1046.9c0.1,0.2,0.2,0.3,0.4,0.5c0-0.1-0.1-0.1-0.1-0.1C219,1047.2,218.9,1047.1,218.8,1046.9
		L218.8,1046.9z"/>
	<path class="st8" d="M220.4,1049c0.1,0.1,0.2,0.2,0.3,0.3c-0.1-0.1-0.1-0.1-0.2-0.2C220.5,1049,220.4,1049,220.4,1049L220.4,1049z"
		/>
	<path class="st8" d="M229.7,1059.8c0.1,0.2,0.3,0.3,0.4,0.5c-0.1-0.1-0.1-0.2-0.2-0.2C229.8,1059.9,229.7,1059.8,229.7,1059.8z"/>
	<path class="st8" d="M225.7,1055.3c0,0,0.1,0.1,0.1,0.1C225.8,1055.4,225.7,1055.4,225.7,1055.3
		C225.7,1055.4,225.7,1055.4,225.7,1055.3z"/>
	<path class="st8" d="M224.5,1053.9c0.4,0.5,0.8,0.9,1.2,1.4C225.3,1054.9,224.9,1054.4,224.5,1053.9z"/>
	<path class="st8" d="M211.6,1036.8c0.2,0.3,0.4,0.6,0.6,0.9c-0.1-0.1-0.2-0.3-0.3-0.4C211.8,1037.1,211.7,1036.9,211.6,1036.8
		L211.6,1036.8z"/>
	<path class="st8" d="M209.9,1034.1c0.3,0.4,0.5,0.8,0.8,1.3c-0.1-0.1-0.2-0.3-0.3-0.4C210.2,1034.6,210,1034.4,209.9,1034.1z"/>
	<path class="st8" d="M216.5,1043.9c0,0,0.1,0.1,0.1,0.2C216.6,1044,216.6,1044,216.5,1043.9
		C216.5,1043.9,216.5,1043.9,216.5,1043.9z"/>
	<path class="st8" d="M215.1,1041.8c0.1,0.2,0.3,0.4,0.4,0.6c-0.1-0.1-0.1-0.2-0.2-0.3C215.2,1042.1,215.1,1041.9,215.1,1041.8
		L215.1,1041.8z"/>
	<path class="st8" d="M215.5,1042.4c0.3,0.5,0.7,1,1,1.4C216.2,1043.4,215.8,1042.9,215.5,1042.4z"/>
	<path class="st8" d="M233.1,1063.3c0,0,0.1,0.1,0.1,0.1L233.1,1063.3l-0.4-0.4c-0.9-0.9-1.8-1.8-2.6-2.8c0.4,0.4,0.7,0.8,1.1,1.2
		c0.1,0.1,0.2,0.2,0.4,0.4c0.3,0.3,0.5,0.6,0.8,0.8C232.6,1062.9,232.9,1063.1,233.1,1063.3L233.1,1063.3z"/>
	<path class="st8" d="M235.6,1065.8c0.1,0.1,0.1,0.1,0.2,0.2l-0.1-0.1L235.6,1065.8L235.6,1065.8z"/>
	<path class="st8" d="M240,1070c0.1,0.1,0.1,0.1,0.2,0.2c-1.5-1.4-3-2.8-4.5-4.2c0.6,0.6,1.1,1.1,1.7,1.7c0.3,0.3,0.7,0.6,1,0.9
		c0.1,0.1,0.2,0.2,0.3,0.3C239.2,1069.3,239.6,1069.6,240,1070L240,1070z"/>
	<path class="st8" d="M234.2,1064.5c0.4,0.4,0.9,0.9,1.3,1.3c-0.8-0.8-1.6-1.6-2.4-2.3C233.5,1063.8,233.9,1064.1,234.2,1064.5z"/>
	<path class="st8" d="M248,1076.9C248,1076.9,248,1076.9,248,1076.9L248,1076.9c-2.7-2.2-5.3-4.4-7.8-6.7c0.5,0.4,1,0.9,1.5,1.3
		c1.1,1,2.2,2,3.4,3c0.4,0.3,0.8,0.6,1.1,0.9C246.8,1075.9,247.4,1076.4,248,1076.9L248,1076.9z"/>
	<path class="st8" d="M603.7,747.9c13.3-24.2,32-43,55.8-56.5c23.9-13.5,51-20.2,81.2-20.2c37.1,0,68.8,9.8,95.2,29.4
		c26.4,19.6,44,46.3,53,80.1h-83.7c-6.2-13-15.1-23-26.5-29.8c-11.4-6.8-24.4-10.2-38.9-10.2c-23.4,0-42.4,8.2-57,24.5
		c-14.5,16.3-21.8,38.1-21.8,65.4s7.3,49.1,21.8,65.4c14.5,16.3,33.5,24.5,57,24.5c14.5,0,27.5-3.4,38.9-10.2
		c11.4-6.8,20.2-16.8,26.5-29.8h83.7c-8.9,33.8-26.6,60.5-53,79.9c-26.4,19.4-58.2,29.1-95.2,29.1c-30.3,0-57.3-6.7-81.2-20.2
		c-23.9-13.5-42.5-32.3-55.8-56.3c-13.3-24-20-51.5-20-82.3C583.6,799.6,590.3,772.1,603.7,747.9L603.7,747.9L603.7,747.9z"/>
	<path class="st8" d="M1192.9,987.1h-76.1L989.5,794.4v192.7h-76.1V674.7h76.1l127.3,193.6V674.7h76.1V987.1z"/>
	<path class="st8" d="M1429.2,674.7v61h-127.3v65.9h95.2v59.2h-95.2v126.4h-76.1V674.7H1429.2z"/>
	<path class="st8" d="M1689.5,674.7v61h-82.8v251.4h-76.1V735.6h-82.8v-61H1689.5z"/>
</g>
</svg>
