<?xml version="1.0" encoding="utf-8"?>
<!-- Generator: Adobe Illustrator 27.4.1, SVG Export Plug-In . SVG Version: 6.00 Build 0)  -->
<svg version="1.1" id="a" xmlns="http://www.w3.org/2000/svg" xmlns:xlink="http://www.w3.org/1999/xlink" x="0px" y="0px"
	 viewBox="0 0 1690 1690" style="enable-background:new 0 0 1690 1690;" xml:space="preserve">
<style type="text/css">
	.st0{fill-rule:evenodd;clip-rule:evenodd;fill:url(#SVGID_1_);}
	.st1{fill:url(#SVGID_00000181075308827108756890000006988549127432905633_);}
	.st2{fill:url(#SVGID_00000035500053011577022830000009379263423876792977_);}
	.st3{fill:url(#SVGID_00000178187419739659969550000003549442749554858677_);}
	.st4{fill:url(#SVGID_00000080179999979400952150000017523160675296149164_);}
	.st5{fill:url(#SVGID_00000163050473751614767930000018316990108643572648_);}
	.st6{fill:url(#SVGID_00000121274701839975637520000002110557935340841092_);}
	.st7{fill:url(#SVGID_00000022528939125762139260000000836592215340854916_);}
	.st8{fill-rule:evenodd;clip-rule:evenodd;fill:#FFFFFF;}
	.st9{fill:#FFFFFF;}
	.st10{fill:#FFFFFF;stroke:#000000;stroke-miterlimit:10;}
</style>
<g id="b">
	
		<linearGradient id="SVGID_1_" gradientUnits="userSpaceOnUse" x1="2249.9331" y1="2936.6895" x2="2533.7512" y2="2936.6895" gradientTransform="matrix(0.9148 0.4039 -0.4039 0.9148 -606.7623 -2953.7683)">
		<stop  offset="0" style="stop-color:#E52C2B"/>
		<stop  offset="1" style="stop-color:#4B3A8E"/>
	</linearGradient>
	<path class="st0" d="M526.3,721.5c-19.5-8.6-42.4,0.2-51,19.6c-8.6,19.4-31.4,28.2-51,19.6c-19.5-8.6-28.4-31.4-19.9-50.9
		c17.2-38.9-0.7-84.5-39.7-101.7c-39-17.2-84.8,0.3-101.9,39.2l-20.8,47l23.6,10.4l20.8-47c11.4-25.9,41.9-37.6,68-26.1
		c26,11.5,37.9,41.9,26.5,67.8c-14.3,32.4,0.5,70.4,33.1,84.8c32.5,14.4,70.6-0.3,84.9-32.7c2.9-6.5,10.5-9.4,17-6.5
		c6.5,2.9,14.1-0.1,17-6.5C535.8,732,532.8,724.4,526.3,721.5"/>
	
		<linearGradient id="SVGID_00000180348711206076364320000007293497819048678541_" gradientUnits="userSpaceOnUse" x1="1436.9543" y1="1477.6084" x2="1579.0045" y2="2015.2384" gradientTransform="matrix(0.9406 0.3394 -0.3394 0.9406 -556.7461 -1379.4648)">
		<stop  offset="0" style="stop-color:#E52C2B"/>
		<stop  offset="1" style="stop-color:#4B3A8E"/>
	</linearGradient>
	<path style="fill:url(#SVGID_00000180348711206076364320000007293497819048678541_);" d="M257.5,897.7c-7,73,1,125.1,21.6,163.8
		c34.4-21,62.2-53.4,77-94.3c24.5-68,6.4-141.1-40.7-189.8l14.1-39.2c3.6-10-1.6-21-11.5-24.5L202.1,672c-10-3.6-20.9,1.6-24.5,11.5
		l-14.1,39.2C206.7,738.3,267.4,794.2,257.5,897.7L257.5,897.7z"/>
	
		<linearGradient id="SVGID_00000106139593322389753290000002707154463910111150_" gradientUnits="userSpaceOnUse" x1="1339.0946" y1="1720.9894" x2="1609.2146" y2="2023.4595" gradientTransform="matrix(0.9406 0.3394 -0.3394 0.9406 -556.7461 -1379.4648)">
		<stop  offset="0" style="stop-color:#E52C2B"/>
		<stop  offset="1" style="stop-color:#4B3A8E"/>
	</linearGradient>
	<path style="fill:url(#SVGID_00000106139593322389753290000002707154463910111150_);" d="M279.1,1061.6
		c-10,6.1-20.6,11.2-31.6,15.3c-44.1-36.1-69.2-87.5-80.9-189.1c-12.1-105-100.9-123.2-101.1-123.2c18.5-15.5,39.9-27.2,62.8-34.4
		c3.6-1.2,7.2-2.2,10.9-3.1c7.7-1.9,15.5-3.4,23.4-4.3c0.3,0,0.6-0.1,0.8-0.1c12.2,4.4,25.7,12,38.7,22.9c2.2,1.8,4.3,3.8,6.4,5.8
		c2.8,2.7,5.6,5.5,8.3,8.5c0.7,0.8,1.3,1.5,2,2.3c2,2.3,4,4.7,5.9,7.3c1.3,1.7,2.6,3.4,3.8,5.1c2.5,3.5,4.9,7.2,7.1,11.1
		c1.1,1.9,2.2,3.9,3.3,5.9c0.5,1,1,2,1.6,3.1c0.5,1,1,2.1,1.5,3.1c12.4,26.3,19.3,59.5,15.5,100
		C250.6,970.7,258.5,1022.8,279.1,1061.6L279.1,1061.6z"/>
	
		<linearGradient id="SVGID_00000043459497122773299240000012771070977276842898_" gradientUnits="userSpaceOnUse" x1="1251.5494" y1="1915.7152" x2="1540.3794" y2="2092.7651" gradientTransform="matrix(0.9406 0.3394 -0.3394 0.9406 -556.7461 -1379.4648)">
		<stop  offset="0" style="stop-color:#F7A922"/>
		<stop  offset="1" style="stop-color:#D52A86"/>
	</linearGradient>
	<path style="fill:url(#SVGID_00000043459497122773299240000012771070977276842898_);" d="M207.5,1086.9c-28.2,3.8-57.6,1-86.2-9.3
		c-87-31.4-135.8-121.8-117.4-209.8c1.7-8.4,4.1-16.8,7.1-25.1c0,0,62.4,19.2,84.2,94.2C117,1012.8,154.6,1062.5,207.5,1086.9
		L207.5,1086.9L207.5,1086.9z"/>
	
		<linearGradient id="SVGID_00000157287881261016509350000006798001323844303232_" gradientUnits="userSpaceOnUse" x1="1246.7594" y1="1781.7749" x2="1571.4895" y2="2051.0249" gradientTransform="matrix(0.9406 0.3394 -0.3394 0.9406 -556.7461 -1379.4648)">
		<stop  offset="0" style="stop-color:#F7A922"/>
		<stop  offset="1" style="stop-color:#D52A86"/>
	</linearGradient>
	<path style="fill:url(#SVGID_00000157287881261016509350000006798001323844303232_);" d="M247.5,1076.9c-12.9,4.8-26.3,8.2-40.1,10
		c-52.9-24.5-90.4-74.1-112.4-149.9c-21.8-75-84.2-94.2-84.2-94.2c8.4-23.3,21-43.8,36.7-61c5.6-6.2,11.6-11.9,17.9-17.2
		c0.2,0,88.9,18.2,101.1,123.2C178.3,989.4,203.4,1040.9,247.5,1076.9L247.5,1076.9z"/>
	
		<linearGradient id="SVGID_00000159464272220931084420000003673363048778281610_" gradientUnits="userSpaceOnUse" x1="1390.307" y1="1725.0986" x2="1632.077" y2="1994.9886" gradientTransform="matrix(0.9406 0.3394 -0.3394 0.9406 -556.7461 -1379.4648)">
		<stop  offset="0" style="stop-color:#E52C2B;stop-opacity:0"/>
		<stop  offset="1" style="stop-color:#4B3A8E"/>
	</linearGradient>
	<path style="fill:url(#SVGID_00000159464272220931084420000003673363048778281610_);" d="M279.1,1061.6
		c-61.2-62.1-30.4-143.2-51.7-222.9c-20.2-75.8-73-98.9-99.1-108.5c3.6-1.2,7.2-2.2,10.9-3.1c7.7-2,15.5-3.4,23.4-4.3
		c0.3,0,0.6-0.1,0.8-0.1c12.2,4.4,25.7,12,38.7,22.9c2.2,1.8,4.3,3.8,6.4,5.8c2.8,2.7,5.6,5.5,8.3,8.5c0.7,0.8,1.3,1.5,2,2.3
		c2,2.4,4,4.7,5.9,7.3c1.3,1.7,2.6,3.4,3.8,5.1c2.5,3.5,4.9,7.2,7.1,11.1c1.1,1.9,2.2,3.9,3.3,5.9c0.5,1,1,2,1.6,3.1
		c0.5,1,1,2.1,1.5,3.1c12.4,26.3,19.3,59.5,15.5,100C250.6,970.7,258.5,1022.8,279.1,1061.6L279.1,1061.6z"/>
	
		<linearGradient id="SVGID_00000064338044085921762390000004183446265409586848_" gradientUnits="userSpaceOnUse" x1="1315.2299" y1="1811.3458" x2="1599.1598" y2="2022.4158" gradientTransform="matrix(0.9406 0.3394 -0.3394 0.9406 -556.7461 -1379.4648)">
		<stop  offset="0" style="stop-color:#F7A922;stop-opacity:0"/>
		<stop  offset="1" style="stop-color:#D52A86"/>
	</linearGradient>
	<path style="fill:url(#SVGID_00000064338044085921762390000004183446265409586848_);" d="M247.5,1076.9
		C146.9,1020,161.4,920.3,129,847.7c-20.5-45.9-70.9-63.4-81.4-65.9c5.6-6.2,11.6-11.9,17.9-17.2c0.2,0,89,18.2,101.1,123.2
		C178.3,989.4,203.4,1040.9,247.5,1076.9L247.5,1076.9L247.5,1076.9z"/>
	
		<linearGradient id="SVGID_00000013902543929941186750000014205513307249046432_" gradientUnits="userSpaceOnUse" x1="1293.7577" y1="1912.3612" x2="1562.1176" y2="2063.6611" gradientTransform="matrix(0.9406 0.3394 -0.3394 0.9406 -556.7461 -1379.4648)">
		<stop  offset="0" style="stop-color:#F7A922;stop-opacity:0"/>
		<stop  offset="1" style="stop-color:#D52A86"/>
	</linearGradient>
	<path style="fill:url(#SVGID_00000013902543929941186750000014205513307249046432_);" d="M207.5,1086.9
		c-93.1-30.6-120.6-119.2-141.9-165.3c-21.9-47.5-61.8-53.8-61.8-53.8c1.7-8.4,4.1-16.8,7.1-25.1c0,0,62.4,19.2,84.2,94.2
		C117,1012.8,154.6,1062.5,207.5,1086.9L207.5,1086.9L207.5,1086.9z"/>
	<path class="st8" d="M526.3,721.3c-19.5-8.6-42.3,0.2-50.9,19.6c-8.6,19.4-31.4,28.2-50.9,19.6c-19.5-8.6-28.4-31.4-19.8-50.8
		c17.1-38.8-0.7-84.3-39.6-101.5c-39-17.2-84.6,0.3-101.7,39.1l-20.7,46.9l23.6,10.4l20.7-46.9c11.4-25.9,41.8-37.6,67.8-26.1
		c26,11.5,37.8,41.8,26.4,67.7c-14.3,32.3,0.5,70.3,33,84.6c32.5,14.3,70.5-0.3,84.8-32.6c2.9-6.5,10.5-9.4,17-6.5
		c6.5,2.9,14.1,0,17-6.5C535.8,731.7,532.8,724.2,526.3,721.3L526.3,721.3C526.3,721.3,526.3,721.3,526.3,721.3z"/>
	<path class="st9" d="M356.4,966.7c-14.7,40.8-42.5,73.2-76.9,94.1c-0.5-0.9-1-1.8-1.4-2.8v0c-0.5-0.9-0.9-1.9-1.4-2.8v0
		c-0.7-1.4-1.3-2.8-1.9-4.2c-0.5-1.1-1-2.3-1.5-3.4c-2.3-5.3-4.3-10.9-6.2-16.8v0c-0.5-1.6-1-3.3-1.5-4.9v0c-0.5-1.7-0.9-3.3-1.4-5
		v0c-6.6-25-9.5-54.3-8.4-89c0-0.3,0-0.6,0-1c0.1-2.6,0.2-5.2,0.3-7.8c0-0.5,0-0.9,0.1-1.3c0.1-2.1,0.2-4.2,0.4-6.3
		c0.3-4.9,0.7-9.8,1.1-14.9c0.1-1.1,0.2-2.2,0.3-3.2c0.3-3.3,0.6-6.6,0.7-9.8l0,0c0.1-1.4,0.1-2.8,0.2-4.1c0.1-2.7,0.1-5.4,0.1-8.1
		v-1.9c0-0.9,0-1.7,0-2.6c0-0.6,0-1.1,0-1.7c0-0.7,0-1.4-0.1-2c0-0.5,0-1.1-0.1-1.6c0-0.3,0-0.5,0-0.8c0-0.4,0-0.9-0.1-1.3
		c0-0.2,0-0.5,0-0.7c0-0.6-0.1-1.1-0.1-1.7c0-0.5-0.1-0.9-0.1-1.4c0-0.3,0-0.7-0.1-1v0c-0.1-1.1-0.2-2.2-0.3-3.4c0-0.1,0-0.2,0-0.3
		c-0.1-0.6-0.1-1.2-0.2-1.7v-0.1c-0.1-0.7-0.1-1.3-0.2-1.9c-0.1-0.6-0.1-1.2-0.2-1.8c0-0.1,0-0.2,0-0.3c-0.1-0.6-0.1-1.2-0.2-1.7
		c-0.1-0.6-0.2-1.3-0.3-1.9s-0.2-1.2-0.3-1.8v-0.1c-0.1-0.6-0.2-1.2-0.3-1.8c-0.2-1.2-0.4-2.4-0.7-3.7c-0.4-1.8-0.7-3.6-1.1-5.4
		c-0.7-3-1.4-5.9-2.2-8.7c-1.3-4.5-2.7-8.9-4.2-13.2c-0.2-0.5-0.4-1.1-0.6-1.6c-0.4-1.1-0.8-2.1-1.2-3.1c-0.4-1-0.8-2.1-1.3-3.1
		c-0.2-0.5-0.4-1-0.6-1.5c-0.2-0.4-0.3-0.8-0.5-1.1c-0.1-0.2-0.2-0.4-0.2-0.6c-0.2-0.4-0.3-0.7-0.5-1.1c-0.2-0.5-0.4-0.9-0.6-1.4
		c0-0.1-0.1-0.2-0.1-0.3c-0.6-1.2-1.2-2.4-1.8-3.6c-0.4-0.7-0.7-1.4-1.1-2.1c-0.4-0.8-0.9-1.6-1.3-2.5c-0.3-0.5-0.5-1-0.8-1.5
		c-0.1-0.2-0.3-0.5-0.4-0.7c0,0,0-0.1-0.1-0.1c-0.5-0.9-1.1-1.9-1.6-2.8c0,0-0.1-0.1-0.1-0.1c-0.2-0.4-0.4-0.7-0.6-1.1
		c-0.4-0.6-0.8-1.2-1.1-1.8c-0.3-0.4-0.5-0.8-0.8-1.2c0,0,0,0,0,0c-0.2-0.3-0.4-0.6-0.6-0.9c-1-1.5-2-3-3-4.5
		c-0.3-0.4-0.5-0.7-0.8-1.1c-0.5-0.7-1-1.3-1.4-2c-2.1-2.8-4.3-5.6-6.5-8.2c-0.1-0.1-0.1-0.1-0.2-0.2c-0.4-0.5-0.8-1-1.2-1.4
		c0,0,0,0,0,0c-0.2-0.3-0.5-0.6-0.8-0.9c-0.5-0.6-1.1-1.2-1.6-1.8c-0.1-0.1-0.2-0.3-0.4-0.4c-0.3-0.3-0.5-0.6-0.8-0.9
		c-1.4-1.5-2.8-2.9-4.2-4.3c-0.2-0.2-0.5-0.5-0.7-0.7c-0.9-0.9-1.8-1.7-2.7-2.6c-0.2-0.2-0.5-0.5-0.7-0.7c-0.9-0.9-1.9-1.7-2.8-2.5
		c-0.2-0.2-0.5-0.4-0.7-0.6l0,0c-0.5-0.4-0.9-0.8-1.4-1.2c-0.6-0.5-1.3-1.1-1.9-1.6c-12.2-9.8-24.8-16.7-36.1-20.8l14.1-39.1
		c3.6-9.9,14.6-15.1,24.5-11.5l43,15.5l24.3,8.8l48.4,17.5c9.9,3.6,15.1,14.5,11.5,24.5l-14.1,39.1
		C362.8,825.8,381,898.7,356.4,966.7L356.4,966.7z"/>
	<path class="st9" d="M203.5,746c-0.5-0.4-0.9-0.8-1.4-1.2c0.2,0.2,0.4,0.3,0.6,0.5C203,745.6,203.2,745.8,203.5,746L203.5,746z"/>
	<path class="st9" d="M210.5,752.4c-0.9-0.9-1.8-1.7-2.7-2.6c0.4,0.4,0.9,0.8,1.3,1.2C209.6,751.5,210,752,210.5,752.4L210.5,752.4z
		"/>
	<path class="st9" d="M218.2,760.4c-0.5-0.6-1.1-1.2-1.6-1.8c0.3,0.3,0.6,0.6,0.9,1C217.7,759.9,217.9,760.2,218.2,760.4
		L218.2,760.4z"/>
	<path class="st9" d="M220.2,762.8c-0.4-0.5-0.8-1-1.2-1.4c0.2,0.2,0.3,0.4,0.5,0.5C219.7,762.2,220,762.5,220.2,762.8z"/>
	<path class="st9" d="M228.3,773.2c-0.5-0.7-1-1.3-1.4-2C227.4,771.8,227.9,772.5,228.3,773.2z"/>
	<path class="st9" d="M239.6,791.5c-0.4-0.8-0.9-1.6-1.3-2.5c0.4,0.7,0.8,1.5,1.2,2.3C239.5,791.3,239.5,791.4,239.6,791.5
		L239.6,791.5z"/>
	<path class="st9" d="M242.4,797.2c-0.6-1.2-1.2-2.4-1.8-3.6c0.1,0.3,0.3,0.5,0.4,0.8C241.5,795.3,242,796.2,242.4,797.2
		L242.4,797.2z"/>
	<path class="st9" d="M246.4,806.2c-0.4-1-0.8-2-1.3-3.1C245.5,804.2,246,805.2,246.4,806.2z"/>
	<path class="st9" d="M247.6,809.3c-0.4-1-0.8-2.1-1.2-3.1C246.8,807.2,247.2,808.3,247.6,809.3z"/>
	<path class="st9" d="M252.4,824.1c-1.3-4.5-2.7-8.9-4.2-13.1C249.7,815.1,251.2,819.5,252.4,824.1z"/>
	<path class="st9" d="M254.6,832.7c-0.7-3-1.4-5.9-2.2-8.7C253.2,826.9,253.9,829.8,254.6,832.7z"/>
	<path class="st9" d="M255.7,838.1c-0.4-1.8-0.7-3.6-1.1-5.4C255,834.5,255.3,836.3,255.7,838.1z"/>
	<path class="st9" d="M256.3,841.8c-0.2-1.2-0.4-2.5-0.7-3.7C255.9,839.3,256.1,840.6,256.3,841.8z"/>
	<path class="st9" d="M258,897.2c0.3-3.3,0.6-6.6,0.7-9.8C258.6,890.7,258.3,893.9,258,897.2c-0.1,1.1-0.2,2.2-0.3,3.2
		C257.8,899.4,257.9,898.3,258,897.2L258,897.2z"/>
	<path class="st9" d="M258.4,858.6c-0.1-1.1-0.2-2.2-0.3-3.4C258.2,856.3,258.3,857.4,258.4,858.6z"/>
	<path class="st9" d="M279.5,1060.8c-10,6.1-20.5,11.2-31.5,15.3c-4.9,1.8-4.9,1.8,0,0c11-4.1,0,0,0,0l0,0c-2.7-2.2-5.2-4.4-7.8-6.7
		c-1.5-1.4-3-2.8-4.5-4.2l-0.1-0.1l-0.1-0.1c-0.8-0.8-1.6-1.5-2.4-2.3l-0.1-0.1l-0.4-0.4c-0.9-0.9-1.8-1.8-2.6-2.8
		c-0.1-0.1-0.1-0.2-0.2-0.2c-0.1-0.1-0.1-0.1-0.2-0.2c-1.3-1.4-2.6-2.8-3.9-4.3c0,0-0.1-0.1-0.1-0.1c0,0,0,0,0,0
		c-0.4-0.5-0.8-0.9-1.2-1.4c0,0-0.1-0.1-0.1-0.1c-0.1-0.1-0.2-0.2-0.3-0.3c-1.1-1.4-2.3-2.8-3.4-4.2c-0.1-0.1-0.1-0.1-0.2-0.2
		c0,0-0.1-0.1-0.1-0.1c-0.4-0.5-0.8-1-1.2-1.5c0-0.1-0.1-0.1-0.1-0.1c-0.1-0.1-0.2-0.2-0.3-0.4c-0.7-1-1.5-1.9-2.2-2.9
		c0,0-0.1-0.1-0.1-0.1c0,0,0,0,0,0c-0.4-0.5-0.7-1-1-1.4c-0.1-0.1-0.1-0.2-0.2-0.3c-0.1-0.1-0.2-0.2-0.2-0.3c-1-1.4-1.9-2.8-2.9-4.2
		c-0.1-0.1-0.2-0.3-0.3-0.4c-0.1-0.2-0.2-0.3-0.3-0.5c-0.3-0.5-0.6-0.9-0.9-1.4c-0.1-0.2-0.2-0.3-0.3-0.4c-0.2-0.3-0.4-0.5-0.5-0.8
		c-0.2-0.3-0.4-0.6-0.6-0.9c-0.3-0.5-0.6-1-0.9-1.5c0-0.1-0.1-0.2-0.1-0.2c-0.2-0.4-0.5-0.8-0.7-1.2c-0.1-0.1-0.2-0.3-0.3-0.4
		c-0.2-0.3-0.3-0.6-0.5-0.8c0-0.1-0.1-0.2-0.1-0.2c-0.6-1.1-1.2-2.1-1.9-3.2v0c-0.2-0.4-0.5-0.9-0.7-1.3c-0.2-0.4-0.5-0.9-0.7-1.3
		c-0.1-0.2-0.2-0.3-0.3-0.5c-0.3-0.6-0.6-1.1-0.9-1.7c-0.1-0.1-0.1-0.2-0.2-0.4c-0.2-0.4-0.4-0.8-0.6-1.2c0-0.1-0.1-0.1-0.1-0.2
		c-0.8-1.6-1.6-3.2-2.4-4.8v0c0,0,0,0,0,0c-0.6-1.2-1.2-2.4-1.7-3.7c-0.1-0.3-0.3-0.6-0.4-0.9c-0.2-0.4-0.4-0.8-0.5-1.2
		c-0.1-0.1-0.1-0.3-0.2-0.4c-0.1-0.2-0.1-0.3-0.2-0.5c-0.1-0.2-0.2-0.5-0.3-0.8c-0.2-0.5-0.4-1-0.6-1.4c-0.5-1.1-0.9-2.2-1.4-3.3
		c-0.5-1.2-1-2.4-1.5-3.7c-0.2-0.5-0.4-0.9-0.5-1.4c-0.1-0.2-0.1-0.3-0.2-0.5c-0.1-0.3-0.2-0.6-0.4-0.9c-0.1-0.3-0.2-0.6-0.4-0.9
		l0,0c-0.2-0.6-0.5-1.3-0.7-1.9l0,0l-0.2-0.7c-0.1-0.4-0.3-0.8-0.4-1.2c-0.1-0.2-0.1-0.4-0.2-0.5c-0.2-0.5-0.3-0.9-0.5-1.4l0,0
		c-0.2-0.7-0.4-1.3-0.7-2c-0.4-1.3-0.9-2.6-1.3-4c-0.2-0.5-0.4-1.1-0.5-1.6c-0.4-1.1-0.7-2.2-1-3.3c-0.2-0.5-0.2-0.5,0,0
		c-0.5-1.7-1-3.3-1.5-5c-0.1-0.4-0.2-0.9-0.4-1.3c-0.4-1.3-0.7-2.6-1.1-3.9l0,0c-0.6-2.3-1.3-4.7-1.9-7.1c-0.3-1.2-0.6-2.4-0.9-3.6
		c-0.3-1.2-0.6-2.5-0.9-3.7c-0.3-1.2-0.6-2.5-0.9-3.7c-0.1-0.6-0.3-1.3-0.4-1.9c-0.1-0.6-0.3-1.3-0.4-1.9c-0.1-0.6-0.3-1.3-0.4-1.9
		c-0.3-1.3-0.5-2.6-0.8-3.9c-0.1-0.6-0.1-0.6,0,0c-0.3-1.3-0.5-2.6-0.8-4c-0.1-0.6-0.1-0.6,0,0c-0.4-2-0.8-4-1.1-6.1
		c-0.2-1.4-0.5-2.7-0.7-4.1c-0.2-1.4-0.5-2.8-0.7-4.2c-0.1-0.7-0.2-1.4-0.4-2.1c-0.1-0.7-0.2-1.4-0.3-2.1c-0.1-0.7-0.2-1.4-0.3-2.2
		c-0.2-1.4-0.4-2.9-0.7-4.4c0-0.1,0-0.2-0.1-0.3c-0.2-1.4-0.4-2.7-0.6-4.1c-0.2-1.5-0.4-3-0.6-4.5c-0.2-1.5-0.4-3-0.6-4.6
		c-0.4-3.1-0.8-6.2-1.1-9.4c-0.1-0.7-0.1-1.3-0.2-2c0-0.3-0.1-0.6-0.1-0.9c0-0.3-0.1-0.5-0.1-0.8c-0.1-0.4-0.1-0.8-0.2-1.2
		c-0.1-0.3-0.1-0.7-0.1-1c-0.1-0.5-0.2-1.1-0.2-1.6c-0.1-0.3-0.1-0.6-0.1-1c-0.2-1.6-0.5-3.1-0.8-4.6c-0.1-0.5-0.2-1-0.3-1.6
		c-0.1-0.5-0.2-0.9-0.3-1.4c-0.1-0.6-0.3-1.2-0.4-1.9c-0.1-0.4-0.2-0.8-0.3-1.2c-0.7-3.2-1.5-6.3-2.4-9.3c-0.3-1-0.6-2.1-0.9-3.1
		l0,0c-0.2-0.5-0.3-1-0.5-1.5c-0.2-0.5-0.3-1-0.5-1.5c-0.3-0.8-0.5-1.6-0.8-2.4c-0.1-0.3-0.2-0.6-0.3-0.9c-0.2-0.6-0.4-1.2-0.7-1.8
		c-0.1-0.2-0.2-0.5-0.3-0.7c-0.7-1.9-1.5-3.8-2.2-5.6c-0.4-0.9-0.8-1.8-1.2-2.7c-0.2-0.4-0.2-0.4,0,0c-0.4-0.9-0.8-1.8-1.2-2.6l0,0
		c-0.2-0.5-0.5-1-0.7-1.5c-0.2-0.4-0.4-0.8-0.6-1.1c-0.1-0.1-0.1-0.2-0.2-0.4c-0.2-0.4-0.4-0.9-0.7-1.3c-0.2-0.5-0.5-1-0.8-1.5
		c-0.2-0.5-0.5-0.9-0.8-1.4c-0.5-0.9-1-1.8-1.5-2.7c-0.2-0.4-0.5-0.8-0.7-1.2c-0.2-0.4-0.5-0.8-0.7-1.2c-0.2-0.3-0.3-0.5-0.5-0.8
		s-0.3-0.5-0.5-0.8c-0.2-0.3-0.3-0.5-0.5-0.8c-0.3-0.5-0.7-1-1-1.6c-0.3-0.4-0.5-0.8-0.8-1.2c-0.3-0.4-0.6-0.8-0.8-1.2
		c-0.6-0.8-1.1-1.6-1.7-2.4l0,0c-0.7-0.9-1.4-1.8-2-2.7c-0.7-0.9-1.4-1.8-2.1-2.6c-0.7-0.9-1.4-1.7-2.1-2.5
		c-0.1-0.1-0.2-0.2-0.2-0.3c-0.3-0.3-0.5-0.6-0.8-1c-0.4-0.4-0.7-0.8-1.1-1.2c-0.3-0.3-0.5-0.6-0.8-0.9c-0.3-0.3-0.5-0.6-0.8-0.9
		c-0.3-0.3-0.5-0.6-0.8-0.9c-1-1.1-2-2.1-3-3.1c-0.2-0.2-0.4-0.4-0.7-0.6c-0.2-0.2-0.4-0.4-0.7-0.7c-0.2-0.2-0.4-0.4-0.7-0.6
		c-0.2-0.2-0.4-0.4-0.7-0.6l-1.3-1.2c-0.2-0.2-0.4-0.4-0.7-0.6c-0.4-0.4-0.9-0.8-1.3-1.2s-0.9-0.8-1.3-1.2c-0.7-0.6-1.3-1.1-2-1.7
		c-0.3-0.3-0.7-0.6-1-0.8c-0.2-0.2-0.4-0.3-0.6-0.5c0,0-0.1,0-0.1-0.1c-0.2-0.2-0.4-0.4-0.7-0.5h0l-1.1-0.8c0,0-0.1-0.1-0.1-0.1
		c-0.4-0.3-0.9-0.7-1.3-1c-0.2-0.2-0.4-0.3-0.7-0.5c-0.1,0-0.1-0.1-0.1-0.1c-0.1-0.1-0.2-0.1-0.3-0.2c-0.1-0.1-0.2-0.1-0.3-0.2
		c-0.1-0.1-0.2-0.1-0.3-0.2c-0.2-0.1-0.4-0.3-0.6-0.4c0,0,0,0,0,0c0,0-0.1,0-0.1-0.1c-0.3-0.2-0.7-0.5-1-0.7
		c-0.2-0.1-0.4-0.3-0.6-0.4c-0.2-0.1-0.4-0.3-0.7-0.4c-0.8-0.5-1.6-1.1-2.3-1.6c-0.4-0.2-0.8-0.5-1.1-0.7s-0.8-0.5-1.1-0.7
		c0,0-0.1,0-0.1-0.1c-0.4-0.2-0.8-0.5-1.2-0.7c-0.4-0.2-0.8-0.5-1.1-0.7c-0.4-0.2-0.8-0.5-1.1-0.7c-0.4-0.2-0.8-0.4-1.1-0.7
		c0,0,0,0,0,0c-0.7-0.4-1.5-0.8-2.2-1.2c-0.4-0.2-0.7-0.4-1.1-0.6c-16.3-8.8-29-11.4-29-11.4c0,0,0,0,0,0
		c18.5-15.5,39.8-27.2,62.7-34.4c26.1,9.6,78.8,32.7,99,108.4C249.2,917.9,218.4,998.9,279.5,1060.8L279.5,1060.8z"/>
	<path class="st9" d="M208,1086.1c-28.1,3.7-57.5,1-86.1-9.3C35.1,1045.5-13.6,955.3,4.8,867.4c0,0,39.8,6.3,61.7,53.7
		C87.6,967.1,115.1,1055.5,208,1086.1L208,1086.1z"/>
	<path class="st9" d="M95.3,775.7c-16.3-8.8-29-11.4-29-11.4c0,0,0,0,0,0c0.1,0,0,0,0,0h0.1c0,0,0.1,0,0.2,0c0,0,0.1,0,0.1,0l0,0
		c0,0,0.1,0,0.1,0c0.1,0,0.2,0,0.2,0.1s0.2,0,0.2,0.1c0.1,0,0.1,0,0.2,0c0.1,0,0.2,0,0.3,0.1c0.2,0.1,0.4,0.1,0.7,0.2l0.3,0.1
		c0.2,0.1,0.4,0.1,0.7,0.2c0.2,0,0.3,0.1,0.5,0.1c0.3,0.1,0.7,0.2,1.1,0.3c0.4,0.1,0.8,0.2,1.3,0.4c1,0.3,2.1,0.7,3.3,1.1
		c0.2,0.1,0.4,0.1,0.6,0.2c0,0,0.1,0,0.1,0c0.2,0.1,0.3,0.1,0.5,0.2c0.2,0.1,0.4,0.2,0.7,0.2c0.2,0.1,0.4,0.1,0.6,0.2
		c0.1,0,0.1,0.1,0.2,0.1c0.2,0.1,0.3,0.1,0.5,0.2c0.2,0.1,0.5,0.2,0.8,0.3c0.2,0.1,0.4,0.1,0.6,0.2c0.4,0.2,0.9,0.4,1.4,0.5
		c0.2,0.1,0.5,0.2,0.7,0.3c0.2,0.1,0.5,0.2,0.7,0.3c0.2,0.1,0.5,0.2,0.7,0.3c0.7,0.3,1.5,0.6,2.3,1c0.3,0.1,0.5,0.2,0.8,0.4
		c0.3,0.1,0.5,0.2,0.8,0.4c2.2,1,4.5,2.1,6.9,3.4C94.7,775.4,95,775.5,95.3,775.7L95.3,775.7z"/>
	<path class="st9" d="M96.4,776.3c-0.4-0.2-0.7-0.4-1.1-0.6c0.2,0.1,0.4,0.2,0.6,0.3C96.1,776.1,96.3,776.2,96.4,776.3L96.4,776.3z"
		/>
	<path class="st9" d="M98.6,777.5c-0.7-0.4-1.5-0.8-2.2-1.2c0,0,0.1,0,0.1,0.1c0.4,0.2,0.8,0.5,1.2,0.7
		C98.1,777.2,98.4,777.4,98.6,777.5z"/>
	<path class="st9" d="M99.8,778.2c-0.4-0.2-0.8-0.4-1.1-0.7c0.3,0.2,0.6,0.3,0.9,0.5C99.6,778.1,99.7,778.2,99.8,778.2
		C99.8,778.2,99.8,778.2,99.8,778.2z"/>
	<path class="st9" d="M100.9,778.9c-0.4-0.2-0.8-0.5-1.1-0.7c0.2,0.1,0.4,0.2,0.7,0.4C100.6,778.7,100.8,778.8,100.9,778.9
		L100.9,778.9z"/>
	<path class="st9" d="M102.1,779.6c-0.4-0.2-0.8-0.5-1.1-0.7c0.2,0.1,0.3,0.2,0.4,0.3C101.6,779.3,101.8,779.4,102.1,779.6
		L102.1,779.6z"/>
	<path class="st9" d="M103.2,780.3c-0.4-0.2-0.8-0.5-1.2-0.7c0,0,0.1,0,0.1,0C102.5,779.9,102.9,780.1,103.2,780.3L103.2,780.3z"/>
	<path class="st9" d="M115,788.6l-1.1-0.8c0,0,0.1,0.1,0.1,0.1C114.4,788.1,114.7,788.3,115,788.6L115,788.6z"/>
	<path class="st9" d="M119.4,792.2c-0.7-0.6-1.3-1.1-2-1.7C118.1,791,118.7,791.6,119.4,792.2z"/>
	<path class="st9" d="M120.7,793.3c-0.4-0.4-0.9-0.8-1.3-1.2C119.9,792.6,120.3,792.9,120.7,793.3z"/>
	<path class="st9" d="M136.4,809.7c-0.7-0.9-1.4-1.7-2.1-2.5C135,808,135.7,808.8,136.4,809.7z"/>
	<path class="st9" d="M140.5,815.1c-0.7-0.9-1.4-1.8-2-2.7C139.2,813.2,139.8,814.2,140.5,815.1z"/>
	<path class="st9" d="M145.9,823.1c-0.2-0.3-0.3-0.5-0.5-0.8l0,0c0.1,0.2,0.3,0.4,0.4,0.6C145.8,823,145.8,823,145.9,823.1
		L145.9,823.1z"/>
	<path class="st9" d="M146.4,823.9c-0.2-0.3-0.3-0.5-0.5-0.8l0,0C146,823.4,146.2,823.6,146.4,823.9z"/>
	<path class="st9" d="M154.2,838.8c-0.4-0.9-0.8-1.8-1.2-2.6C153.4,837,153.8,837.9,154.2,838.8z"/>
	<path class="st9" d="M154.2,838.8c0.4,0.9,0.8,1.8,1.2,2.7C155,840.6,154.6,839.7,154.2,838.8z"/>
	<path class="st9" d="M161.6,859c-0.3-1-0.6-2.1-0.9-3.1C161,856.9,161.3,858,161.6,859z"/>
	<path class="st9" d="M168.9,901.3c-0.2-1.5-0.4-3-0.6-4.6C168.5,898.2,168.7,899.7,168.9,901.3z"/>
	<path class="st9" d="M170.9,914.6c-0.2-1.4-0.4-2.9-0.7-4.4C170.4,911.7,170.6,913.1,170.9,914.6z"/>
	<path class="st9" d="M174.5,935.4c-0.4-2-0.8-4-1.1-6.1C173.7,931.4,174.1,933.4,174.5,935.4z"/>
	<path class="st9" d="M174.5,935.4c0.3,1.3,0.5,2.7,0.8,4C175,938,174.7,936.7,174.5,935.4z"/>
	<path class="st9" d="M181.8,967.1c-0.6-2.3-1.3-4.7-1.9-7.1C180.5,962.4,181.2,964.8,181.8,967.1z"/>
	<path class="st9" d="M181.8,967.1c0.4,1.3,0.7,2.6,1.1,3.9C182.5,969.7,182.2,968.4,181.8,967.1z"/>
	<path class="st9" d="M189,990c-0.1-0.2-0.1-0.4-0.2-0.5C188.9,989.7,189,989.9,189,990L189,990L189,990z"/>
	<path class="st9" d="M189.7,992l-0.2-0.7C189.6,991.5,189.7,991.7,189.7,992L189.7,992z"/>
	<path class="st9" d="M190.4,993.9c-0.2-0.6-0.5-1.3-0.7-1.9c0.2,0.5,0.4,1,0.5,1.4c0.1,0.4,0.3,0.8,0.5,1.2c0,0.1,0.1,0.1,0.1,0.2
		C190.7,994.5,190.6,994.2,190.4,993.9L190.4,993.9z"/>
	<path class="st9" d="M191.2,995.7c-0.1-0.3-0.2-0.6-0.4-0.9c0,0,0,0.1,0.1,0.2c0.2,0.4,0.3,0.8,0.5,1.2
		C191.3,996,191.2,995.9,191.2,995.7L191.2,995.7z"/>
	<path class="st9" d="M193.4,1001.3c-0.5-1.2-1-2.4-1.5-3.7C192.4,998.8,192.9,1000,193.4,1001.3z"/>
	<path class="st9" d="M195.7,1006.7c-0.1-0.2-0.2-0.5-0.3-0.8c0.2,0.4,0.4,0.9,0.6,1.3C195.8,1007.1,195.8,1006.9,195.7,1006.7
		L195.7,1006.7z"/>
	<path class="st9" d="M196.6,1008.8c-0.2-0.4-0.4-0.8-0.5-1.2c0.1,0.2,0.2,0.5,0.3,0.7C196.5,1008.5,196.6,1008.6,196.6,1008.8
		L196.6,1008.8z"/>
	<path class="st9" d="M201.2,1018.3c-0.8-1.6-1.6-3.2-2.4-4.8c0,0.1,0.1,0.1,0.1,0.2c0.2,0.4,0.4,0.8,0.6,1.2
		c0.2,0.4,0.4,0.9,0.6,1.3c0.1,0.3,0.3,0.6,0.4,0.9C200.8,1017.4,201,1017.8,201.2,1018.3L201.2,1018.3z"/>
	<path class="st9" d="M198.8,1013.4c-0.6-1.2-1.2-2.4-1.7-3.7c0.3,0.7,0.6,1.4,1,2.1C198.3,1012.3,198.5,1012.8,198.8,1013.4
		L198.8,1013.4z"/>
	<path class="st9" d="M201.3,1018.4c0-0.1-0.1-0.1-0.1-0.2c0.2,0.5,0.5,0.9,0.7,1.4C201.7,1019.3,201.5,1018.9,201.3,1018.4
		L201.3,1018.4z"/>
	<path class="st9" d="M198.8,1013.4C198.8,1013.4,198.8,1013.4,198.8,1013.4C198.8,1013.4,198.8,1013.4,198.8,1013.4L198.8,1013.4
		L198.8,1013.4z"/>
	<path class="st9" d="M202.2,1020c-0.1-0.1-0.1-0.2-0.2-0.4c0.5,0.9,0.9,1.7,1.4,2.6c-0.1-0.2-0.2-0.3-0.3-0.5
		C202.8,1021.2,202.5,1020.6,202.2,1020L202.2,1020z"/>
	<path class="st9" d="M207.7,1029.8c0.2,0.3,0.4,0.6,0.5,0.9c-0.2-0.4-0.5-0.8-0.7-1.2C207.6,1029.6,207.6,1029.7,207.7,1029.8
		L207.7,1029.8z"/>
	<path class="st9" d="M206.2,1027.3c0.1,0.3,0.3,0.5,0.5,0.8c-0.6-1.1-1.2-2.1-1.9-3.2C205.2,1025.6,205.7,1026.4,206.2,1027.3
		L206.2,1027.3z"/>
	<path class="st9" d="M211.4,1035.7c0.1,0.1,0.1,0.2,0.2,0.3c-0.3-0.5-0.6-0.9-0.9-1.4C210.9,1034.9,211.1,1035.3,211.4,1035.7
		L211.4,1035.7z"/>
	<path class="st9" d="M209.9,1033.3c0.3,0.4,0.5,0.8,0.8,1.3c-0.1-0.2-0.2-0.3-0.3-0.4C210.2,1033.9,210,1033.6,209.9,1033.3z"/>
	<path class="st9" d="M208.2,1030.7c0.3,0.6,0.7,1.1,1,1.7c-0.3-0.5-0.6-1-0.9-1.5C208.3,1030.9,208.3,1030.8,208.2,1030.7
		L208.2,1030.7z"/>
	<path class="st9" d="M214.1,1039.6c0.3,0.5,0.6,0.9,1,1.4c-1-1.4-1.9-2.8-2.9-4.2c0.1,0.2,0.3,0.4,0.4,0.6s0.2,0.4,0.4,0.6
		C213.3,1038.5,213.7,1039.1,214.1,1039.6L214.1,1039.6z"/>
	<path class="st9" d="M206.6,1028c0.3,0.5,0.6,1,0.9,1.5c-0.1-0.1-0.2-0.3-0.3-0.4c-0.2-0.3-0.3-0.6-0.5-0.8
		C206.7,1028.2,206.7,1028.1,206.6,1028L206.6,1028z"/>
	<path class="st9" d="M232.4,1061.8c0.1,0.1,0.2,0.2,0.3,0.4c-0.9-0.9-1.8-1.8-2.6-2.8c0.4,0.4,0.7,0.8,1.1,1.2
		c0.1,0.1,0.2,0.2,0.4,0.4C231.8,1061.3,232.1,1061.5,232.4,1061.8L232.4,1061.8z"/>
	<path class="st9" d="M228.3,1057.5c0.5,0.5,0.9,1,1.4,1.5c-1.3-1.4-2.6-2.8-3.9-4.3c0.4,0.4,0.8,0.9,1.2,1.3l0.2,0.3
		C227.6,1056.7,227.9,1057.1,228.3,1057.5L228.3,1057.5z"/>
	<path class="st9" d="M223.2,1051.7c0.3,0.3,0.6,0.7,0.8,1c-1.1-1.4-2.3-2.8-3.4-4.2c0.3,0.3,0.6,0.7,0.8,1c0.4,0.4,0.7,0.9,1.1,1.3
		C222.8,1051.1,223,1051.4,223.2,1051.7L223.2,1051.7z"/>
	<path class="st9" d="M217.6,1044.5c0.4,0.6,0.8,1.1,1.3,1.7c-0.7-1-1.5-1.9-2.2-2.9C217,1043.7,217.3,1044.1,217.6,1044.5
		L217.6,1044.5z"/>
	<path class="st9" d="M220.3,1048.1C220.3,1048.1,220.4,1048.1,220.3,1048.1c-0.3-0.4-0.8-0.9-1.1-1.5
		C219.6,1047.1,220,1047.6,220.3,1048.1z"/>
	<path class="st9" d="M209.3,1032.4c0.2,0.3,0.4,0.6,0.6,0.9C209.7,1033,209.5,1032.7,209.3,1032.4
		C209.3,1032.4,209.3,1032.4,209.3,1032.4z"/>
	<path class="st9" d="M220.4,1048.2c0.1,0.1,0.2,0.2,0.3,0.3c-0.1-0.1-0.1-0.1-0.2-0.2C220.5,1048.3,220.4,1048.2,220.4,1048.2
		L220.4,1048.2z"/>
	<path class="st9" d="M224.1,1052.7c0.1,0.2,0.3,0.3,0.4,0.5c0,0-0.1-0.1-0.1-0.1C224.3,1052.9,224.2,1052.8,224.1,1052.7
		L224.1,1052.7z"/>
	<path class="st9" d="M224.5,1053.1c0.4,0.5,0.8,1,1.2,1.4C225.3,1054.1,224.9,1053.6,224.5,1053.1z"/>
	<path class="st9" d="M218.8,1046.1c0.1,0.2,0.2,0.3,0.4,0.5c0,0-0.1-0.1-0.1-0.1C219,1046.4,218.9,1046.3,218.8,1046.1
		L218.8,1046.1z"/>
	<path class="st9" d="M229.7,1059c0.1,0.2,0.3,0.3,0.4,0.5c-0.1-0.1-0.1-0.2-0.2-0.2C229.8,1059.1,229.7,1059,229.7,1059z"/>
	<path class="st9" d="M225.7,1054.5c0,0,0.1,0.1,0.1,0.1C225.8,1054.6,225.7,1054.6,225.7,1054.5
		C225.7,1054.6,225.7,1054.6,225.7,1054.5z"/>
	<path class="st9" d="M215.5,1041.7c0.3,0.5,0.7,1,1,1.4C216.2,1042.6,215.8,1042.1,215.5,1041.7z"/>
	<path class="st9" d="M211.6,1036c0.2,0.3,0.4,0.6,0.6,0.9c-0.1-0.1-0.2-0.3-0.3-0.4C211.8,1036.3,211.7,1036.1,211.6,1036
		L211.6,1036z"/>
	<path class="st9" d="M215.1,1041c0.1,0.2,0.3,0.4,0.4,0.6c-0.1-0.1-0.1-0.2-0.2-0.3C215.2,1041.3,215.1,1041.2,215.1,1041
		L215.1,1041z"/>
	<path class="st9" d="M216.5,1043.1c0,0,0.1,0.1,0.1,0.2C216.6,1043.2,216.6,1043.2,216.5,1043.1
		C216.5,1043.1,216.5,1043.1,216.5,1043.1z"/>
	<path class="st9" d="M234.2,1063.7c0.4,0.4,0.9,0.9,1.3,1.3c-0.8-0.8-1.6-1.5-2.4-2.3C233.5,1063,233.9,1063.4,234.2,1063.7z"/>
	<path class="st9" d="M240,1069.2c0.1,0.1,0.1,0.1,0.2,0.2c-1.5-1.4-3-2.8-4.5-4.2c0.6,0.6,1.1,1.1,1.7,1.6c0.3,0.3,0.7,0.6,1,0.9
		c0.1,0.1,0.2,0.2,0.3,0.3C239.2,1068.5,239.6,1068.8,240,1069.2L240,1069.2z"/>
	<path class="st9" d="M235.6,1065c0.1,0.1,0.1,0.1,0.2,0.2l-0.1-0.1L235.6,1065L235.6,1065z"/>
	<path class="st9" d="M232.7,1062.2c0.2,0.2,0.3,0.3,0.5,0.5l-0.1-0.1L232.7,1062.2L232.7,1062.2z"/>
	<path class="st9" d="M248,1076.1L248,1076.1c-12.9,4.8-26.3,8.2-40,10c-52.8-24.4-90.3-74-112.2-149.6c-21.7-74.9-84-94.1-84-94.1
		c8.4-23.2,21-43.7,36.6-60.9c10.5,2.5,60.9,19.9,81.3,65.8C162,919.7,147.6,1019.3,248,1076.1c-2.7-2.2-5.3-4.4-7.8-6.7
		c0.5,0.4,1,0.9,1.5,1.3c1.1,1,2.2,2,3.4,3c0.4,0.3,0.8,0.6,1.1,0.9C246.8,1075.1,247.4,1075.6,248,1076.1L248,1076.1L248,1076.1z"
		/>
	<path class="st9" d="M202.7,745.3c0.3,0.2,0.5,0.5,0.8,0.7c-0.5-0.4-0.9-0.8-1.4-1.2C202.3,745,202.5,745.2,202.7,745.3
		L202.7,745.3z"/>
	<path class="st9" d="M209.1,751.1c0.5,0.4,0.9,0.9,1.4,1.3c-0.9-0.9-1.8-1.7-2.7-2.6C208.2,750.3,208.7,750.7,209.1,751.1
		L209.1,751.1z"/>
	<path class="st9" d="M217.4,759.6c0.3,0.3,0.5,0.6,0.8,0.8c-0.5-0.6-1.1-1.2-1.6-1.8C216.8,758.9,217.1,759.3,217.4,759.6
		L217.4,759.6z"/>
	<path class="st9" d="M219.5,761.9c0.2,0.3,0.5,0.6,0.8,0.9c-0.4-0.5-0.8-1-1.2-1.4C219.1,761.5,219.3,761.7,219.5,761.9z"/>
	<path class="st9" d="M226.9,771.2c0.5,0.7,1,1.3,1.4,2C227.8,772.5,227.4,771.8,226.9,771.2z"/>
	<path class="st9" d="M239.5,791.3c0,0.1,0.1,0.1,0.1,0.2c-0.4-0.8-0.9-1.6-1.3-2.5C238.7,789.8,239.1,790.5,239.5,791.3
		L239.5,791.3z"/>
	<path class="st9" d="M241,794.3c0.5,0.9,0.9,1.9,1.4,2.9c-0.6-1.2-1.2-2.4-1.8-3.6C240.8,793.8,240.9,794.1,241,794.3L241,794.3z"
		/>
	<path class="st9" d="M245.1,803.1c0.4,1,0.9,2,1.3,3.1C246,805.2,245.5,804.2,245.1,803.1z"/>
	<path class="st9" d="M246.4,806.2c0.4,1,0.8,2.1,1.2,3.1C247.2,808.3,246.8,807.2,246.4,806.2z"/>
	<path class="st9" d="M248.2,810.9c1.6,4.2,3,8.6,4.2,13.1C251.1,819.5,249.7,815.1,248.2,810.9z"/>
	<path class="st9" d="M252.4,824.1c0.8,2.8,1.5,5.7,2.2,8.7C253.9,829.8,253.2,826.9,252.4,824.1z"/>
	<path class="st9" d="M254.6,832.7c0.4,1.8,0.8,3.6,1.1,5.4C255.3,836.3,255,834.5,254.6,832.7z"/>
	<path class="st9" d="M255.7,838.1c0.2,1.2,0.4,2.4,0.7,3.7C256.1,840.6,255.9,839.3,255.7,838.1L255.7,838.1z"/>
	<path class="st9" d="M258,897.2c0.3-3.3,0.6-6.6,0.7-9.8C258.6,890.7,258.3,893.9,258,897.2c-0.1,1.1-0.2,2.2-0.3,3.2
		C257.8,899.4,257.9,898.3,258,897.2L258,897.2z"/>
	<path class="st9" d="M258.4,858.6c-0.1-1.1-0.2-2.2-0.3-3.4C258.2,856.3,258.3,857.4,258.4,858.6z"/>
	<path class="st9" d="M102.1,779.6c0.4,0.2,0.7,0.4,1.1,0.7C102.8,780.1,102.4,779.8,102.1,779.6c-0.5-0.3-0.8-0.5-1.2-0.7
		c-0.4-0.2-0.8-0.5-1.1-0.7c-0.4-0.2-0.8-0.4-1.1-0.7c0,0,0,0,0,0c-0.7-0.4-1.5-0.8-2.2-1.2c-0.4-0.2-0.7-0.4-1.1-0.6
		c-16.3-8.8-29-11.4-29-11.4c0,0,0,0,0,0c0.1,0,0,0,0,0h0.1c0,0,0.1,0,0.2,0c0,0,0.1,0,0.1,0l0,0c0,0,0.1,0,0.1,0
		c0.1,0,0.2,0,0.2,0.1c0.1,0,0.2,0,0.2,0.1c0.1,0,0.1,0,0.2,0c0.1,0,0.2,0,0.3,0.1c0.2,0,0.4,0.1,0.7,0.2l0.3,0.1
		c0.2,0.1,0.4,0.1,0.7,0.2c0.2,0,0.3,0.1,0.5,0.1c0.3,0.1,0.7,0.2,1.1,0.3c0.4,0.1,0.8,0.2,1.3,0.4c1,0.3,2.1,0.7,3.3,1.1
		c0.2,0.1,0.4,0.1,0.6,0.2c0,0,0.1,0,0.1,0c0.2,0.1,0.3,0.1,0.5,0.2c0.2,0.1,0.4,0.2,0.7,0.2c0.2,0.1,0.4,0.2,0.6,0.2
		c0.1,0,0.1,0,0.2,0.1c0.2,0.1,0.3,0.1,0.5,0.2c0.2,0.1,0.5,0.2,0.8,0.3c0.2,0.1,0.4,0.2,0.6,0.2c0.4,0.2,0.9,0.4,1.4,0.6
		c0.2,0.1,0.5,0.2,0.7,0.3c0.2,0.1,0.5,0.2,0.7,0.3c0.2,0.1,0.5,0.2,0.7,0.3c0.7,0.3,1.5,0.6,2.3,1c0.3,0.1,0.5,0.2,0.8,0.4
		s0.5,0.2,0.8,0.4c2.2,1,4.5,2.1,6.9,3.4c0.5,0.3,1,0.5,1.6,0.8c0.2,0.1,0.4,0.2,0.6,0.3c0.4,0.2,0.8,0.5,1.2,0.7
		c0.6,0.3,1.2,0.6,1.7,1c0.3,0.2,0.6,0.4,0.9,0.5s0.6,0.4,0.9,0.5C101.6,779.3,101.9,779.5,102.1,779.6
		C102.1,779.6,102.1,779.6,102.1,779.6z"/>
	<path class="st9" d="M110.3,785c0.3,0.2,0.6,0.4,0.9,0.6c-0.1-0.1-0.2-0.1-0.3-0.2C110.7,785.3,110.4,785.2,110.3,785
		C110.2,785,110.3,785,110.3,785L110.3,785z"/>
	<path class="st9" d="M114.1,787.8c0.3,0.2,0.6,0.5,0.9,0.7l-1.1-0.8C114,787.8,114,787.8,114.1,787.8L114.1,787.8z"/>
	<path class="st9" d="M117.4,790.5c0.7,0.5,1.3,1.1,2,1.7C118.7,791.6,118.1,791,117.4,790.5z"/>
	<path class="st9" d="M119.4,792.2c0.4,0.4,0.9,0.8,1.3,1.2C120.3,793,119.9,792.6,119.4,792.2z"/>
	<path class="st9" d="M134.3,807.2c0.7,0.8,1.4,1.7,2.1,2.5C135.7,808.8,135,808,134.3,807.2z"/>
	<path class="st9" d="M138.5,812.3c0.7,0.9,1.4,1.8,2,2.7C139.8,814.1,139.2,813.2,138.5,812.3z"/>
	<path class="st9" d="M145.9,823.1c0.2,0.3,0.3,0.5,0.5,0.8C146.2,823.6,146,823.4,145.9,823.1s-0.3-0.5-0.5-0.8
		c-0.2-0.3-0.3-0.5-0.5-0.8c0.2,0.3,0.3,0.5,0.5,0.8c0.1,0.2,0.3,0.4,0.4,0.6C145.8,823,145.9,823,145.9,823.1L145.9,823.1z"/>
	<path class="st9" d="M154.2,838.8c-0.4-0.9-0.8-1.8-1.2-2.6C153.4,837,153.8,837.9,154.2,838.8z"/>
	<path class="st9" d="M154.2,838.8c0.4,0.9,0.8,1.8,1.2,2.7C155,840.6,154.6,839.7,154.2,838.8z"/>
	<path class="st9" d="M160.7,855.9c0.3,1,0.6,2,0.9,3.1C161.3,858,161,857,160.7,855.9L160.7,855.9z"/>
	<path class="st9" d="M168.3,896.7c0.2,1.5,0.4,3.1,0.6,4.6C168.7,899.7,168.5,898.2,168.3,896.7z"/>
	<path class="st9" d="M170.2,910.2c0.2,1.5,0.4,2.9,0.7,4.4C170.6,913.1,170.4,911.7,170.2,910.2z"/>
	<path class="st9" d="M174.5,935.4c-0.4-2-0.8-4-1.1-6.1C173.7,931.4,174.1,933.4,174.5,935.4z"/>
	<path class="st9" d="M175.3,939.3c-0.3-1.3-0.5-2.6-0.8-4C174.7,936.7,175,938,175.3,939.3z"/>
	<path class="st9" d="M181.8,967.1c-0.6-2.3-1.3-4.7-1.9-7.1C180.5,962.4,181.2,964.8,181.8,967.1z"/>
	<path class="st9" d="M181.8,967.1c0.4,1.3,0.7,2.6,1.1,3.9C182.5,969.7,182.2,968.4,181.8,967.1z"/>
	<path class="st9" d="M189,990L189,990c-0.1-0.2-0.1-0.3-0.2-0.5c-0.2-0.5-0.3-0.9-0.5-1.4C188.6,988.7,188.8,989.4,189,990L189,990
		z"/>
	<path class="st9" d="M190.3,993.4c0.1,0.2,0.1,0.3,0.2,0.5c-0.2-0.6-0.5-1.3-0.7-1.9C189.9,992.4,190.1,992.9,190.3,993.4z"/>
	<path class="st9" d="M190.7,994.6c0,0.1,0.1,0.1,0.1,0.2c-0.1-0.3-0.2-0.6-0.4-0.9C190.5,994.1,190.6,994.4,190.7,994.6z"/>
	<path class="st9" d="M190.9,995c0.1,0.3,0.2,0.5,0.3,0.8c-0.1-0.3-0.2-0.6-0.4-0.9C190.8,994.8,190.8,994.9,190.9,995L190.9,995z"
		/>
	<path class="st9" d="M191.9,997.6c0.5,1.2,1,2.5,1.5,3.7C192.9,1000.1,192.4,998.8,191.9,997.6z"/>
	<path class="st9" d="M196.4,1008.4c0.1,0.1,0.1,0.3,0.2,0.4c-0.2-0.4-0.4-0.8-0.5-1.2c-0.1-0.1-0.1-0.3-0.2-0.4
		c-0.1-0.2-0.1-0.3-0.2-0.5c-0.1-0.2-0.2-0.5-0.3-0.8c0.1,0.3,0.2,0.5,0.4,0.8C196,1007.3,196.2,1007.8,196.4,1008.4L196.4,1008.4z"
		/>
	<path class="st9" d="M200.6,1017c0.2,0.4,0.4,0.8,0.6,1.2c-0.8-1.6-1.6-3.2-2.4-4.8c0,0.1,0.1,0.1,0.1,0.2c0.2,0.4,0.4,0.8,0.6,1.2
		c0.2,0.4,0.4,0.9,0.6,1.3C200.3,1016.4,200.4,1016.7,200.6,1017L200.6,1017z"/>
	<path class="st9" d="M198,1011.8c0.2,0.5,0.5,1.1,0.8,1.6c-0.6-1.2-1.2-2.4-1.7-3.7C197.4,1010.4,197.7,1011.1,198,1011.8
		L198,1011.8z"/>
	<path class="st9" d="M198.8,1013.4C198.8,1013.4,198.8,1013.4,198.8,1013.4L198.8,1013.4C198.8,1013.4,198.8,1013.4,198.8,1013.4
		L198.8,1013.4z"/>
	<path class="st9" d="M203.1,1021.8c0.5,1,1.1,2,1.6,3c-0.2-0.4-0.5-0.9-0.7-1.3c-0.2-0.4-0.5-0.9-0.7-1.3
		C203.3,1022.1,203.2,1021.9,203.1,1021.8c-0.4-0.7-0.7-1.2-1-1.8c-0.1-0.1-0.1-0.2-0.2-0.4c-0.2-0.4-0.4-0.8-0.6-1.2
		c0-0.1-0.1-0.1-0.1-0.2c0.1,0.2,0.2,0.3,0.3,0.5c0.2,0.4,0.4,0.7,0.6,1.1C202.4,1020.5,202.8,1021.2,203.1,1021.8L203.1,1021.8z"/>
	<path class="st9" d="M206.6,1028c0.3,0.5,0.6,1,0.9,1.5c-0.1-0.1-0.2-0.3-0.3-0.4c-0.2-0.3-0.3-0.6-0.5-0.8
		C206.7,1028.2,206.7,1028.1,206.6,1028L206.6,1028z"/>
	<path class="st9" d="M211.4,1035.7c0.1,0.1,0.1,0.2,0.2,0.3c-0.3-0.5-0.6-0.9-0.9-1.4C210.9,1034.9,211.1,1035.3,211.4,1035.7
		L211.4,1035.7z"/>
	<path class="st9" d="M206.2,1027.3c0.1,0.3,0.3,0.5,0.5,0.8c-0.6-1.1-1.2-2.1-1.9-3.2C205.2,1025.6,205.7,1026.4,206.2,1027.3
		L206.2,1027.3z"/>
	<path class="st9" d="M208.2,1030.7c0.3,0.6,0.7,1.1,1,1.7c-0.3-0.5-0.6-1-0.9-1.5C208.3,1030.9,208.3,1030.8,208.2,1030.7
		L208.2,1030.7z"/>
	<path class="st9" d="M209.3,1032.4c0.2,0.3,0.4,0.6,0.6,0.9C209.7,1033,209.5,1032.7,209.3,1032.4
		C209.3,1032.4,209.3,1032.4,209.3,1032.4z"/>
	<path class="st9" d="M207.7,1029.8c0.2,0.3,0.4,0.6,0.5,0.9c-0.2-0.4-0.5-0.8-0.7-1.2C207.6,1029.6,207.6,1029.7,207.7,1029.8
		L207.7,1029.8z"/>
	<path class="st9" d="M223.2,1051.7c0.3,0.3,0.6,0.7,0.8,1c-1.1-1.4-2.3-2.8-3.4-4.2c0.3,0.3,0.6,0.7,0.8,1c0.4,0.4,0.7,0.9,1.1,1.3
		C222.8,1051.1,223,1051.4,223.2,1051.7L223.2,1051.7z"/>
	<path class="st9" d="M228.3,1057.5c0.5,0.5,0.9,1,1.4,1.5c-1.3-1.4-2.6-2.8-3.9-4.3c0.4,0.4,0.8,0.9,1.2,1.3l0.2,0.3
		C227.6,1056.7,227.9,1057.1,228.3,1057.5L228.3,1057.5z"/>
	<path class="st9" d="M224.1,1052.7c0.1,0.2,0.3,0.3,0.4,0.5c0,0-0.1-0.1-0.1-0.1C224.3,1052.9,224.2,1052.8,224.1,1052.7
		L224.1,1052.7z"/>
	<path class="st9" d="M220.3,1048.1C220.3,1048.1,220.4,1048.1,220.3,1048.1c-0.3-0.4-0.8-0.9-1.1-1.5
		C219.6,1047.1,220,1047.6,220.3,1048.1z"/>
	<path class="st9" d="M214.1,1039.6c0.3,0.5,0.6,0.9,1,1.4c-1-1.4-1.9-2.8-2.9-4.2c0.1,0.2,0.3,0.4,0.4,0.6s0.2,0.4,0.4,0.6
		C213.3,1038.5,213.7,1039.1,214.1,1039.6L214.1,1039.6z"/>
	<path class="st9" d="M217.6,1044.5c0.4,0.6,0.8,1.1,1.3,1.7c-0.7-1-1.5-1.9-2.2-2.9C217,1043.7,217.3,1044.1,217.6,1044.5
		L217.6,1044.5z"/>
	<path class="st9" d="M218.8,1046.1c0.1,0.2,0.2,0.3,0.4,0.5c0,0-0.1-0.1-0.1-0.1C219,1046.4,218.9,1046.3,218.8,1046.1
		L218.8,1046.1z"/>
	<path class="st9" d="M220.4,1048.2c0.1,0.1,0.2,0.2,0.3,0.3c-0.1-0.1-0.1-0.1-0.2-0.2C220.5,1048.3,220.4,1048.2,220.4,1048.2
		L220.4,1048.2z"/>
	<path class="st9" d="M229.7,1059c0.1,0.2,0.3,0.3,0.4,0.5c-0.1-0.1-0.1-0.2-0.2-0.2C229.8,1059.1,229.7,1059,229.7,1059z"/>
	<path class="st9" d="M225.7,1054.5c0,0,0.1,0.1,0.1,0.1C225.8,1054.6,225.7,1054.6,225.7,1054.5
		C225.7,1054.6,225.7,1054.6,225.7,1054.5z"/>
	<path class="st9" d="M224.5,1053.1c0.4,0.5,0.8,1,1.2,1.4C225.3,1054.1,224.9,1053.6,224.5,1053.1z"/>
	<path class="st9" d="M211.6,1036c0.2,0.3,0.4,0.6,0.6,0.9c-0.1-0.1-0.2-0.3-0.3-0.4C211.8,1036.3,211.7,1036.1,211.6,1036
		L211.6,1036z"/>
	<path class="st9" d="M209.9,1033.3c0.3,0.4,0.5,0.8,0.8,1.3c-0.1-0.2-0.2-0.3-0.3-0.4C210.2,1033.9,210,1033.6,209.9,1033.3z"/>
	<path class="st9" d="M216.5,1043.1c0,0,0.1,0.1,0.1,0.2C216.6,1043.2,216.6,1043.2,216.5,1043.1
		C216.5,1043.1,216.5,1043.1,216.5,1043.1z"/>
	<path class="st9" d="M215.1,1041c0.1,0.2,0.3,0.4,0.4,0.6c-0.1-0.1-0.1-0.2-0.2-0.3C215.2,1041.3,215.1,1041.2,215.1,1041
		L215.1,1041z"/>
	<path class="st9" d="M215.5,1041.7c0.3,0.5,0.7,1,1,1.4C216.2,1042.6,215.8,1042.1,215.5,1041.7z"/>
	<path class="st9" d="M233.1,1062.5c0,0,0.1,0.1,0.1,0.1L233.1,1062.5l-0.4-0.3c-0.9-0.9-1.8-1.8-2.6-2.8c0.4,0.4,0.7,0.8,1.1,1.2
		c0.1,0.1,0.2,0.2,0.4,0.4c0.3,0.3,0.5,0.6,0.8,0.8C232.6,1062.1,232.9,1062.3,233.1,1062.5L233.1,1062.5z"/>
	<path class="st9" d="M235.6,1065c0.1,0.1,0.1,0.1,0.2,0.2l-0.1-0.1L235.6,1065L235.6,1065z"/>
	<path class="st9" d="M240,1069.2c0.1,0.1,0.1,0.1,0.2,0.2c-1.5-1.4-3-2.8-4.5-4.2c0.6,0.6,1.1,1.1,1.7,1.6c0.3,0.3,0.7,0.6,1,0.9
		c0.1,0.1,0.2,0.2,0.3,0.3C239.2,1068.5,239.6,1068.8,240,1069.2L240,1069.2z"/>
	<path class="st9" d="M234.2,1063.7c0.4,0.4,0.9,0.9,1.3,1.3c-0.8-0.8-1.6-1.5-2.4-2.3C233.5,1063,233.9,1063.4,234.2,1063.7z"/>
	<path class="st9" d="M248,1076.1C248,1076.1,248,1076.1,248,1076.1L248,1076.1c-2.7-2.2-5.3-4.4-7.8-6.7c0.5,0.5,1,0.9,1.5,1.3
		c1.1,1,2.2,2,3.4,3c0.4,0.3,0.8,0.6,1.1,0.9C246.8,1075.1,247.4,1075.6,248,1076.1L248,1076.1z"/>
	<path class="st10" d="M603.7,747.1c13.3-24.2,32-43,55.8-56.5c23.9-13.5,51-20.2,81.2-20.2c37.1,0,68.8,9.8,95.2,29.4
		c26.4,19.6,44,46.3,53,80.1h-83.7c-6.2-13.1-15.1-23-26.5-29.8c-11.4-6.8-24.4-10.2-38.9-10.2c-23.4,0-42.4,8.2-57,24.5
		c-14.5,16.3-21.8,38.1-21.8,65.4s7.3,49.1,21.8,65.4c14.5,16.3,33.5,24.5,57,24.5c14.5,0,27.5-3.4,38.9-10.2
		c11.4-6.8,20.2-16.8,26.5-29.8h83.7c-8.9,33.8-26.6,60.5-53,79.9c-26.4,19.4-58.2,29.2-95.2,29.2c-30.3,0-57.3-6.7-81.2-20.2
		C635.6,954.8,617,936,603.7,912c-13.3-24-20-51.5-20-82.3S590.3,771.3,603.7,747.1L603.7,747.1L603.7,747.1z"/>
	<path class="st10" d="M1192.9,986.3h-76.1L989.5,793.6v192.7h-76.1V673.9h76.1l127.3,193.6V673.9h76.1V986.3z"/>
	<path class="st10" d="M1429.2,673.9v61h-127.3v65.9h95.2v59.2h-95.2v126.4h-76.1V673.9H1429.2z"/>
	<path class="st10" d="M1689.5,673.9v61h-82.8v251.4h-76.1V734.9h-82.8v-61H1689.5z"/>
</g>
</svg>
