<?xml version="1.0" encoding="UTF-8"?><svg id="a" xmlns="http://www.w3.org/2000/svg" xmlns:xlink="http://www.w3.org/1999/xlink" viewBox="0 0 1690.01191 487.04601"><defs><linearGradient id="c" x1="1954.31569" y1="-1646.57342" x2="2238.13384" y2="-1646.57342" gradientTransform="translate(-857.3581 -2255.63361) rotate(23.82) scale(1 -1)" gradientUnits="userSpaceOnUse"><stop offset="0" stop-color="#e52c2b"/><stop offset="1" stop-color="#4b3a8e"/></linearGradient><linearGradient id="d" x1="1195.80257" y1="-210.18954" x2="1337.85264" y2="-747.81954" gradientTransform="translate(-760.06331 -706.90623) rotate(19.84) scale(1 -1)" gradientUnits="userSpaceOnUse"><stop offset="0" stop-color="#e52c2b"/><stop offset="1" stop-color="#4b3a8e"/></linearGradient><linearGradient id="e" x1="1097.94272" y1="-453.57054" x2="1368.06274" y2="-756.04058" gradientTransform="translate(-760.06331 -706.90623) rotate(19.84) scale(1 -1)" gradientUnits="userSpaceOnUse"><stop offset="0" stop-color="#e52c2b"/><stop offset="1" stop-color="#4b3a8e"/></linearGradient><linearGradient id="f" x1="1010.3976" y1="-648.29632" x2="1299.22757" y2="-825.34631" gradientTransform="translate(-760.06331 -706.90623) rotate(19.84) scale(1 -1)" gradientUnits="userSpaceOnUse"><stop offset="0" stop-color="#f7a922"/><stop offset="1" stop-color="#d52a86"/></linearGradient><linearGradient id="g" x1="1005.6076" y1="-514.35598" x2="1330.33763" y2="-783.60597" gradientTransform="translate(-760.06331 -706.90623) rotate(19.84) scale(1 -1)" gradientUnits="userSpaceOnUse"><stop offset="0" stop-color="#f7a922"/><stop offset="1" stop-color="#d52a86"/></linearGradient><linearGradient id="h" x1="1149.15521" y1="-457.67973" x2="1390.92523" y2="-727.56968" gradientTransform="translate(-760.06331 -706.90623) rotate(19.84) scale(1 -1)" gradientUnits="userSpaceOnUse"><stop offset="0" stop-color="#e52c2b" stop-opacity="0"/><stop offset="1" stop-color="#4b3a8e"/></linearGradient><linearGradient id="i" x1="1074.07805" y1="-543.92695" x2="1358.00797" y2="-754.99694" gradientTransform="translate(-760.06331 -706.90623) rotate(19.84) scale(1 -1)" gradientUnits="userSpaceOnUse"><stop offset="0" stop-color="#f7a922" stop-opacity="0"/><stop offset="1" stop-color="#d52a86"/></linearGradient><linearGradient id="j" x1="1052.6058" y1="-644.94232" x2="1320.96571" y2="-796.2423" gradientTransform="translate(-760.06331 -706.90623) rotate(19.84) scale(1 -1)" gradientUnits="userSpaceOnUse"><stop offset="0" stop-color="#f7a922" stop-opacity="0"/><stop offset="1" stop-color="#d52a86"/></linearGradient></defs><g id="b"><path d="m526.29188,120.02217c-19.53-8.62-42.37.16-50.95999,19.6-8.57999,19.42-31.44,28.20999-50.95999,19.60001-19.53-8.62-28.42001-31.44-19.85001-50.86,17.16-38.86-.66-84.49-39.69-101.72-39.04999-17.24-84.76001.34-101.92001,39.19l-20.75,46.98,23.60999,10.42,20.75-46.98c11.44-25.91,41.91-37.62,67.95001-26.13,26.03,11.49,37.89999,41.91,26.45999,67.81-14.29001,32.37.54999,70.39999,33.07999,84.76999,32.54001,14.37,70.64001-.28,84.92999-32.66,2.85999-6.48,10.47-9.41,16.97998-6.53999,6.51001,2.87001,14.12-.05,16.98999-6.53,2.87-6.49001-.09998-14.08-6.62-16.95" style="fill:url(#c); fill-rule:evenodd;"/><path d="m257.54191,296.27216c-6.97,72.95999.95999,125.11002,21.56,163.85001,34.44-21,62.23999-53.39999,76.98999-94.29999,24.54001-68.04001,6.37-141.07001-40.69-189.81l14.12-39.14999c3.59-9.96-1.57001-20.95-11.53-24.54l-115.89999-41.81001c-9.96001-3.59-20.95,1.57-24.54001,11.53l-14.12,39.15c43.28,15.60999,104.01001,71.57,94.12,175.08001l-.00998-.00003Z" style="fill:url(#d);"/><path d="m279.10191,460.14219c-10.01001,6.10001-20.59,11.23999-31.59,15.32999-44.09-36.07001-69.17999-87.5-80.94-189.13-12.12-105.03-100.88-123.19-101.08-123.23001,18.52-15.5,39.87-27.20999,62.78999-34.42999,3.61-1.16,7.25-2.19,10.91-3.1,7.67999-1.95,15.49001-3.37,23.39-4.28.28999-.05.57001-.07.82001-.1,12.18001,4.39,25.73,11.99001,38.72,22.89,2.16,1.83,4.3,3.75,6.42999,5.75,2.81,2.7,5.61,5.53999,8.31,8.53.69.75999,1.34,1.53999,2.03,2.28999,2.00999,2.35001,3.97,4.74001,5.89,7.25999,1.28999,1.67,2.56,3.39,3.78999,5.14999,2.48,3.53999,4.85001,7.22,7.09,11.09,1.13,1.94,2.23,3.89999,3.3,5.94.50999,1,1.03999,2.03,1.57001,3.06.5,1.02,1.02,2.08,1.52,3.13,12.44,26.34,19.34999,59.52,15.49001,99.95999-6.99001,72.94998.95001,125.10001,21.56,163.86002v.03003Z" style="fill:url(#e);"/><path d="m207.46191,485.44217c-28.19,3.75-57.63,1.03-86.22-9.28C34.2219,444.77216-14.5081,354.40216,3.8419,266.37217c1.73-8.39001,4.09-16.77,7.09-25.06,0,0,62.4,19.23001,84.15,94.25,21.96,75.76001,59.53,125.44,112.37999,149.88h.00002Z" style="fill:url(#f);"/><path d="m247.52191,475.46216c-12.89,4.82001-26.31,8.17999-40.06,9.98001-52.86-24.45001-90.42-74.12-112.38-149.88-21.75001-75.01999-84.15001-94.25-84.15001-94.25,8.39-23.27,21-43.79001,36.67-61.00999,5.59-6.16,11.57-11.91,17.9-17.2.2.03999,88.95,18.2,101.08,123.23001,11.75999,101.62,36.84999,153.04999,80.94,189.13v-.00003Z" style="fill:url(#g);"/><path d="m279.10191,460.14219c-61.23-62.06-30.42-143.22-51.69-222.89999-20.22-75.85001-73.03-98.92999-99.13-108.55,3.61-1.16,7.25-2.19,10.91-3.1,7.67999-1.95,15.49001-3.37,23.39-4.28.28999-.05.57001-.07.82001-.1,12.18001,4.39,25.73,11.99001,38.72,22.89,2.16,1.83,4.3,3.75,6.42999,5.75,2.81,2.7,5.61,5.53999,8.31,8.53.69.75999,1.34,1.53999,2.03,2.28999,2.00999,2.35001,3.97,4.74001,5.89,7.25999,1.28999,1.67,2.56,3.39,3.78999,5.14999,2.48,3.53999,4.85001,7.22,7.09,11.09,1.13,1.94,2.23,3.89999,3.3,5.94.50999,1,1.03999,2.03,1.57001,3.06.5,1.02,1.02,2.08,1.52,3.13,12.44,26.34,19.34999,59.52,15.49001,99.96001-6.99001,72.95001.95001,125.10001,21.56,163.85999v.02002Z" style="fill:url(#h);"/><path d="m247.52191,475.46216c-100.59-56.92999-86.12001-156.67001-118.48-229.25999-20.47-45.91-70.94-63.43001-81.44-65.90001,5.59-6.16,11.57-11.91,17.9-17.2.2.03999,88.95,18.2,101.08001,123.23,11.75999,101.62,36.85001,153.05002,80.94,189.13h-.00002Z" style="fill:url(#i);"/><path d="m207.46191,485.44217c-93.13-30.62-120.62-119.22-141.87-165.29999-21.88-47.51001-61.75-53.76999-61.75-53.76999,1.73-8.39001,4.09-16.77,7.09-25.06,0,0,62.40001,19.23001,84.15001,94.25,21.96,75.76001,59.53,125.44,112.38,149.88l-.00002-.00003Z" style="fill:url(#j);"/><path d="m526.30189,119.81217c-19.5-8.61-42.29999.16-50.87,19.56-8.56,19.39-31.39001,28.17-50.87,19.56-19.5-8.61-28.37-31.38-19.81-50.77,17.13-38.79-.66-84.34-39.63-101.55-38.98001-17.21-84.60999.34-101.73999,39.13l-20.70999,46.9,23.57001,10.41,20.70999-46.9c11.42001-25.86,41.84-37.56,67.83002-26.08,25.98999,11.47,37.84,41.84,26.42001,67.7-14.26999,32.32.54001,70.28001,33.01999,84.62,32.48001,14.34,70.51999-.28,84.79001-32.60001,2.85999-6.47,10.45001-9.39999,16.95999-6.52,6.5,2.87,14.09998-.05,16.96002-6.52,2.85999-6.48-.09998-14.05-6.60999-16.92h0l-.02008-.01997Z" style="fill:#fff; fill-rule:evenodd;"/><path d="m356.39192,365.20218c-14.73001,40.82001-42.48001,73.16998-76.85001,94.14001-.48999-.92001-.97-1.84-1.44-2.76999v-.01999c-.47-.92999-.94-1.87-1.39999-2.82001v-.01999c-.66-1.37-1.31-2.75-1.94-4.14999-.51999-1.14001-1.01999-2.29001-1.51001-3.45001-2.28-5.35001-4.34-10.92999-6.20001-16.76999v-.01999c-.51001-1.62-1.01001-3.26001-1.48999-4.91v-.01999c-.48001-1.66-.94-3.32999-1.39001-5.03v-.01999c-6.57001-25-9.46001-54.29999-8.37-88.98999,0-.32001.02-.64001.03-.95999.09-2.57999.20001-5.19.32999-7.82999.01999-.45001.04001-.89001.07001-1.34.10999-2.10001.23001-4.22.37-6.35001.31-4.85999.70001-9.82001,1.14999-14.89001.10001-1.07999.20001-2.16.29999-3.23999.32001-3.32001.56-6.57999.73999-9.79999h0c.07999-1.39001.14001-2.75.19-4.10999.10001-2.73001.14999-5.42001.14999-8.07999v-1.92001c0-.87-.01999-1.73999-.04001-2.60001,0-.56-.03-1.13-.04001-1.69-.01999-.69-.04001-1.35999-.07001-2.04001-.01999-.54001-.04001-1.07001-.07001-1.60001,0-.26001-.01999-.53-.04001-.79001-.01999-.42999-.04001-.85999-.07001-1.29001,0-.23001-.01999-.45001-.04001-.67999-.03-.56-.07001-1.12-.10999-1.67001-.03-.45999-.06-.91-.10001-1.35999-.03-.34-.04999-.67999-.07999-1.01999v-.03c-.09-1.13-.19-2.24001-.29999-3.36,0-.09-.01999-.17999-.03-.27-.06-.58-.12-1.14999-.17999-1.73v-.08c-.07001-.64999-.14001-1.28999-.22-1.92-.07001-.58-.14001-1.17-.22-1.75-.01001-.12-.03-.23-.04001-.35001-.07999-.57001-.14999-1.14999-.23001-1.71001-.09-.63-.17999-1.25999-.26999-1.88-.09-.62-.19-1.23-.28-1.85001v-.05c-.10001-.61-.20001-1.22-.29999-1.82001-.20999-1.23-.42999-2.45-.66-3.66-.35001-1.81-.72-3.61-1.11-5.38-.66-2.96001-1.38-5.85001-2.17-8.69-1.25999-4.53-2.67-8.92-4.22-13.14999-.2-.53-.39-1.06-.59-1.58-.39-1.05-.8-2.09-1.22-3.12-.41-1.03-.84-2.05-1.27-3.06-.22-.50999-.42999-1.00999-.64999-1.50999-.17-.38-.34-.75999-.50999-1.14-.08-.19-.17-.38-.25-.56-.16-.36-.33-.72-.49001-1.08-.22-.47-.42999-.92999-.64999-1.39999-.03999-.09-.08-.17999-.13-.27-.58-1.22-1.17-2.44-1.78-3.63-.37-.71001-.72-1.41-1.08-2.10001-.42999-.82001-.87-1.64-1.31-2.45-.27-.5-.53999-.99001-.82001-1.48-.13-.23-.25999-.46001-.39-.69-.02-.03999-.03999-.07001-.06-.10001-.53-.94-1.07001-1.87-1.62-2.78999-.03-.03999-.05-.08-.08-.13-.21001-.36-.42-.71001-.64-1.06-.37-.62-.75-1.23-1.13-1.83-.25999-.41-.50999-.81-.77-1.21001,0-.00999-.00999-.03-.02-.03999-.2-.31-.39999-.63-.61-.94-.98-1.52-1.99001-3-3.00999-4.47-.25999-.37-.52-.74001-.78-1.11-.48-.67-.96001-1.34-1.45-2-2.10001-2.85001-4.27-5.58-6.49001-8.2-.06-.07001-.12-.14-.17999-.22-.41-.48-.82001-.95-1.23-1.42,0-.00999-.02-.02-.03-.03999-.25-.28999-.5-.58-.75999-.86-.53999-.61-1.09-1.22-1.63-1.81-.12-.13-.24001-.25999-.36-.39-.25999-.28999-.53-.58-.8-.86-1.37-1.46001-2.75999-2.88-4.16-4.25999-.24001-.24001-.48-.48-.72-.71001-.89-.87-1.8-1.73-2.7-2.56-.24001-.23-.49001-.45-.73-.67-.94-.85001-1.88-1.69-2.82001-2.50999-.24001-.22-.49001-.42999-.74001-.64h0c-.46001-.39-.92-.78-1.38-1.16-.64-.53999-1.28999-1.06-1.92999-1.58-12.17999-9.81999-24.75999-16.71-36.13-20.81l14.10001-39.08c3.59-9.94,14.55-15.1,24.5-11.51l42.99001,15.51,24.28999,8.76,48.42001,17.46c9.94,3.59,15.09,14.55,11.51001,24.5l-14.10001,39.08c46.98999,48.66,65.13,121.56001,40.62,189.49001l-.07993.02991Z" style="fill:#fff;"/><path d="m203.5019,144.54216c-.46001-.39-.92-.78-1.38-1.16.19.16.39.32001.58.48.27.23.53.45.8.67999v.00002Z" style="fill:#fff;"/><path d="m210.5019,150.93216c-.89-.87-1.8-1.73-2.7-2.56.44.39999.88.81,1.32001,1.22.46001.44.92.89,1.38,1.34h-.00002Z" style="fill:#fff;"/><path d="m218.1819,158.97217c-.53999-.61-1.09-1.22-1.63-1.81.28999.32001.59.64.88.96001.25999.28.50999.57001.75999.85001l-.00999-.00002Z" style="fill:#fff;"/><path d="m220.2019,161.28217c-.41-.48-.82001-.95-1.23-1.42.16.17999.32001.36.48.53999.25.28999.5.59.75.88Z" style="fill:#fff;"/><path d="m228.32191,171.69217c-.48-.67-.96001-1.34-1.45-2,.49001.66.98,1.32001,1.45,2Z" style="fill:#fff;"/><path d="m239.57191,189.99218c-.42999-.82001-.87-1.64-1.31-2.45.41.74001.81,1.5,1.21001,2.25999.03.06.06.12.09.19h.00999Z" style="fill:#fff;"/><path d="m242.4319,195.72217c-.58-1.22-1.17-2.44-1.78-3.63.13.25999.25999.52.39.77.46001.92999.92999,1.89999,1.38,2.86h.00999Z" style="fill:#fff;"/><path d="m246.3719,204.73217c-.41-1.03-.84-2.05-1.27-3.06.42999,1.00999.85001,2.03,1.27,3.06Z" style="fill:#fff;"/><path d="m247.5919,207.85218c-.39-1.05-.8-2.09-1.22-3.12.42,1.03.82001,2.07001,1.22,3.12Z" style="fill:#fff;"/><path d="m252.4019,222.58217c-1.25999-4.53-2.67-8.92-4.22-13.14999,1.56,4.23,2.97,8.61,4.22,13.14999Z" style="fill:#fff;"/><path d="m254.57191,231.27218c-.66-2.96001-1.38-5.85001-2.17-8.69.78999,2.83,1.50999,5.73,2.17,8.69Z" style="fill:#fff;"/><path d="m255.6819,236.65216c-.35001-1.81-.72-3.61-1.11-5.38.39999,1.77.77,3.57001,1.11,5.38Z" style="fill:#fff;"/><path d="m256.3419,240.31217c-.20999-1.23-.42999-2.45-.66-3.66.23,1.21001.45001,2.42999.66,3.66Z" style="fill:#fff;"/><path d="m258.01191,295.77216c.32001-3.32001.56-6.57999.73999-9.79999-.17001,3.22-.42001,6.48999-.73001,9.81-.10001,1.07999-.20999,2.16-.29999,3.23001.10001-1.07999.20001-2.16.29999-3.23999l-.00998-.00003Z" style="fill:#fff;"/><path d="m258.42192,257.08216c-.09-1.13-.19-2.24001-.29999-3.36.10999,1.11.20999,2.23.29999,3.36Z" style="fill:#fff;"/><path d="m279.54191,459.35218c-9.98999,6.07999-20.54999,11.22-31.53,15.29999q-7.32001,2.72,0,0c10.98001-4.07999-.00999-.01001-.02-.01999h0c-2.66-2.17999-5.25-4.41-7.75999-6.70999-1.50999-1.37-3-2.78-4.46001-4.20001l-.10001-.10001-.10001-.10001c-.78999-.76999-1.57001-1.54999-2.35001-2.32999l-.10001-.10001-.38-.38c-.89-.91-1.77-1.82999-2.64-2.76001-.07001-.07999-.14999-.14999-.22-.23001-.07001-.07001-.13-.14999-.2-.22-1.32001-1.41-2.62-2.85001-3.89-4.32001-.02-.03-.05-.04999-.07001-.07999-.00999-.01001-.02-.01999-.03-.04001-.41-.47-.82001-.94-1.22-1.42001-.03-.04001-.07001-.07999-.10001-.12-.10001-.12-.2-.23001-.3-.35001-1.14999-1.37-2.28999-2.75-3.41-4.16-.05-.07001-.11-.13-.16-.20001-.03-.04001-.07001-.09-.10001-.13-.39999-.5-.8-1.01001-1.19-1.51999-.03999-.04999-.07001-.09-.11-.14001-.09-.12-.17999-.23001-.25999-.35001-.74001-.95999-1.46001-1.92999-2.17999-2.91-.03-.04001-.06-.07999-.09-.12,0,0-.00999-.01999-.02-.03-.35001-.48001-.7-.95999-1.03999-1.44-.06-.09-.13-.17001-.19-.26001-.08-.12-.16-.23999-.25-.35001-.97-1.37-1.92999-2.76001-2.88-4.17999-.09-.13-.17999-.26001-.25999-.39001-.11-.16-.22-.32999-.32001-.48999-.31-.47-.62-.94-.92999-1.42001-.10001-.14999-.19-.29001-.28999-.44-.17-.26999-.35001-.54001-.52-.82001-.19-.29999-.38-.60001-.57001-.89999-.3-.48001-.60001-.97-.89999-1.45999-.03999-.07001-.09-.14999-.13-.22-.24001-.39999-.48-.79001-.72-1.19-.09-.14001-.17-.28-.25999-.42001-.17-.28-.34-.56-.50999-.85001-.03999-.07001-.09-.14999-.13-.22-.62-1.06-1.24001-2.12-1.85001-3.20999v-.01001c-.24001-.42001-.48-.85001-.71001-1.28-.23-.42001-.47-.85001-.7-1.28-.09-.17001-.19-.34-.28-.51999-.31-.56-.61-1.13-.91-1.70999-.07001-.13-.13-.25-.2-.38-.21001-.39999-.42-.79999-.63-1.20999-.03-.06-.06-.13-.10001-.19-.82001-1.59-1.63-3.20001-2.42-4.84v-.01999s0-.01999-.00999-.03c-.59-1.20999-1.17-2.42999-1.74001-3.67999-.14-.29999-.28-.60999-.42-.91-.17999-.38-.35001-.76999-.53-1.16-.06-.14001-.12-.26999-.17999-.39999-.08-.17001-.14999-.34-.23-.51999-.11-.25-.23-.51001-.34-.76001-.21001-.48001-.42-.95999-.63-1.44-.46001-1.07999-.92-2.16-1.38-3.26001-.5-1.20001-.99001-2.42001-1.48-3.66-.17999-.45999-.36-.92999-.53999-1.39001-.06-.16-.12-.31-.19-.47-.12-.31-.24001-.62-.36-.94-.12-.31-.24001-.63-.36-.94h0c-.23-.63-.47-1.26001-.7-1.89999h0l-.24001-.67999c-.14999-.41-.3-.82999-.45-1.25-.07001-.17999-.13-.35999-.19-.53-.16-.47-.33-.92999-.5-1.39999h0c-.23-.64999-.45-1.29999-.67999-1.95999-.45-1.31-.89999-2.64001-1.34-3.98999-.17999-.54001-.35001-1.07999-.53-1.62-.35001-1.07999-.69-2.17001-1.03-3.26999q-.22667-.73334,0,0c-.50999-1.64999-1.00999-3.32001-1.50999-5.01001-.12-.42999-.24001-.85001-.37-1.28-.37-1.28-.73-2.57001-1.09-3.87h0c-.64-2.32001-1.25999-4.67001-1.87-7.06-.3-1.20001-.60001-2.41-.89999-3.63-.3-1.22-.59-2.45001-.88-3.67999-.28999-1.23999-.58-2.48999-.86-3.73999-.14-.63-.28-1.26001-.42-1.89999-.14-.63-.28-1.26999-.41-1.91-.14-.64001-.27-1.28-.41-1.92001-.27-1.29001-.53999-2.59-.81-3.89001q-.18001-.86667,0,0c-.25999-1.31-.53-2.63-.78-3.95999q-.16667-.88666,0,0c-.39-2-.77-4.01999-1.14-6.06-.24001-1.37-.49001-2.73999-.73-4.13-.24001-1.39001-.48-2.79001-.71001-4.19-.11-.70001-.23-1.41-.35001-2.12-.11-.70999-.23-1.42001-.34-2.14001s-.23-1.44-.34-2.16c-.22-1.44-.44-2.89999-.66-4.35999-.00999-.10999-.03-.22-.05-.32001-.2-1.35999-.39999-2.73001-.59-4.10999-.21001-1.48999-.41-2.98999-.62-4.5-.2-1.51001-.39999-3.03-.60001-4.57001-.39-3.07999-.77-6.20001-1.14-9.37-.08-.64999-.14999-1.29999-.23-1.95001-.03999-.29999-.08-.60001-.11-.89001-.03999-.26999-.07001-.54001-.11-.81-.06-.39999-.11-.79999-.17-1.20001-.05-.32999-.09-.66-.14-.98001-.08-.54001-.16-1.07999-.24001-1.62-.05-.32001-.10001-.64001-.14999-.95999-.25-1.56-.52-3.10999-.81-4.63-.10001-.51999-.2-1.04001-.3-1.56-.09-.45999-.17999-.91-.27-1.35999-.13-.62-.25999-1.25-.39-1.85999-.09-.41-.17999-.81-.27-1.20999-.71001-3.17999-1.50999-6.26999-2.37-9.26001-.3-1.04001-.61-2.06-.92-3.08h0c-.16-.50999-.32001-1.02-.48-1.52-.16-.5-.32001-1-.49001-1.5-.27-.81-.53999-1.62-.83-2.42-.10001-.3-.21001-.60001-.32001-.89999-.22-.61-.44-1.22-.67-1.83-.09-.23-.17-.46001-.25999-.69-.72-1.89999-1.47-3.75999-2.25-5.58-.39-.91-.78999-1.81-1.19-2.69q-.26666-.58667,0,0c-.39999-.89-.81-1.77-1.22-2.64h0c-.23-.49001-.47-.98-.7-1.46001-.17999-.38-.37-.75-.55-1.12-.06-.12-.12-.23-.17999-.35001-.23-.45-.45-.89999-.67999-1.34-.25-.49001-.50999-.97-.77-1.45-.25-.46001-.5-.92-.75-1.38-.5-.92-1.00999-1.82001-1.53-2.71001-.24001-.42-.49001-.83-.73-1.24001-.24001-.41-.49001-.82001-.74001-1.23-.17-.27-.33-.53999-.5-.81s-.33-.53999-.5-.8c-.17-.27-.33-.53-.5-.8-.34-.53-.67999-1.05-1.02-1.57001-.27-.42-.53999-.83-.83-1.24001-.27-.41-.55-.82001-.83-1.22-.55-.81-1.12-1.60001-1.69-2.38h0c-.67999-.92999-1.35001-1.84-2.03999-2.74001-.67999-.89999-1.37-1.78-2.07001-2.64999-.7-.86-1.39999-1.71001-2.10001-2.53999-.08-.10001-.16-.19-.24001-.28999-.27-.32001-.53999-.64-.82001-.96001-.35001-.41-.71001-.82001-1.07001-1.22-.27-.3-.53999-.60001-.81-.89999-.27-.3-.53999-.59-.81-.88-.27-.28999-.53999-.58-.81-.87-.99001-1.06-1.99-2.09-3-3.09-.22-.22-.44-.44-.66-.64999-.22-.22-.44-.42999-.66-.64999s-.44-.42999-.67-.64c-.22-.21001-.44-.42-.67-.63l-1.33-1.24001c-.22-.21001-.44-.41-.67-.61-.44-.39999-.89-.8-1.34-1.19s-.89-.78-1.34-1.16c-.67-.57001-1.34-1.14-2.01-1.69-.35-.28999-.69-.57001-1.04-.84-.2-.16-.39-.32001-.59-.47-.03-.02-.05-.03999-.08-.06-.23-.17999-.45-.36-.68-.53h-.01l-1.08-.84c-.04-.03-.08-.06-.11-.09-.44-.34-.88-.67999-1.33-1-.22-.17-.44-.33-.66-.49001-.05-.03999-.09-.07001-.13-.10001-.09-.07001-.18-.13-.26-.19-.09-.07001-.18-.13-.26-.19-.09-.07001-.19-.14-.29-.21001-.2-.14999-.4-.28999-.6-.44-.01,0-.03-.02-.04-.03-.04-.03-.08-.05-.11-.08-.34-.25-.69-.49001-1.03-.73-.19-.14-.38-.27-.58-.39999-.22-.14999-.43-.3-.65-.45-.78-.53999-1.57-1.06-2.34-1.57001-.38-.24001-.75-.49001-1.13-.73-.38-.24001-.75-.48-1.12-.71001-.03-.02-.05-.03-.08-.05-.38-.24001-.77-.48-1.15-.71001-.38-.23-.76-.47-1.14-.69-.38-.23-.76-.45-1.13-.67-.38-.22-.75-.44-1.13-.66-.01,0-.03-.02-.04-.02-.73-.42-1.46-.83-2.18-1.23-.37-.2-.73-.39999-1.1-.60001-16.35-8.81999-28.97-11.39999-29.04-11.42q-.04667-.01334,0,0c18.49-15.47,39.8-27.16,62.67999-34.36,26.06,9.61,78.78,32.65001,98.95999,108.37001,21.23,79.55002-9.52,160.57001,51.60001,222.51999l.00006-.00986Z" style="fill:#fff;"/><path d="m208.02191,484.61216c-28.14,3.73999-57.53,1.03-86.07-9.26999C35.0819,444.01218-13.5681,353.79218,4.7519,265.91217c0,0,39.81,6.26001,61.65,53.67999,21.21,46,48.66,134.44998,141.61999,165.00998l.00002.01001Z" style="fill:#fff;"/><path d="m95.3419,174.24218c-16.35-8.81999-28.97-11.39999-29.04-11.42q-.04667-.01334,0,0c.07.02.01,0,.03,0h.05c.04,0,.1.02.17.03999.03,0,.07.02.11.03h0s.09.02.14.03c.07.02.15.03999.23.06s.16.03999.24.06c.05.00999.09.02.15.03999.09.02.18.03999.28.07001.21.05.43.11.68.17l.33.09c.22.06.45.12.69.19.15.03999.3.08.46.13.35.10001.73.21001,1.13.32001.4.12.84.25,1.29.39,1,.31,2.11.67,3.32,1.09.2.07001.39.14.59.21001.04.02.08.03.12.03999.16.06.33.11.49.17.21.08.43.16.65.23.2.07001.4.14999.61.22.06.02.12.05.18.07001.16.06.31.12.47.17999.24.09.49.19.75.28.2.08.39.14999.59.23.45.17999.92.36,1.39.55.24.09.48.19.71.28999.24.10001.48.2.73.3.24.10001.49.2.74.31.74.31,1.51.64,2.29.99001.26.11.52.23.78.35001.26.12.53.24001.8.36,2.19,1.00999,4.49,2.14,6.88,3.39999.32.17.64.34.97.52v.01001Z" style="fill:#fff;"/><path d="m96.44191,174.84217c-.37-.2-.73-.39999-1.1-.60001.2.10001.39.21001.59.32001.17.09.33.17999.5.28h.01Z" style="fill:#fff;"/><path d="m98.62191,176.07218c-.73-.42-1.46-.83-2.18-1.23.04.02.07.03999.11.06.41.23.83.46001,1.25.7.27.14999.55.31.82.47Z" style="fill:#fff;"/><path d="m99.7919,176.75217c-.38-.22-.75-.44-1.13-.66.29.16.58.33.87.5.08.05.17.10001.26.14999v.01001Z" style="fill:#fff;"/><path d="m100.9219,177.42217c-.38-.23-.76-.45-1.13-.67.22.12.44.25.66.38.16.09.32.19.48.28999h-.01001Z" style="fill:#fff;"/><path d="m102.0619,178.11217c-.38-.23-.76-.47-1.14-.69.15.08.29.17999.44.25999.23.14.47.28.7.42999v.00002Z" style="fill:#fff;"/><path d="m103.2119,178.82218c-.38-.24001-.77-.48-1.15-.71001.03.00999.06.03.08.05.36.22.71.44,1.07.67v-.00999Z" style="fill:#fff;"/><path d="m114.9919,187.11217l-1.08-.84c.04.03.09.07001.13.10001.31.24001.63.49001.94.74001l.01-.00002Z" style="fill:#fff;"/><path d="m119.4019,190.71218c-.67-.57001-1.34-1.14-2.01-1.69.67.55,1.34,1.11,2.01,1.69Z" style="fill:#fff;"/><path d="m120.7419,191.87217c-.45-.39-.89-.78-1.34-1.16.45.38.89.75999,1.34,1.16Z" style="fill:#fff;"/><path d="m136.41191,208.22217c-.7-.86-1.39999-1.71001-2.10001-2.53999.71001.83,1.41,1.67999,2.10001,2.53999Z" style="fill:#fff;"/><path d="m140.5119,213.60218c-.67999-.92999-1.35001-1.84-2.03999-2.73.69.89,1.36,1.81,2.03999,2.73Z" style="fill:#fff;"/><path d="m145.8719,221.61217c-.17-.27-.33-.53999-.5-.8h0c.13.21001.25999.41.39.62.03999.06.08.12.11.17999v.00002Z" style="fill:#fff;"/><path d="m146.3719,222.42217c-.17-.27-.33-.53999-.5-.81h0c.17.27.33.53999.5.81Z" style="fill:#fff;"/><path d="m154.2319,237.33217c-.39999-.89-.81-1.77-1.22-2.64.42.87.83,1.75,1.22,2.64Z" style="fill:#fff;"/><path d="m154.2319,237.33217c.39999.89.8,1.78,1.19,2.69-.39-.91-.78999-1.81-1.19-2.69Z" style="fill:#fff;"/><path d="m161.6219,257.54218c-.3-1.04001-.61-2.06-.92-3.08.32001,1.00999.62,2.03999.92,3.08Z" style="fill:#fff;"/><path d="m168.94191,299.78217c-.2-1.51001-.39999-3.03-.60001-4.57001.2,1.54001.39999,3.06.60001,4.57001Z" style="fill:#fff;"/><path d="m170.8619,313.08216c-.22-1.44-.44-2.89999-.66-4.35999.22,1.45999.44,2.92001.66,4.35999Z" style="fill:#fff;"/><path d="m174.4719,333.89219c-.39-2-.77-4.01999-1.14-6.06.37,2.04999.75,4.07001,1.14,6.06Z" style="fill:#fff;"/><path d="m174.4719,333.90216c.25999,1.32999.52,2.64999.78,3.95999-.25999-1.31-.53-2.63-.78-3.95999Z" style="fill:#fff;"/><path d="m181.80191,365.60218c-.64-2.32001-1.25999-4.67001-1.87-7.06.61,2.39001,1.23,4.75,1.87,7.06Z" style="fill:#fff;"/><path d="m181.80191,365.61216c.36,1.29999.72,2.59,1.09,3.87-.37-1.28-.73-2.57001-1.09-3.87Z" style="fill:#fff;"/><path d="m189.0319,388.56217c-.07001-.17999-.13-.35999-.19-.53.07001.17001.13.35001.19.51999v.01999-.00998Z" style="fill:#fff;"/><path d="m189.7319,390.48218l-.24001-.67999c.08.23001.17.45001.25.67999h-.00999Z" style="fill:#fff;"/><path d="m190.44191,392.38218c-.23-.63-.47-1.26001-.7-1.89999.17999.48001.35001.95001.53,1.42999.14999.41.31.82001.47,1.23001.02.06.05.12.07001.17999-.12-.31-.24001-.63-.36-.94h-.01001Z" style="fill:#fff;"/><path d="m191.16191,394.26218c-.12-.31-.24001-.62-.36-.94.02.04999.03999.10999.06.16.16.42001.32001.82999.48,1.25-.06-.16-.12-.31-.19-.47h.01001Z" style="fill:#fff;"/><path d="m193.3619,399.78217c-.5-1.20001-.99001-2.42001-1.48-3.66.49001,1.23001.98,2.45001,1.48,3.66Z" style="fill:#fff;"/><path d="m195.7019,405.23218c-.11-.25-.23-.51001-.34-.76001.17999.42999.37.85001.56,1.28-.08-.17001-.14999-.34-.23-.51999h.00999Z" style="fill:#fff;"/><path d="m196.6419,407.31217c-.17999-.38-.35001-.76999-.53-1.16.11.23999.22.48001.33.72.07001.14999.13.29001.2.42999v.01001Z" style="fill:#fff;"/><path d="m201.2319,416.79218c-.82001-1.59-1.63-3.20001-2.42-4.84.03.07001.06.14001.10001.20001.2.41.39.82001.60001,1.22.21001.42999.42.85001.63,1.26999.14999.29999.3.60001.45.89001.21001.42001.42999.84.64,1.25l-.00002.00998Z" style="fill:#fff;"/><path d="m198.7919,411.90216c-.59-1.20999-1.17-2.42999-1.74001-3.67999.32001.70001.64999,1.39999.98,2.09.25.53.5,1.06.75999,1.57999l.00002.01001Z" style="fill:#fff;"/><path d="m201.3319,416.97217c-.03-.06-.06-.13-.10001-.19.24001.47.48.92999.72,1.39999-.21001-.39999-.42-.79999-.63-1.20999h.01001Z" style="fill:#fff;"/><path d="m198.8119,411.93216s0-.01999-.00999-.03c0,.01999.02.03.02.04999v-.01999h-.01001Z" style="fill:#fff;"/><path d="m202.16191,418.56217c-.07001-.13-.13-.25-.2-.38.46001.87.92,1.73999,1.39,2.60001-.09-.17001-.19-.34-.28-.51999-.31-.56-.61-1.13-.91-1.70999v.00998Z" style="fill:#fff;"/><path d="m207.7019,428.37217c.17999.29999.36.59.53999.88-.24001-.39999-.48-.79001-.72-1.19.06.10001.12.20999.19.31h-.00999Z" style="fill:#fff;"/><path d="m206.1719,425.78217c.14999.26001.3.51999.46001.78-.62-1.06-1.24001-2.12-1.85001-3.20999.46001.82001.92999,1.62,1.39999,2.42999h-.00999Z" style="fill:#fff;"/><path d="m211.3719,434.19217c.07001.10999.14.20999.21001.32001-.31-.47-.62-.94-.92999-1.42001.24001.37.48.73999.72,1.10001h-.00002Z" style="fill:#fff;"/><path d="m209.85191,431.83216c.27.42001.53999.84.81,1.26001-.10001-.14999-.19-.29001-.28999-.44-.17-.26999-.35001-.54001-.52-.82001Z" style="fill:#fff;"/><path d="m208.24191,429.25217c.34.56.69,1.12,1.03999,1.67999-.3-.48001-.60001-.97-.89999-1.45999-.03999-.07001-.09-.14999-.13-.22h-.00999Z" style="fill:#fff;"/><path d="m214.07191,438.17218c.33.47.64999.92999.98,1.39001-.97-1.37-1.92999-2.76001-2.88-4.17999.13.19.25999.39001.39.57999.13.19.25.38.38.56.37.54999.75,1.10001,1.13,1.64001v.00998Z" style="fill:#fff;"/><path d="m206.63191,426.56217c.3.5.59,1,.89,1.5-.09-.14001-.17-.28-.25999-.42001-.17-.28-.34-.57001-.50999-.85001-.03999-.07001-.09-.14999-.13-.22l.00999-.00998Z" style="fill:#fff;"/><path d="m232.38191,460.35218c.11.12.23.23001.34.35999-.89-.91-1.77-1.82999-2.64-2.76001.37.39001.74001.79001,1.11,1.17999.12.13.24001.25.37.38.27.28.53999.56.82001.84v.00003Z" style="fill:#fff;"/><path d="m228.2619,455.98218c.46001.51001.92999,1.01999,1.41,1.53-1.32001-1.41-2.62-2.85001-3.89-4.32001.39.45001.78999.89999,1.19,1.35001l.24001.26999c.35001.39001.7.79001,1.06,1.17001h-.01001Z" style="fill:#fff;"/><path d="m223.21191,450.18216c.28.34.56.67001.84,1-1.14999-1.37-2.28999-2.75-3.41-4.16.27.34.55.69.82001,1.03.36.45001.73.91,1.10001,1.35001.21001.26001.42999.51999.64.78h.00999Z" style="fill:#fff;"/><path d="m217.5619,443.01218c.41.56.83,1.10999,1.25999,1.66-.74001-.95999-1.46001-1.92999-2.17999-2.91.31.42001.62.84.92999,1.25h-.00999Z" style="fill:#fff;"/><path d="m220.3319,446.63218s.03.04001.05.06c-.39999-.5-.8-1.01001-1.19-1.51999.38.48999.75999.98001,1.14,1.45999Z" style="fill:#fff;"/><path d="m209.30191,430.96216c.17999.29001.37.57999.55.87-.19-.29999-.38-.60001-.57001-.89999,0,.01001.00999.01999.02.03Z" style="fill:#fff;"/><path d="m220.38191,446.69217c.09.10999.17.22.25999.32999-.05-.07001-.11-.13-.16-.20001-.03-.04001-.07001-.09-.10001-.13l.00002.00003Z" style="fill:#fff;"/><path d="m224.05191,451.18216c.13.16.27.32001.39999.47-.03-.04001-.07001-.07999-.10001-.12-.10001-.12-.2-.23001-.3-.35001h.00002Z" style="fill:#fff;"/><path d="m224.4519,451.65216c.39999.47.81.95001,1.22,1.42001-.41-.47-.82001-.94-1.22-1.42001Z" style="fill:#fff;"/><path d="m218.8119,444.67218c.13.16.25.32999.38.48999-.03999-.04999-.07001-.09-.11-.14001-.09-.12-.17999-.23001-.25999-.35001l-.01001.00003Z" style="fill:#fff;"/><path d="m229.6719,457.50217c.14.14999.28.29999.42.45001-.07001-.07999-.14999-.14999-.22-.23001-.07001-.07001-.13-.14999-.2-.22Z" style="fill:#fff;"/><path d="m225.6719,453.07218s.07001.07999.10001.12c-.02-.03-.05-.04999-.07001-.07999-.00999-.01001-.02-.01999-.03-.04001Z" style="fill:#fff;"/><path d="m215.4819,440.18216c.34.48001.69.95999,1.03999,1.44-.35001-.48001-.7-.95999-1.03999-1.44Z" style="fill:#fff;"/><path d="m211.5819,434.51218c.19.29999.39.59.59.88-.09-.13-.17999-.26001-.25999-.39001-.11-.16-.22-.32999-.32001-.48999h-.00999Z" style="fill:#fff;"/><path d="m215.05191,439.57218c.14.20001.28999.41.42999.60999-.06-.09-.13-.17001-.19-.26001-.08-.12-.16-.23999-.25-.35001l.01001.00003Z" style="fill:#fff;"/><path d="m216.52191,441.62217s.07001.10001.11.14999c-.03-.04001-.06-.07999-.09-.12,0,0-.00999-.01999-.02-.03Z" style="fill:#fff;"/><path d="m234.2319,462.22217c.44.44.88.87,1.32001,1.29999-.78999-.76999-1.57001-1.54999-2.35001-2.32999.34.35001.67999.69,1.03,1.03Z" style="fill:#fff;"/><path d="m240.0119,467.73218c.07001.07001.13.13.2.19-1.50999-1.37-3-2.78-4.46001-4.20001.57001.56,1.14999,1.10999,1.73,1.64999.33.32001.66.63.99001.92999.11.10001.22.20999.33.31.39999.38.81.75,1.22,1.12l-.00999.00003Z" style="fill:#fff;"/><path d="m235.55191,463.52216c.07001.07001.14.13.21001.20001l-.10001-.10001-.10001-.10001h-.00999Z" style="fill:#fff;"/><path d="m232.7319,460.71216c.16.16.32001.32001.47.48001l-.10001-.10001-.38-.38h.01001Z" style="fill:#fff;"/><path d="m248.0119,474.64219h0c-12.86,4.81-26.25999,8.17001-39.98,9.97-52.77-24.41-90.26-74-112.19-149.63-21.71999-74.89001-84.01-94.09001-84.01-94.09001,8.38-23.23,20.96-43.72,36.61-60.90001,10.48,2.46001,60.87,19.95,81.3,65.78,32.3,72.45999,17.86,172.00998,118.24001,228.85001-2.66-2.17999-5.25-4.39999-7.75999-6.70001.49001.45001.99001.89001,1.48,1.32999,1.12.98999,2.24001,1.98001,3.39,2.95001.37.32001.75.64001,1.13.95001.59.5,1.19,1,1.8,1.48999l-.01003.00003Z" style="fill:#fff;"/><path d="m202.7019,143.86217c.27.23.53.45.8.67999-.46001-.39-.92-.78-1.38-1.16.19.16.39.32001.58.48v.00002Z" style="fill:#fff;"/><path d="m209.1219,149.60218c.46001.44.92.89,1.38,1.34-.89-.87-1.8-1.73-2.7-2.56.44.39999.88.81,1.32001,1.22h-.00002Z" style="fill:#fff;"/><path d="m217.4219,158.11217c.25999.28.50999.57001.75999.85001-.53999-.61-1.09-1.22-1.63-1.81.28999.32001.59.64.88.96001l-.00999-.00002Z" style="fill:#fff;"/><path d="m219.4519,160.40216c.25.28999.5.59.75.88-.41-.48-.82001-.95-1.23-1.42.16.17999.32001.36.48.53999Z" style="fill:#fff;"/><path d="m226.8719,169.70217c.49001.66.98,1.32001,1.45,2-.48-.67-.96001-1.34-1.45-2Z" style="fill:#fff;"/><path d="m239.4819,189.80217c.03.06.06.12.09.19-.42999-.82001-.87-1.64-1.31-2.45.41.74001.81,1.5,1.21001,2.25999h.00999Z" style="fill:#fff;"/><path d="m241.0419,192.86217c.46001.92999.92999,1.89999,1.38,2.86-.58-1.22-1.17-2.44-1.78-3.63.13.25999.25999.52.39.77h.00999Z" style="fill:#fff;"/><path d="m245.1119,201.67217c.42999,1.00999.85001,2.03,1.27,3.06-.41-1.03-.84-2.05-1.27-3.06Z" style="fill:#fff;"/><path d="m246.3719,204.73217c.42,1.03.82001,2.07001,1.22,3.12-.39-1.05-.8-2.09-1.22-3.12Z" style="fill:#fff;"/><path d="m248.1819,209.43216c1.56,4.23,2.97,8.61,4.22,13.14999-1.25999-4.53-2.67-8.92-4.22-13.14999Z" style="fill:#fff;"/><path d="m252.4019,222.58217c.78999,2.83,1.50999,5.73,2.17,8.69-.66-2.96001-1.38-5.85001-2.17-8.69Z" style="fill:#fff;"/><path d="m254.57191,231.27218c.39999,1.77.77,3.57001,1.11,5.38-.35001-1.81-.72-3.61-1.11-5.38Z" style="fill:#fff;"/><path d="m255.6819,236.65216c.23,1.21001.45001,2.42999.66,3.66-.20999-1.23-.42999-2.45-.66-3.66Z" style="fill:#fff;"/><path d="m258.01191,295.77216c.32001-3.32001.56-6.57999.73999-9.79999-.17001,3.22-.42001,6.48999-.73001,9.81-.10001,1.07999-.20999,2.16-.29999,3.23001.10001-1.07999.20001-2.16.29999-3.23999l-.00998-.00003Z" style="fill:#fff;"/><path d="m258.42192,257.08216c-.09-1.13-.19-2.24001-.29999-3.36.10999,1.11.20999,2.23.29999,3.36Z" style="fill:#fff;"/><path d="m102.1419,178.16217c.36.22.71.44,1.07.67-.38-.24001-.77-.48-1.15-.71001-.38-.23-.76-.47-1.14-.69-.38-.23-.76-.45-1.13-.67-.38-.22-.75-.44-1.13-.66-.01,0-.03-.02-.04-.02-.73-.42-1.46-.83-2.18-1.23-.37-.2-.73-.39999-1.1-.60001-16.35-8.81999-28.97-11.39999-29.04-11.42q-.04667-.01334,0,0c.07.02.01,0,.03,0h.05c.04,0,.1.02.17.03999.03,0,.07.02.11.03h0s.09.02.14.03c.07.02.15.03999.23.06s.16.03999.24.06c.05.00999.09.02.15.03999.09.02.18.05.28.07001.21.05.43.11.68.17l.33.09c.22.06.45.12.69.19.15.03999.3.08.46.13.35.10001.73.21001,1.13.32001.4.12.84.25,1.29.39,1,.31,2.11.67,3.32,1.09.19.07001.39.14.59.21001.04.02.08.03.12.03999.16.06.32.11.49.17.21.08.43.16.65.23.2.07001.4.14999.61.22.06.02.12.05.18.07001.16.06.31.12.47.17999.24.09.49.19.75.28.2.08.39.14999.59.23.45.17999.92.36,1.39.55.24.09.48.19.71.28999.24.10001.48.2.73.3.24.10001.49.2.74.31.74.31,1.51.64,2.29.99001.26.11.52.23.78.35001.26.12.53.24001.8.36,2.19,1.00999,4.49,2.14,6.88,3.39999.52.27,1.03.55,1.56.84.2.11.4.22.61.33.41.23.83.46001,1.25.7.57.32001,1.15.64999,1.73.99001.3.17999.61.36.91.53999s.61.36.92.55c.26.16.52.32001.78.48l.00999.01004Z" style="fill:#fff;"/><path d="m110.2719,183.56217c.29.21001.59.42.88.64-.09-.07001-.19-.14-.29-.21001-.21-.16-.42-.31-.64-.46001.01,0,.03.02.04.03l.01.00002Z" style="fill:#fff;"/><path d="m114.05191,186.37217c.31.24001.63.49001.94.74001l-1.08-.84c.04.03.09.07001.13.10001l.01-.00002Z" style="fill:#fff;"/><path d="m117.3819,189.02218c.67.55,1.34,1.11,2.01,1.69-.67-.57001-1.34-1.14-2.01-1.69Z" style="fill:#fff;"/><path d="m119.4019,190.71218c.45.38.89.75999,1.34,1.16-.45-.39-.89-.78-1.34-1.16Z" style="fill:#fff;"/><path d="m134.30191,205.68216c.71001.83,1.41,1.67999,2.10001,2.53999-.7-.86-1.39999-1.71001-2.10001-2.53999Z" style="fill:#fff;"/><path d="m138.4819,210.86217c.69.89,1.36,1.81,2.03999,2.73-.67999-.92999-1.35001-1.84-2.03999-2.73Z" style="fill:#fff;"/><path d="m145.8719,221.61217c.17.27.33.53999.5.81-.17-.27-.33-.53999-.5-.81s-.33-.53999-.5-.8c-.17-.27-.33-.53-.5-.8.17.25999.34.53.50999.8.13.21001.25999.41.39.62.03999.06.08.12.11.17999l-.00999.00002Z" style="fill:#fff;"/><path d="m154.2319,237.33217c-.39999-.89-.81-1.77-1.22-2.64.42.87.83,1.75,1.22,2.64Z" style="fill:#fff;"/><path d="m154.2319,237.33217c.39999.89.8,1.78,1.19,2.69-.39-.91-.78999-1.81-1.19-2.69Z" style="fill:#fff;"/><path d="m160.7019,254.47217c.32001,1.00999.62,2.04001.92,3.07999-.3-1.04001-.61-2.06-.92-3.08v.00002Z" style="fill:#fff;"/><path d="m168.3419,295.21216c.2,1.54001.39999,3.06.60001,4.57001-.2-1.51001-.39999-3.03-.60001-4.57001Z" style="fill:#fff;"/><path d="m170.2019,308.72217c.22,1.45999.44,2.92001.66,4.35999-.22-1.44-.44-2.89999-.66-4.35999Z" style="fill:#fff;"/><path d="m174.4719,333.89219c-.39-2-.77-4.01999-1.14-6.06.37,2.04999.75,4.07001,1.14,6.06Z" style="fill:#fff;"/><path d="m175.2519,337.85218c-.25999-1.31-.53-2.63-.78-3.95999.25999,1.32999.52,2.64999.78,3.95999Z" style="fill:#fff;"/><path d="m181.80191,365.60218c-.64-2.32001-1.25999-4.67001-1.87-7.06.61,2.39001,1.23,4.75,1.87,7.06Z" style="fill:#fff;"/><path d="m181.80191,365.61216c.36,1.29999.72,2.59,1.09,3.87-.37-1.28-.73-2.57001-1.09-3.87Z" style="fill:#fff;"/><path d="m189.0319,388.54218v.01999c-.07001-.17999-.13-.35999-.19-.53-.16-.47-.33-.92999-.5-1.39999.23.64001.45,1.28.67999,1.92001l.01001-.01001Z" style="fill:#fff;"/><path d="m190.27191,391.91217c.06.16.12.31.17.47-.23-.63-.47-1.26001-.7-1.89999.17999.48001.35001.95001.53,1.42999Z" style="fill:#fff;"/><path d="m190.7319,393.14219c.02.06.05.12.07001.17999-.12-.31-.24001-.63-.36-.94.10001.25.19.51001.28999.76001Z" style="fill:#fff;"/><path d="m190.8619,393.48218c.10001.26001.2.51999.28999.78-.12-.31-.24001-.62-.36-.94.02.04999.03999.10999.06.16h.01001Z" style="fill:#fff;"/><path d="m191.8919,396.12217c.49001,1.23001.98,2.45001,1.48,3.66-.5-1.20001-.99001-2.42001-1.48-3.66Z" style="fill:#fff;"/><path d="m196.44191,406.88218c.07001.14999.13.29001.2.42999-.17999-.38-.35001-.76999-.53-1.16-.06-.14001-.12-.26999-.17999-.39999-.08-.17001-.14999-.34-.23-.51999-.11-.25-.23-.51001-.34-.76001.12.26999.24001.54001.36.81.24001.53.47,1.06.71001,1.59l.00998.01001Z" style="fill:#fff;"/><path d="m200.5919,415.53217c.21001.42001.42999.84.64,1.25-.82001-1.59-1.63-3.20001-2.42-4.84.03.07001.06.14001.10001.20001.2.41.39.82001.60001,1.22.21001.42999.42.85001.63,1.26999.14999.29999.3.60001.45.89001l-.00002.00998Z" style="fill:#fff;"/><path d="m198.0319,410.32218c.25.53.5,1.06.75999,1.57999-.59-1.20999-1.17-2.42999-1.74001-3.67999.32001.70001.64999,1.39999.98,2.09l.00002.01001Z" style="fill:#fff;"/><path d="m198.7919,411.90216s.02.03.02.04999v-.01999s0-.01999-.00999-.03h-.01001Z" style="fill:#fff;"/><path d="m203.1219,420.36216c.53999,1,1.09,2,1.64,2.98001-.24001-.42001-.48-.85001-.71001-1.28-.23-.42001-.47-.85001-.7-1.28-.09-.17001-.19-.34-.28-.51999-.31-.56-.61-1.13-.91-1.70999-.07001-.13-.13-.25-.2-.38-.21001-.39999-.42-.79999-.63-1.20999-.03-.06-.06-.13-.10001-.19.09.17999.17999.35001.27.53.19.37.38.73999.58,1.10001.34.64999.69,1.29999,1.03999,1.95001l.00002.00995Z" style="fill:#fff;"/><path d="m206.63191,426.56217c.3.5.59,1,.89,1.5-.09-.14001-.17-.28-.25999-.42001-.17-.28-.34-.56-.50999-.85001-.03999-.07001-.09-.14999-.13-.22l.00999-.00998Z" style="fill:#fff;"/><path d="m211.3719,434.19217c.07001.10999.14.20999.21001.32001-.31-.47-.62-.94-.92999-1.42001.24001.37.48.73999.72,1.10001h-.00002Z" style="fill:#fff;"/><path d="m206.1719,425.78217c.14999.26001.3.51999.46001.78-.62-1.06-1.24001-2.12-1.85001-3.20999.46001.82001.92999,1.62,1.39999,2.42999h-.00999Z" style="fill:#fff;"/><path d="m208.24191,429.25217c.34.56.69,1.12,1.03999,1.67999-.3-.48001-.60001-.97-.89999-1.45999-.03999-.07001-.09-.14999-.13-.22h-.00999Z" style="fill:#fff;"/><path d="m209.30191,430.96216c.17999.29001.37.57999.55.87-.19-.29999-.38-.60001-.57001-.89999,0,.01001.00999.01999.02.03Z" style="fill:#fff;"/><path d="m207.7019,428.37217c.17999.29999.36.59.53999.88-.24001-.39999-.48-.79001-.72-1.19.06.10001.12.20999.19.31h-.00999Z" style="fill:#fff;"/><path d="m223.21191,450.18216c.28.34.56.67001.84,1-1.14999-1.37-2.28999-2.75-3.41-4.16.27.34.55.69.82001,1.03.36.45001.73.91,1.10001,1.35001.21001.26001.42999.51999.64.78h.00999Z" style="fill:#fff;"/><path d="m228.2619,455.98218c.46001.51001.92999,1.01999,1.41,1.53-1.32001-1.41-2.62-2.85001-3.89-4.32001.39.45001.78999.89999,1.19,1.35001l.24001.26999c.35001.39001.7.79001,1.06,1.17001h-.01001Z" style="fill:#fff;"/><path d="m224.05191,451.18216c.13.16.27.32001.39999.47-.03-.04001-.07001-.07999-.10001-.12-.10001-.12-.2-.23001-.3-.35001h.00002Z" style="fill:#fff;"/><path d="m220.3319,446.63218s.03.04001.05.06c-.39999-.5-.8-1.01001-1.19-1.51999.38.48999.75999.98001,1.14,1.45999Z" style="fill:#fff;"/><path d="m214.07191,438.17218c.33.47.64999.92999.98,1.39001-.97-1.37-1.92999-2.76001-2.88-4.17999.13.19.25999.39001.39.57999.13.19.25.38.38.56.37.54999.75,1.10001,1.13,1.64001v.00998Z" style="fill:#fff;"/><path d="m217.5619,443.01218c.41.56.83,1.10999,1.25999,1.66-.74001-.95999-1.46001-1.92999-2.17999-2.91.31.42001.62.84.92999,1.25h-.00999Z" style="fill:#fff;"/><path d="m218.8119,444.67218c.13.16.25.32999.38.48999-.03999-.04999-.07001-.09-.11-.14001-.09-.12-.17999-.23001-.25999-.35001l-.01001.00003Z" style="fill:#fff;"/><path d="m220.38191,446.69217c.09.10999.17.22.25999.32999-.05-.07001-.11-.13-.16-.20001-.03-.04001-.07001-.09-.10001-.13l.00002.00003Z" style="fill:#fff;"/><path d="m229.6719,457.50217c.14.14999.28.29999.42.45001-.07001-.07999-.14999-.14999-.22-.23001-.07001-.07001-.13-.14999-.2-.22Z" style="fill:#fff;"/><path d="m225.6719,453.07218s.07001.07999.10001.12c-.02-.03-.05-.04999-.07001-.07999-.00999-.01001-.02-.01999-.03-.04001Z" style="fill:#fff;"/><path d="m224.4519,451.65216c.39999.47.81.95001,1.22,1.42001-.41-.47-.82001-.94-1.22-1.42001Z" style="fill:#fff;"/><path d="m211.5819,434.51218c.19.29999.39.59.59.88-.09-.13-.17999-.26001-.25999-.39001-.11-.16-.22-.32999-.32001-.48999h-.00999Z" style="fill:#fff;"/><path d="m209.85191,431.83216c.27.42001.53999.84.81,1.26001-.10001-.14999-.19-.29001-.28999-.44-.17-.26999-.35001-.54001-.52-.82001Z" style="fill:#fff;"/><path d="m216.52191,441.62217s.07001.10001.11.14999c-.03-.04001-.06-.07999-.09-.12,0,0-.00999-.01999-.02-.03Z" style="fill:#fff;"/><path d="m215.05191,439.57218c.14.20001.28999.41.42999.60999-.06-.09-.13-.17001-.19-.26001-.08-.12-.16-.23999-.25-.35001l.01001.00003Z" style="fill:#fff;"/><path d="m215.4819,440.18216c.34.48001.69.95999,1.03999,1.44-.35001-.48001-.7-.95999-1.03999-1.44Z" style="fill:#fff;"/><path d="m233.0819,461.06217s.08.07999.13.13l-.10001-.10001-.38-.38c-.89-.91-1.77-1.82999-2.64-2.76001.37.39001.74001.79001,1.11,1.17999.12.13.24001.25.37.38.27.28.53999.56.82001.84.23.23999.46001.47.69.70999v.00003Z" style="fill:#fff;"/><path d="m235.55191,463.52216c.07001.07001.14.13.21001.20001l-.10001-.10001-.10001-.10001h-.00999Z" style="fill:#fff;"/><path d="m240.0119,467.73218c.07001.07001.13.13.2.19-1.50999-1.37-3-2.78-4.46001-4.20001.57001.56,1.14999,1.10999,1.73,1.64999.33.32001.66.63.99001.92999.11.10001.22.20999.33.31.39999.38.81.75,1.22,1.12l-.00999.00003Z" style="fill:#fff;"/><path d="m234.2319,462.22217c.44.44.88.87,1.32001,1.29999-.78999-.76999-1.57001-1.54999-2.35001-2.32999.34.35001.67999.69,1.03,1.03Z" style="fill:#fff;"/><path d="m248.0119,474.64219s-.02,0-.03-.01001h0c-2.66-2.17999-5.25-4.41-7.75999-6.70999.49001.45001.99001.89001,1.48,1.32999,1.12.98999,2.24001,1.98001,3.39,2.95001.37.32001.75.64001,1.13.95001.59.5,1.19,1,1.8,1.48999h-.01001Z" style="fill:#fff;"/><path d="m603.66188,145.62217c13.34998-24.18,31.96002-43.00999,55.84998-56.52,23.88-13.5,50.95001-20.25,81.22003-20.25,37.08002,0,68.82001,9.79,95.23999,29.37,26.40002,19.58,44.04999,46.28001,52.96002,80.1h-83.66998c-6.22998-13.05-15.06-22.99001-26.47998-29.81999-11.42999-6.82001-24.40997-10.24001-38.94-10.24001-23.44,0-42.42999,8.16-56.96002,24.48-14.53998,16.32001-21.79999,38.13-21.79999,65.42s7.26001,49.11,21.79999,65.42c14.53003,16.32001,33.52002,24.48001,56.96002,24.48001,14.53003,0,27.51001-3.41,38.94-10.23001,11.41998-6.82001,20.25-16.76001,26.47998-29.82001h83.66998c-8.90002,33.82001-26.56,60.45001-52.96002,79.88-26.40997,19.44-58.15002,29.14999-95.23999,29.14999-30.26001,0-57.34003-6.73999-81.21997-20.25-23.89001-13.5-42.5-32.26999-55.84998-56.29999s-20.03003-51.47-20.03003-82.33,6.67999-58.37,20.03003-82.55l-.00006.01001Z" style="fill:#fff; stroke:#000; stroke-miterlimit:10;"/><path d="m1192.86189,384.81217h-76.09998l-127.28003-192.69v192.69h-76.09998V72.41217h76.09998l127.28003,193.57999V72.41217h76.09998v312.39999Z" style="fill:#fff; stroke:#000; stroke-miterlimit:10;"/><path d="m1429.17195,72.41217v60.97h-127.28003v65.86h95.23999v59.18999h-95.23999v126.39001h-76.09998V72.41217h203.38Z" style="fill:#fff; stroke:#000; stroke-miterlimit:10;"/><path d="m1689.51191,72.41217v60.97h-82.78003v251.44h-76.09998v-251.44h-82.77002v-60.97h241.65002Z" style="fill:#fff; stroke:#000; stroke-miterlimit:10;"/></g></svg>