<?xml version="1.0" encoding="UTF-8"?><svg xmlns="http://www.w3.org/2000/svg" viewBox="0 0 586.36678 228.3"><defs><style>.b{stroke:#439a6f;stroke-miterlimit:25;stroke-width:5px;}.b,.c,.d,.e,.f,.g,.h{fill:none;}.c,.i,.j,.k,.l,.m,.n,.o,.p,.q,.r,.s,.t{stroke-width:0px;}.u{fill:#50a1d1;font-family:Arial-BoldMT, Arial;font-size:19.94733px;}.u,.v{font-weight:700;}.u,.v,.w{isolation:isolate;}.x{letter-spacing:-.03711em;}.d{stroke:#0599ce;}.d,.e,.f,.g,.h{stroke-miterlimit:10;stroke-width:2px;}.e{stroke:#6fc498;}.f{stroke:#3799cc;}.g{stroke:#369acc;}.h{stroke:#5aa580;}.y{letter-spacing:-.00005em;}.v{fill:#4fbc85;font-family:LoraRoman-Bold, Lora;font-size:119.3248px;font-variation-settings:'wght' 700;}.i{fill:#73c596;}.j{fill:#50beed;}.k{fill:#48bcec;}.l{fill:#6dc497;}.m{fill:#3d936a;}.n{fill:#3d89b8;}.o{fill:#17729a;}.p{fill:#359165;}.q{fill:#1c729c;}.r{fill:#43af7d;}.s{fill:#218dbd;}.t{fill:#167aa5;}</style></defs><g id="a" shape-rendering="geometricPrecision" text-rendering="geometricPrecision"><g class="w"><text class="v" transform="translate(283.524 144.0804)"><tspan x="0" y="0">koios</tspan></text></g><line class="b" x1="284.08376" y1="158.344" x2="581.99174" y2="158.344"/><circle class="l" cx="284.35707" cy="158.31945" r="2.5092"/><circle class="n" cx="581.50996" cy="158.34594" r="2.5092"/><g class="w"><text class="u" transform="translate(288.37752 184.37435)"><tspan x="0" y="0">Decentralised Opensource</tspan><tspan class="x" x="252.76043" y="0"> </tspan><tspan class="y" x="257.56229" y="0">API</tspan></text></g><path class="r" d="m105.2,0l-35.3,16.1,31.8,17.2,35.3-16.1L105.2,0Z"/><path class="i" d="m69.9,16.1v41.5l31.8,17.3v-41.6l-31.8-17.20001Z"/><path class="p" d="m101.7,74.9l35.3-16.2V17.19999l-35.3,16.10001v41.6Z"/><path class="e" d="m160.00001,65.4l-40.20001-20.8"/><path class="s" d="m238.19999,18.4l-20,9.1,17.70001,9.6,19.89999-9.1-17.60001-9.6Z"/><path class="k" d="m218.19999,27.5v23.5l17.70001,9.6v-23.5l-17.70001-9.59999Z"/><path class="o" d="m235.9,60.6l19.89999-9.1v-23.5l-19.89999,9.1v23.5Z"/><path class="d" d="m192.2,59.6l34.2-15.3"/><path class="r" d="m175.1,34.4l-35.3,16.1,31.8,17.3,35.3-16.2-31.8-17.2Z"/><path class="i" d="m139.8,50.5v41.6l31.8,17.2v-41.5l-31.8-17.3Z"/><path class="p" d="m171.6,109.3l35.3-16.1v-41.6l-35.3,16.2v41.5Z"/><path class="g" d="m119.50001,96.6l34.5-16.4"/><path class="h" d="m52.3,58.2l34.1-15.3"/><path class="r" d="m35.2,34.4L0,50.6l31.8,17.2,35.2-16.2-31.8-17.2Z"/><path class="i" d="m0,50.6v41.5l31.8,17.2v-41.5L0,50.6Z"/><path class="p" d="m31.8,109.3l35.2-16.2v-41.5l-35.2,16.2v41.5Z"/><path class="g" d="m52.1,78.6l30.8,18"/><path class="j" d="m99.7,141.5l28.39999-11.7v-32.2l-28.39999,11.7v32.2Z"/><path class="q" d="m99.7,109.3l-24.7-13.5v32.2l24.7,13.5v-32.2Z"/><path class="t" d="m99.7,109.3l28.39999-11.7-24.7-13.5-28.4,11.7,24.7,13.5Z"/><path class="t" d="m99.7,109.3l28.39999-11.7-24.7-13.5-28.4,11.7,24.7,13.5Z"/><path class="c" d="m76.5,95.9l26.8-11.1,23.3,12.8-26.8,11-23.3-12.7Z"/><path class="m" d="m103.3,84.8l-26.8,11.1,23.3,12.7,26.8-11-23.3-12.8Z"/><path class="f" d="m150.9,141.1l-35.89999-19.60001"/><path class="r" d="m175.1,120l-35.3,16.10001,31.8,17.2,35.3-16.10001-31.8-17.2Z"/><path class="i" d="m139.8,136.1v41.59999l31.8,17.2v-41.59999l-31.8-17.2Z"/><path class="p" d="m171.6,194.90001l35.3-16.2v-41.5l-35.3,16.10001v41.59999Z"/><path class="d" d="m192.2,164.90001l29.40001,15.8"/><path class="s" d="m238.19999,166.6l-20,9.10001,17.70001,9.60001,19.89999-9.10001-17.60001-9.60001Z"/><path class="k" d="m218.19999,175.69999v23.5l17.70001,9.60001v-23.5l-17.70001-9.60001Z"/><path class="o" d="m235.9,208.8l19.89999-9.10001v-23.5l-19.89999,9.10001v23.5Z"/><path class="h" d="m119.8,180.19999l34.2-15.3"/><path class="g" d="m53.8,133.1l32.2-14.2"/><path class="r" d="m35.2,120L0,136.1l31.8,17.2,35.2-16.10001-31.79999-17.2Z"/><path class="i" d="m0,136.1v41.59999l31.8,17.2v-41.59999L0,136.1Z"/><path class="p" d="m31.8,194.90001l35.2-16.2v-41.5l-35.2,16.09999v41.60001Z"/><path class="e" d="m92.6,187.40001l-40.1-20.8"/><path class="r" d="m105.2,153.40001l-35.3,16.10001,31.8,17.2,35.3-16.10001-31.8-17.2Z"/><path class="i" d="m69.9,169.5v41.59999l31.8,17.2v-41.59999l-31.8-17.2Z"/><path class="p" d="m101.7,228.3l35.3-16.2v-41.5l-35.3,16.10001v41.59999Z"/></g></svg>